<?xml version="1.0" standalone="no"?><!-- Generator: Gravit.io --><svg xmlns="http://www.w3.org/2000/svg" xmlns:xlink="http://www.w3.org/1999/xlink" style="isolation:isolate" viewBox="0 0 60 380" width="60" height="380"><defs><clipPath id="_clipPath_VF1qBO7By1ANqEDws8IzXP0yNVR8kNEt"><rect width="60" height="380"/></clipPath></defs><g clip-path="url(#_clipPath_VF1qBO7By1ANqEDws8IzXP0yNVR8kNEt)"><rect x="0" y="0" width="60" height="380" transform="matrix(1,0,0,1,0,0)" fill="rgb(226,226,226)"/><path d="M 19 306 L 41 306 C 44.311 306 47 308.689 47 312 L 47 344 C 47 347.311 44.311 350 41 350 L 19 350 C 15.689 350 13 347.311 13 344 L 13 312 C 13 308.689 15.689 306 19 306 Z" style="stroke:none;fill:#9A4D4D;stroke-miterlimit:10;"/><path d=" M 54.944 373.92 L 53.728 372.632 C 53 371.848 52.504 371.696 51.96 371.696 C 50.944 371.696 50.304 372.528 50.304 373.776 C 50.304 374.784 50.712 375.568 51.344 376 L 51.952 375.056 C 51.576 374.784 51.392 374.376 51.392 373.896 C 51.392 373.304 51.648 373 52.088 373 C 52.36 373 52.648 373.088 53.12 373.584 L 55.16 375.744 L 56 375.744 L 56 371.512 L 54.944 371.512 L 54.944 373.92 Z  M 50.4 371.232 L 51.44 371.232 L 51.44 370.112 L 56 370.112 L 56 368.816 L 50.4 368.816 L 50.4 371.232 Z  M 56 364.368 L 56 362.856 L 53.52 364.808 L 51.696 363.016 L 51.696 364.504 L 53.424 366.328 L 50.064 366.328 L 50.064 367.576 L 56 367.576 L 56 366.328 L 54.904 366.328 L 54.312 365.728 L 56 364.368 Z  M 50.4 358.368 L 52.608 358.368 L 52.608 360.912 L 50.4 360.912 L 50.4 362.208 L 56 362.208 L 56 360.912 L 53.704 360.912 L 53.704 358.368 L 56 358.368 L 56 357.072 L 50.4 357.072 L 50.4 358.368 Z  M 55.04 354.552 L 52.448 352.36 L 51.696 352.36 L 51.696 356.072 L 52.656 356.072 L 52.656 353.936 L 55.248 356.128 L 56 356.128 L 56 352.288 L 55.04 352.288 L 55.04 354.552 Z " fill-rule="evenodd" fill="rgb(32,32,32)"/><g><line x1="19.877" y1="73" x2="19.116" y2="74.287" vector-effect="non-scaling-stroke" stroke-width="0.8" stroke="rgb(32,32,32)" stroke-linejoin="miter" stroke-linecap="square" stroke-miterlimit="3"/><line x1="40.316" y1="72.9" x2="41.077" y2="74.187" vector-effect="non-scaling-stroke" stroke-width="0.8" stroke="rgb(32,32,32)" stroke-linejoin="miter" stroke-linecap="square" stroke-miterlimit="3"/><line x1="10.235" y1="64.161" x2="11.621" y2="63.6" vector-effect="non-scaling-stroke" stroke-width="0.8" stroke="rgb(32,32,32)" stroke-linejoin="miter" stroke-linecap="square" stroke-miterlimit="3"/><line x1="49.835" y1="63.961" x2="48.449" y2="63.4" vector-effect="non-scaling-stroke" stroke-width="0.8" stroke="rgb(32,32,32)" stroke-linejoin="miter" stroke-linecap="square" stroke-miterlimit="3"/><line x1="9.416" y1="50.2" x2="10.858" y2="50.595" vector-effect="non-scaling-stroke" stroke-width="0.8" stroke="rgb(32,32,32)" stroke-linejoin="miter" stroke-linecap="square" stroke-miterlimit="3"/><line x1="50.584" y1="50" x2="49.142" y2="50.395" vector-effect="non-scaling-stroke" stroke-width="0.8" stroke="rgb(32,32,32)" stroke-linejoin="miter" stroke-linecap="square" stroke-miterlimit="3"/><line x1="30.016" y1="34.5" x2="30.016" y2="35.995" vector-effect="non-scaling-stroke" stroke-width="0.8" stroke="rgb(32,32,32)" stroke-linejoin="miter" stroke-linecap="square" stroke-miterlimit="3"/><line x1="16.931" y1="39" x2="17.838" y2="40.189" vector-effect="non-scaling-stroke" stroke-width="0.8" stroke="rgb(32,32,32)" stroke-linejoin="miter" stroke-linecap="square" stroke-miterlimit="3"/><line x1="42.923" y1="38.9" x2="42.016" y2="40.089" vector-effect="non-scaling-stroke" stroke-width="0.8" stroke="rgb(32,32,32)" stroke-linejoin="miter" stroke-linecap="square" stroke-miterlimit="3"/></g><g><line x1="18.894" y1="130.445" x2="19.656" y2="129.158" vector-effect="non-scaling-stroke" stroke-width="0.8" stroke="rgb(32,32,32)" stroke-linejoin="miter" stroke-linecap="square" stroke-miterlimit="3"/><line x1="41.064" y1="130.445" x2="40.302" y2="129.158" vector-effect="non-scaling-stroke" stroke-width="0.8" stroke="rgb(32,32,32)" stroke-linejoin="miter" stroke-linecap="square" stroke-miterlimit="3"/><line x1="13.08" y1="125.297" x2="14.257" y2="124.375" vector-effect="non-scaling-stroke" stroke-width="0.8" stroke="rgb(32,32,32)" stroke-linejoin="miter" stroke-linecap="square" stroke-miterlimit="3"/><line x1="46.878" y1="125.297" x2="45.701" y2="124.375" vector-effect="non-scaling-stroke" stroke-width="0.8" stroke="rgb(32,32,32)" stroke-linejoin="miter" stroke-linecap="square" stroke-miterlimit="3"/><line x1="9.416" y1="118.331" x2="10.848" y2="117.901" vector-effect="non-scaling-stroke" stroke-width="0.8" stroke="rgb(32,32,32)" stroke-linejoin="miter" stroke-linecap="square" stroke-miterlimit="3"/><line x1="50.542" y1="118.331" x2="49.11" y2="117.901" vector-effect="non-scaling-stroke" stroke-width="0.8" stroke="rgb(32,32,32)" stroke-linejoin="miter" stroke-linecap="square" stroke-miterlimit="3"/><line x1="8.579" y1="110.175" x2="10.07" y2="110.295" vector-effect="non-scaling-stroke" stroke-width="0.8" stroke="rgb(32,32,32)" stroke-linejoin="miter" stroke-linecap="square" stroke-miterlimit="3"/><line x1="51.379" y1="110.175" x2="49.888" y2="110.295" vector-effect="non-scaling-stroke" stroke-width="0.8" stroke="rgb(32,32,32)" stroke-linejoin="miter" stroke-linecap="square" stroke-miterlimit="3"/><line x1="10.727" y1="102.452" x2="12.072" y2="103.106" vector-effect="non-scaling-stroke" stroke-width="0.8" stroke="rgb(32,32,32)" stroke-linejoin="miter" stroke-linecap="square" stroke-miterlimit="3"/><line x1="49.231" y1="102.452" x2="47.886" y2="103.106" vector-effect="non-scaling-stroke" stroke-width="0.8" stroke="rgb(32,32,32)" stroke-linejoin="miter" stroke-linecap="square" stroke-miterlimit="3"/><line x1="15.412" y1="96.176" x2="16.426" y2="97.275" vector-effect="non-scaling-stroke" stroke-width="0.8" stroke="rgb(32,32,32)" stroke-linejoin="miter" stroke-linecap="square" stroke-miterlimit="3"/><line x1="44.546" y1="96.176" x2="43.532" y2="97.275" vector-effect="non-scaling-stroke" stroke-width="0.8" stroke="rgb(32,32,32)" stroke-linejoin="miter" stroke-linecap="square" stroke-miterlimit="3"/><line x1="22.042" y1="92" x2="22.587" y2="93.393" vector-effect="non-scaling-stroke" stroke-width="0.8" stroke="rgb(32,32,32)" stroke-linejoin="miter" stroke-linecap="square" stroke-miterlimit="3"/><line x1="37.915" y1="92" x2="37.371" y2="93.393" vector-effect="non-scaling-stroke" stroke-width="0.8" stroke="rgb(32,32,32)" stroke-linejoin="miter" stroke-linecap="square" stroke-miterlimit="3"/><line x1="29.838" y1="91.995" x2="29.838" y2="90.5" vector-effect="non-scaling-stroke" stroke-width="0.8" stroke="rgb(32,32,32)" stroke-linejoin="miter" stroke-linecap="square" stroke-miterlimit="3"/></g><path d=" M 15.892 83.692 C 17.652 83.692 18.956 82.468 18.956 80.796 C 18.956 79.124 17.652 77.9 15.892 77.9 C 14.124 77.9 12.828 79.132 12.828 80.796 C 12.828 82.46 14.124 83.692 15.892 83.692 Z  M 15.892 82.588 C 14.892 82.588 14.14 81.86 14.14 80.796 C 14.14 79.732 14.892 79.004 15.892 79.004 C 16.892 79.004 17.644 79.732 17.644 80.796 C 17.644 81.86 16.892 82.588 15.892 82.588 Z  M 22.612 83.692 C 23.588 83.692 24.396 83.34 24.924 82.692 L 24.092 81.924 C 23.716 82.364 23.244 82.588 22.684 82.588 C 21.636 82.588 20.892 81.852 20.892 80.796 C 20.892 79.74 21.636 79.004 22.684 79.004 C 23.244 79.004 23.716 79.228 24.092 79.66 L 24.924 78.892 C 24.396 78.252 23.588 77.9 22.62 77.9 C 20.876 77.9 19.58 79.108 19.58 80.796 C 19.58 82.484 20.876 83.692 22.612 83.692 Z  M 26.956 83.596 L 28.252 83.596 L 28.252 79.052 L 30.044 79.052 L 30.044 77.996 L 25.164 77.996 L 25.164 79.052 L 26.956 79.052 L 26.956 83.596 Z  M 34.924 83.596 L 36.284 83.596 L 33.78 77.996 L 32.5 77.996 L 30.004 83.596 L 31.332 83.596 L 31.828 82.396 L 34.428 82.396 L 34.924 83.596 Z  M 32.244 81.412 L 33.132 79.268 L 34.02 81.412 L 32.244 81.412 Z  M 40.964 77.996 L 39.236 81.996 L 37.532 77.996 L 36.132 77.996 L 38.548 83.596 L 39.828 83.596 L 42.252 77.996 L 40.964 77.996 Z  M 44.124 82.556 L 44.124 81.26 L 46.724 81.26 L 46.724 80.252 L 44.124 80.252 L 44.124 79.036 L 47.068 79.036 L 47.068 77.996 L 42.836 77.996 L 42.836 83.596 L 47.172 83.596 L 47.172 82.556 L 44.124 82.556 Z " fill-rule="evenodd" fill="rgb(32,32,32)"/><path d=" M 15.824 139.692 C 16.8 139.692 17.608 139.34 18.136 138.692 L 17.304 137.924 C 16.928 138.364 16.456 138.588 15.896 138.588 C 14.848 138.588 14.104 137.852 14.104 136.796 C 14.104 135.74 14.848 135.004 15.896 135.004 C 16.456 135.004 16.928 135.228 17.304 135.66 L 18.136 134.892 C 17.608 134.252 16.8 133.9 15.832 133.9 C 14.088 133.9 12.792 135.108 12.792 136.796 C 12.792 138.484 14.088 139.692 15.824 139.692 Z  M 21.72 139.692 C 23.48 139.692 24.784 138.468 24.784 136.796 C 24.784 135.124 23.48 133.9 21.72 133.9 C 19.952 133.9 18.656 135.132 18.656 136.796 C 18.656 138.46 19.952 139.692 21.72 139.692 Z  M 21.72 138.588 C 20.72 138.588 19.968 137.86 19.968 136.796 C 19.968 135.732 20.72 135.004 21.72 135.004 C 22.72 135.004 23.472 135.732 23.472 136.796 C 23.472 137.86 22.72 138.588 21.72 138.588 Z  M 29.944 139.596 L 31.304 139.596 L 28.8 133.996 L 27.52 133.996 L 25.024 139.596 L 26.352 139.596 L 26.848 138.396 L 29.448 138.396 L 29.944 139.596 Z  M 27.264 137.412 L 28.152 135.268 L 29.04 137.412 L 27.264 137.412 Z  M 36.848 139.596 L 35.592 137.796 C 36.32 137.484 36.744 136.868 36.744 136.028 C 36.744 134.772 35.808 133.996 34.312 133.996 L 31.888 133.996 L 31.888 139.596 L 33.184 139.596 L 33.184 138.036 L 34.312 138.036 L 34.376 138.036 L 35.456 139.596 L 36.848 139.596 Z  M 35.432 136.028 C 35.432 136.636 35.032 137.004 34.24 137.004 L 33.184 137.004 L 33.184 135.052 L 34.24 135.052 C 35.032 135.052 35.432 135.412 35.432 136.028 Z  M 39.608 139.692 C 41.208 139.692 41.984 138.892 41.984 137.956 C 41.984 135.9 38.728 136.612 38.728 135.58 C 38.728 135.228 39.024 134.94 39.792 134.94 C 40.288 134.94 40.824 135.084 41.344 135.38 L 41.744 134.396 C 41.224 134.068 40.504 133.9 39.8 133.9 C 38.208 133.9 37.44 134.692 37.44 135.644 C 37.44 137.724 40.696 137.004 40.696 138.052 C 40.696 138.396 40.384 138.652 39.616 138.652 C 38.944 138.652 38.24 138.412 37.768 138.068 L 37.328 139.044 C 37.824 139.428 38.72 139.692 39.608 139.692 Z  M 44.16 138.556 L 44.16 137.26 L 46.76 137.26 L 46.76 136.252 L 44.16 136.252 L 44.16 135.036 L 47.104 135.036 L 47.104 133.996 L 42.872 133.996 L 42.872 139.596 L 47.208 139.596 L 47.208 138.556 L 44.16 138.556 Z " fill-rule="evenodd" fill="rgb(32,32,32)"/><path d=" M 24.196 170.03 L 25.204 170.03 L 25.197 169.267 L 24.287 169.267 L 24.427 168.147 L 23.643 168.147 L 23.503 169.267 L 22.474 169.267 L 22.614 168.147 L 21.83 168.147 L 21.69 169.267 L 20.682 169.267 L 20.682 170.03 L 21.599 170.03 L 21.452 171.164 L 20.444 171.164 L 20.444 171.927 L 21.361 171.927 L 21.221 173.047 L 22.005 173.047 L 22.145 171.927 L 23.174 171.927 L 23.034 173.047 L 23.825 173.047 L 23.965 171.927 L 24.966 171.927 L 24.966 171.164 L 24.056 171.164 L 24.196 170.03 Z  M 22.236 171.164 L 22.383 170.03 L 23.412 170.03 L 23.265 171.164 L 22.236 171.164 Z  M 8.754 168.147 L 8.754 169.057 L 9.734 169.057 L 9.734 173.047 L 10.868 173.047 L 10.868 168.147 L 8.754 168.147 Z  M 11.218 173.747 L 12.191 173.747 L 14.501 167.153 L 13.528 167.153 L 11.218 173.747 Z  M 16.02 172.123 L 17.147 171.059 C 17.833 170.422 17.966 169.988 17.966 169.512 C 17.966 168.623 17.238 168.063 16.146 168.063 C 15.264 168.063 14.578 168.42 14.2 168.973 L 15.026 169.505 C 15.264 169.176 15.621 169.015 16.041 169.015 C 16.559 169.015 16.825 169.239 16.825 169.624 C 16.825 169.862 16.748 170.114 16.314 170.527 L 14.424 172.312 L 14.424 173.047 L 18.127 173.047 L 18.127 172.123 L 16.02 172.123 Z " fill-rule="evenodd" fill="rgb(32,32,32)"/><g><path d=" M 22.683 27 L 25.813 27 C 28.433 27 30.173 25.34 30.173 22.87 C 30.173 21.13 28.943 20 26.823 20 L 24.083 20 L 22.683 27 Z  M 23.853 26.13 L 24.903 20.87 L 26.723 20.87 C 28.353 20.87 29.163 21.67 29.163 22.93 C 29.163 24.78 27.903 26.13 25.843 26.13 L 23.853 26.13 Z " fill-rule="evenodd" fill="rgb(0,0,0)"/><path d=" M 35.725 24.554 C 34.789 24.554 34.333 25.05 33.965 25.602 C 33.605 25.05 33.141 24.554 32.205 24.554 C 31.293 24.554 30.605 25.218 30.605 26.13 C 30.605 27.034 31.293 27.706 32.205 27.706 C 33.141 27.706 33.605 27.21 33.965 26.658 C 34.333 27.21 34.789 27.706 35.725 27.706 C 36.637 27.706 37.317 27.034 37.317 26.122 C 37.317 25.218 36.637 24.554 35.725 24.554 Z  M 32.253 27.106 C 31.661 27.106 31.229 26.69 31.229 26.13 C 31.229 25.57 31.661 25.154 32.253 25.154 C 32.957 25.154 33.309 25.61 33.637 26.13 C 33.309 26.65 32.957 27.106 32.253 27.106 Z  M 35.677 27.106 C 34.973 27.106 34.621 26.65 34.293 26.13 C 34.621 25.61 34.973 25.154 35.677 25.154 C 36.261 25.154 36.693 25.562 36.693 26.122 C 36.693 26.69 36.261 27.106 35.677 27.106 Z " fill-rule="evenodd" fill="rgb(0,0,0)"/></g><path d=" M 24.956 314.968 C 26.497 314.968 27.637 313.897 27.637 312.434 C 27.637 310.971 26.497 309.9 24.956 309.9 C 23.41 309.9 22.275 310.978 22.275 312.434 C 22.275 313.89 23.41 314.968 24.956 314.968 Z  M 24.956 314.002 C 24.081 314.002 23.424 313.365 23.424 312.434 C 23.424 311.503 24.081 310.866 24.956 310.866 C 25.831 310.866 26.49 311.503 26.49 312.434 C 26.49 313.365 25.831 314.002 24.956 314.002 Z  M 30.668 314.968 C 32.061 314.968 32.887 314.17 32.887 312.728 L 32.887 309.984 L 31.767 309.984 L 31.767 312.686 C 31.767 313.617 31.368 314.002 30.675 314.002 C 29.99 314.002 29.583 313.617 29.583 312.686 L 29.583 309.984 L 28.449 309.984 L 28.449 312.728 C 28.449 314.17 29.275 314.968 30.668 314.968 Z  M 35.023 314.884 L 36.156 314.884 L 36.156 310.908 L 37.725 310.908 L 37.725 309.984 L 33.455 309.984 L 33.455 310.908 L 35.023 310.908 L 35.023 314.884 Z " fill-rule="evenodd" fill="rgb(226,226,226)"/><path d=" M 29.997 180.7 L 29.999 177.7 C 30 177.148 30.372 176.451 30.831 176.144 L 42.169 168.556 C 42.628 168.249 42.999 167.552 42.997 167 L 42.965 157.181" fill="none" vector-effect="non-scaling-stroke" stroke-width="0.8" stroke="rgb(32,32,32)" stroke-linejoin="miter" stroke-linecap="square" stroke-miterlimit="3"/><path d=" M 23.702 188.9 L 24.836 188.9 L 24.836 184 L 23.702 184 L 23.702 188.9 Z  M 29.372 184 L 29.372 186.975 L 26.936 184 L 25.998 184 L 25.998 188.9 L 27.118 188.9 L 27.118 185.925 L 29.561 188.9 L 30.492 188.9 L 30.492 184 L 29.372 184 Z  M 35.238 184 L 33.726 187.5 L 32.235 184 L 31.01 184 L 33.124 188.9 L 34.244 188.9 L 36.365 184 L 35.238 184 Z " fill-rule="evenodd" fill="rgb(0,0,0)"/><path d=" M 19.236 230.884 L 20.37 230.884 L 20.37 226.908 L 21.938 226.908 L 21.938 225.984 L 17.668 225.984 L 17.668 226.908 L 19.236 226.908 L 19.236 230.884 Z  M 26.887 230.884 L 25.788 229.309 C 26.425 229.036 26.796 228.497 26.796 227.762 C 26.796 226.663 25.977 225.984 24.668 225.984 L 22.547 225.984 L 22.547 230.884 L 23.681 230.884 L 23.681 229.519 L 24.668 229.519 L 24.724 229.519 L 25.669 230.884 L 26.887 230.884 Z  M 25.648 227.762 C 25.648 228.294 25.298 228.616 24.605 228.616 L 23.681 228.616 L 23.681 226.908 L 24.605 226.908 C 25.298 226.908 25.648 227.223 25.648 227.762 Z  M 31.353 230.884 L 32.543 230.884 L 30.352 225.984 L 29.232 225.984 L 27.048 230.884 L 28.21 230.884 L 28.644 229.834 L 30.919 229.834 L 31.353 230.884 Z  M 29.008 228.973 L 29.785 227.097 L 30.562 228.973 L 29.008 228.973 Z  M 36.428 225.984 L 36.428 228.959 L 33.992 225.984 L 33.054 225.984 L 33.054 230.884 L 34.174 230.884 L 34.174 227.909 L 36.617 230.884 L 37.548 230.884 L 37.548 225.984 L 36.428 225.984 Z  M 40.32 230.968 C 41.72 230.968 42.399 230.268 42.399 229.449 C 42.399 227.65 39.55 228.273 39.55 227.37 C 39.55 227.062 39.809 226.81 40.481 226.81 C 40.915 226.81 41.384 226.936 41.839 227.195 L 42.189 226.334 C 41.734 226.047 41.104 225.9 40.488 225.9 C 39.095 225.9 38.423 226.593 38.423 227.426 C 38.423 229.246 41.272 228.616 41.272 229.533 C 41.272 229.834 40.999 230.058 40.327 230.058 C 39.739 230.058 39.123 229.848 38.71 229.547 L 38.325 230.401 C 38.759 230.737 39.543 230.968 40.32 230.968 Z " fill-rule="evenodd" fill="rgb(0,0,0)"/><path d=" M 26.584 272.9 L 27.718 272.9 L 27.718 268 L 26.584 268 L 26.584 272.9 Z  M 32.254 268 L 32.254 270.975 L 29.818 268 L 28.88 268 L 28.88 272.9 L 30 272.9 L 30 269.925 L 32.443 272.9 L 33.374 272.9 L 33.374 268 L 32.254 268 Z " fill-rule="evenodd" fill="rgb(0,0,0)"/></g></svg>