<?xml version="1.0" standalone="no"?><!-- Generator: Gravit.io --><svg xmlns="http://www.w3.org/2000/svg" xmlns:xlink="http://www.w3.org/1999/xlink" style="isolation:isolate" viewBox="0 0 120 380" width="120" height="380"><defs><clipPath id="_clipPath_sMzPIcrS2sD3lKhajQrdaiSEc399lqzM"><rect width="120" height="380"/></clipPath></defs><g clip-path="url(#_clipPath_sMzPIcrS2sD3lKhajQrdaiSEc399lqzM)"><rect x="0" y="0" width="120" height="380" transform="matrix(1,0,0,1,0,0)" fill="rgb(226,226,226)"/><path d="M 12 306 L 108 306 C 111.311 306 114 308.689 114 312 L 114 344 C 114 347.311 111.311 350 108 350 L 12 350 C 8.689 350 6 347.311 6 344 L 6 312 C 6 308.689 8.689 306 12 306 Z" style="stroke:none;fill:#4D9A4D;stroke-miterlimit:10;"/><path d="M 49 263.974 L 108 263.974 C 111.311 263.974 114 266.663 114 269.974 L 114 317.324 C 114 320.636 111.311 323.324 108 323.324 L 49 323.324 C 45.689 323.324 43 320.636 43 317.324 L 43 269.974 C 43 266.663 45.689 263.974 49 263.974 Z" style="stroke:none;fill:#4D9A4D;stroke-miterlimit:10;"/><g><path d=" M 90.875 270.45 C 90.875 269.043 91.546 267.9 92.373 267.9 C 93.2 267.9 93.872 269.043 93.872 270.45" fill="none" vector-effect="non-scaling-stroke" stroke-width="1" stroke="rgb(226,226,226)" stroke-linejoin="miter" stroke-linecap="square" stroke-miterlimit="3"/><path d=" M 102.875 270.45 C 102.875 271.857 102.204 273 101.377 273 C 100.55 273 99.878 271.857 99.878 270.45" fill="none" vector-effect="non-scaling-stroke" stroke-width="1" stroke="rgb(226,226,226)" stroke-linejoin="miter" stroke-linecap="square" stroke-miterlimit="3"/><path d=" M 96.868 270.45 C 96.868 269.043 97.539 267.9 98.366 267.9 C 99.193 267.9 99.865 269.043 99.865 270.45" fill="none" vector-effect="non-scaling-stroke" stroke-width="1" stroke="rgb(226,226,226)" stroke-linejoin="miter" stroke-linecap="square" stroke-miterlimit="3"/><path d=" M 96.882 270.45 C 96.882 271.857 96.211 273 95.384 273 C 94.557 273 93.885 271.857 93.885 270.45" fill="none" vector-effect="non-scaling-stroke" stroke-width="1" stroke="rgb(226,226,226)" stroke-linejoin="miter" stroke-linecap="square" stroke-miterlimit="3"/></g><g><path d=" M 91 312.483 C 91 311.075 92.341 309.933 93.993 309.933 C 95.645 309.933 96.986 311.075 96.986 312.483" fill="none" vector-effect="non-scaling-stroke" stroke-width="1" stroke="rgb(226,226,226)" stroke-linejoin="miter" stroke-linecap="square" stroke-miterlimit="3"/><path d=" M 103 312.483 C 103 313.89 101.659 315.033 100.007 315.033 C 98.355 315.033 97.014 313.89 97.014 312.483" fill="none" vector-effect="non-scaling-stroke" stroke-width="1" stroke="rgb(226,226,226)" stroke-linejoin="miter" stroke-linecap="square" stroke-miterlimit="3"/></g><path d=" M 21.732 201.163 C 15.904 197.666 12 191.285 12 184 C 12 172.962 20.962 164 32 164 C 43.038 164 52 172.962 52 184 C 52 191.285 48.096 197.666 42.268 201.163" fill="none" vector-effect="non-scaling-stroke" stroke-width="0.8" stroke="rgb(32,32,32)" stroke-linejoin="miter" stroke-linecap="square" stroke-miterlimit="3"/><path d=" M 77.732 201.163 C 71.904 197.666 68 191.285 68 184 C 68 172.962 76.962 164 88 164 C 99.038 164 108 172.962 108 184 C 108 191.285 104.096 197.666 98.268 201.163" fill="none" vector-effect="non-scaling-stroke" stroke-width="0.8" stroke="rgb(32,32,32)" stroke-linejoin="miter" stroke-linecap="square" stroke-miterlimit="3"/><path d=" M 77.732 145.163 C 71.904 141.666 68 135.285 68 128 C 68 116.962 76.962 108 88 108 C 99.038 108 108 116.962 108 128 C 108 135.285 104.096 141.666 98.268 145.163" fill="none" vector-effect="non-scaling-stroke" stroke-width="0.8" stroke="rgb(32,32,32)" stroke-linejoin="miter" stroke-linecap="square" stroke-miterlimit="3"/><path d=" M 17.824 155.692 L 17.824 155.692 Q 16.968 155.692 16.276 155.32 L 16.276 155.32 L 16.276 155.32 Q 15.584 154.948 15.188 154.288 L 15.188 154.288 L 15.188 154.288 Q 14.792 153.628 14.792 152.796 L 14.792 152.796 L 14.792 152.796 Q 14.792 151.964 15.188 151.304 L 15.188 151.304 L 15.188 151.304 Q 15.584 150.644 16.276 150.272 L 16.276 150.272 L 16.276 150.272 Q 16.968 149.9 17.832 149.9 L 17.832 149.9 L 17.832 149.9 Q 18.56 149.9 19.148 150.156 L 19.148 150.156 L 19.148 150.156 Q 19.736 150.412 20.136 150.892 L 20.136 150.892 L 19.304 151.66 L 19.304 151.66 Q 18.736 151.004 17.896 151.004 L 17.896 151.004 L 17.896 151.004 Q 17.376 151.004 16.968 151.232 L 16.968 151.232 L 16.968 151.232 Q 16.56 151.46 16.332 151.868 L 16.332 151.868 L 16.332 151.868 Q 16.104 152.276 16.104 152.796 L 16.104 152.796 L 16.104 152.796 Q 16.104 153.316 16.332 153.724 L 16.332 153.724 L 16.332 153.724 Q 16.56 154.132 16.968 154.36 L 16.968 154.36 L 16.968 154.36 Q 17.376 154.588 17.896 154.588 L 17.896 154.588 L 17.896 154.588 Q 18.736 154.588 19.304 153.924 L 19.304 153.924 L 20.136 154.692 L 20.136 154.692 Q 19.736 155.18 19.144 155.436 L 19.144 155.436 L 19.144 155.436 Q 18.552 155.692 17.824 155.692 L 17.824 155.692 Z  M 23.72 155.692 L 23.72 155.692 Q 22.848 155.692 22.148 155.316 L 22.148 155.316 L 22.148 155.316 Q 21.448 154.94 21.052 154.28 L 21.052 154.28 L 21.052 154.28 Q 20.656 153.62 20.656 152.796 L 20.656 152.796 L 20.656 152.796 Q 20.656 151.972 21.052 151.312 L 21.052 151.312 L 21.052 151.312 Q 21.448 150.652 22.148 150.276 L 22.148 150.276 L 22.148 150.276 Q 22.848 149.9 23.72 149.9 L 23.72 149.9 L 23.72 149.9 Q 24.592 149.9 25.288 150.276 L 25.288 150.276 L 25.288 150.276 Q 25.984 150.652 26.384 151.312 L 26.384 151.312 L 26.384 151.312 Q 26.784 151.972 26.784 152.796 L 26.784 152.796 L 26.784 152.796 Q 26.784 153.62 26.384 154.28 L 26.384 154.28 L 26.384 154.28 Q 25.984 154.94 25.288 155.316 L 25.288 155.316 L 25.288 155.316 Q 24.592 155.692 23.72 155.692 L 23.72 155.692 Z  M 23.72 154.588 L 23.72 154.588 Q 24.216 154.588 24.616 154.36 L 24.616 154.36 L 24.616 154.36 Q 25.016 154.132 25.244 153.724 L 25.244 153.724 L 25.244 153.724 Q 25.472 153.316 25.472 152.796 L 25.472 152.796 L 25.472 152.796 Q 25.472 152.276 25.244 151.868 L 25.244 151.868 L 25.244 151.868 Q 25.016 151.46 24.616 151.232 L 24.616 151.232 L 24.616 151.232 Q 24.216 151.004 23.72 151.004 L 23.72 151.004 L 23.72 151.004 Q 23.224 151.004 22.824 151.232 L 22.824 151.232 L 22.824 151.232 Q 22.424 151.46 22.196 151.868 L 22.196 151.868 L 22.196 151.868 Q 21.968 152.276 21.968 152.796 L 21.968 152.796 L 21.968 152.796 Q 21.968 153.316 22.196 153.724 L 22.196 153.724 L 22.196 153.724 Q 22.424 154.132 22.824 154.36 L 22.824 154.36 L 22.824 154.36 Q 23.224 154.588 23.72 154.588 L 23.72 154.588 Z  M 31.944 155.596 L 31.448 154.396 L 28.848 154.396 L 28.352 155.596 L 27.024 155.596 L 29.52 149.996 L 30.8 149.996 L 33.304 155.596 L 31.944 155.596 Z  M 29.264 153.412 L 31.04 153.412 L 30.152 151.268 L 29.264 153.412 Z  M 38.848 155.596 L 37.456 155.596 L 36.376 154.036 L 36.312 154.036 L 35.184 154.036 L 35.184 155.596 L 33.888 155.596 L 33.888 149.996 L 36.312 149.996 L 36.312 149.996 Q 37.056 149.996 37.604 150.244 L 37.604 150.244 L 37.604 150.244 Q 38.152 150.492 38.448 150.948 L 38.448 150.948 L 38.448 150.948 Q 38.744 151.404 38.744 152.028 L 38.744 152.028 L 38.744 152.028 Q 38.744 152.652 38.444 153.104 L 38.444 153.104 L 38.444 153.104 Q 38.144 153.556 37.592 153.796 L 37.592 153.796 L 38.848 155.596 Z  M 37.432 152.028 L 37.432 152.028 Q 37.432 151.556 37.128 151.304 L 37.128 151.304 L 37.128 151.304 Q 36.824 151.052 36.24 151.052 L 36.24 151.052 L 35.184 151.052 L 35.184 153.004 L 36.24 153.004 L 36.24 153.004 Q 36.824 153.004 37.128 152.748 L 37.128 152.748 L 37.128 152.748 Q 37.432 152.492 37.432 152.028 L 37.432 152.028 Z  M 41.608 155.692 L 41.608 155.692 Q 40.944 155.692 40.324 155.512 L 40.324 155.512 L 40.324 155.512 Q 39.704 155.332 39.328 155.044 L 39.328 155.044 L 39.768 154.068 L 39.768 154.068 Q 40.128 154.332 40.624 154.492 L 40.624 154.492 L 40.624 154.492 Q 41.12 154.652 41.616 154.652 L 41.616 154.652 L 41.616 154.652 Q 42.168 154.652 42.432 154.488 L 42.432 154.488 L 42.432 154.488 Q 42.696 154.324 42.696 154.052 L 42.696 154.052 L 42.696 154.052 Q 42.696 153.852 42.54 153.72 L 42.54 153.72 L 42.54 153.72 Q 42.384 153.588 42.14 153.508 L 42.14 153.508 L 42.14 153.508 Q 41.896 153.428 41.48 153.332 L 41.48 153.332 L 41.48 153.332 Q 40.84 153.18 40.432 153.028 L 40.432 153.028 L 40.432 153.028 Q 40.024 152.876 39.732 152.54 L 39.732 152.54 L 39.732 152.54 Q 39.44 152.204 39.44 151.644 L 39.44 151.644 L 39.44 151.644 Q 39.44 151.156 39.704 150.76 L 39.704 150.76 L 39.704 150.76 Q 39.968 150.364 40.5 150.132 L 40.5 150.132 L 40.5 150.132 Q 41.032 149.9 41.8 149.9 L 41.8 149.9 L 41.8 149.9 Q 42.336 149.9 42.848 150.028 L 42.848 150.028 L 42.848 150.028 Q 43.36 150.156 43.744 150.396 L 43.744 150.396 L 43.344 151.38 L 43.344 151.38 Q 42.568 150.94 41.792 150.94 L 41.792 150.94 L 41.792 150.94 Q 41.248 150.94 40.988 151.116 L 40.988 151.116 L 40.988 151.116 Q 40.728 151.292 40.728 151.58 L 40.728 151.58 L 40.728 151.58 Q 40.728 151.868 41.028 152.008 L 41.028 152.008 L 41.028 152.008 Q 41.328 152.148 41.944 152.284 L 41.944 152.284 L 41.944 152.284 Q 42.584 152.436 42.992 152.588 L 42.992 152.588 L 42.992 152.588 Q 43.4 152.74 43.692 153.068 L 43.692 153.068 L 43.692 153.068 Q 43.984 153.396 43.984 153.956 L 43.984 153.956 L 43.984 153.956 Q 43.984 154.436 43.716 154.832 L 43.716 154.832 L 43.716 154.832 Q 43.448 155.228 42.912 155.46 L 42.912 155.46 L 42.912 155.46 Q 42.376 155.692 41.608 155.692 L 41.608 155.692 Z  M 46.16 154.556 L 49.208 154.556 L 49.208 155.596 L 44.872 155.596 L 44.872 149.996 L 49.104 149.996 L 49.104 151.036 L 46.16 151.036 L 46.16 152.252 L 48.76 152.252 L 48.76 153.26 L 46.16 153.26 L 46.16 154.556 Z " fill-rule="evenodd" fill="rgb(32,32,32)"/><path d=" M 82.964 151.04 L 80.028 151.04 L 80.028 152.52 L 82.62 152.52 L 82.62 153.56 L 80.028 153.56 L 80.028 155.6 L 78.732 155.6 L 78.732 150 L 82.964 150 L 82.964 151.04 Z  M 83.844 155.6 L 83.844 150 L 85.14 150 L 85.14 155.6 L 83.844 155.6 Z  M 90.324 150 L 91.604 150 L 91.604 155.6 L 90.54 155.6 L 87.748 152.2 L 87.748 155.6 L 86.468 155.6 L 86.468 150 L 87.54 150 L 90.324 153.4 L 90.324 150 Z  M 94.22 154.56 L 97.268 154.56 L 97.268 155.6 L 92.932 155.6 L 92.932 150 L 97.164 150 L 97.164 151.04 L 94.22 151.04 L 94.22 152.256 L 96.82 152.256 L 96.82 153.264 L 94.22 153.264 L 94.22 154.56 Z " fill-rule="evenodd" fill="rgb(32,32,32)"/><path d=" M 52.545 226.194 L 53.672 226.194 L 51.551 231.094 L 50.431 231.094 L 48.317 226.194 L 49.542 226.194 L 51.033 229.694 L 52.545 226.194 Z  M 53.371 231.794 L 55.681 225.2 L 56.654 225.2 L 54.344 231.794 L 53.371 231.794 Z  M 59.3 231.178 L 59.3 231.178 Q 58.537 231.178 57.925 230.849 L 57.925 230.849 L 57.925 230.849 Q 57.312 230.52 56.966 229.943 L 56.966 229.943 L 56.966 229.943 Q 56.619 229.365 56.619 228.644 L 56.619 228.644 L 56.619 228.644 Q 56.619 227.923 56.966 227.346 L 56.966 227.346 L 56.966 227.346 Q 57.312 226.768 57.925 226.439 L 57.925 226.439 L 57.925 226.439 Q 58.537 226.11 59.3 226.11 L 59.3 226.11 L 59.3 226.11 Q 60.063 226.11 60.672 226.439 L 60.672 226.439 L 60.672 226.439 Q 61.281 226.768 61.631 227.346 L 61.631 227.346 L 61.631 227.346 Q 61.981 227.923 61.981 228.644 L 61.981 228.644 L 61.981 228.644 Q 61.981 229.365 61.631 229.943 L 61.631 229.943 L 61.631 229.943 Q 61.281 230.52 60.672 230.849 L 60.672 230.849 L 60.672 230.849 Q 60.063 231.178 59.3 231.178 L 59.3 231.178 Z  M 59.3 230.212 L 59.3 230.212 Q 59.734 230.212 60.084 230.013 L 60.084 230.013 L 60.084 230.013 Q 60.434 229.813 60.633 229.456 L 60.633 229.456 L 60.633 229.456 Q 60.833 229.099 60.833 228.644 L 60.833 228.644 L 60.833 228.644 Q 60.833 228.189 60.633 227.832 L 60.633 227.832 L 60.633 227.832 Q 60.434 227.475 60.084 227.276 L 60.084 227.276 L 60.084 227.276 Q 59.734 227.076 59.3 227.076 L 59.3 227.076 L 59.3 227.076 Q 58.866 227.076 58.516 227.276 L 58.516 227.276 L 58.516 227.276 Q 58.166 227.475 57.967 227.832 L 57.967 227.832 L 57.967 227.832 Q 57.767 228.189 57.767 228.644 L 57.767 228.644 L 57.767 228.644 Q 57.767 229.099 57.967 229.456 L 57.967 229.456 L 57.967 229.456 Q 58.166 229.813 58.516 230.013 L 58.516 230.013 L 58.516 230.013 Q 58.866 230.212 59.3 230.212 L 59.3 230.212 Z  M 65.18 231.178 L 65.18 231.178 Q 64.431 231.178 63.825 230.852 L 63.825 230.852 L 63.825 230.852 Q 63.22 230.527 62.873 229.95 L 62.873 229.95 L 62.873 229.95 Q 62.527 229.372 62.527 228.644 L 62.527 228.644 L 62.527 228.644 Q 62.527 227.916 62.873 227.339 L 62.873 227.339 L 62.873 227.339 Q 63.22 226.761 63.825 226.436 L 63.825 226.436 L 63.825 226.436 Q 64.431 226.11 65.187 226.11 L 65.187 226.11 L 65.187 226.11 Q 65.824 226.11 66.338 226.334 L 66.338 226.334 L 66.338 226.334 Q 66.853 226.558 67.203 226.978 L 67.203 226.978 L 66.475 227.65 L 66.475 227.65 Q 65.978 227.076 65.243 227.076 L 65.243 227.076 L 65.243 227.076 Q 64.788 227.076 64.431 227.276 L 64.431 227.276 L 64.431 227.276 Q 64.074 227.475 63.874 227.832 L 63.874 227.832 L 63.874 227.832 Q 63.675 228.189 63.675 228.644 L 63.675 228.644 L 63.675 228.644 Q 63.675 229.099 63.874 229.456 L 63.874 229.456 L 63.874 229.456 Q 64.074 229.813 64.431 230.013 L 64.431 230.013 L 64.431 230.013 Q 64.788 230.212 65.243 230.212 L 65.243 230.212 L 65.243 230.212 Q 65.978 230.212 66.475 229.631 L 66.475 229.631 L 67.203 230.303 L 67.203 230.303 Q 66.853 230.73 66.335 230.954 L 66.335 230.954 L 66.335 230.954 Q 65.817 231.178 65.18 231.178 L 65.18 231.178 Z  M 68.981 231.094 L 68.981 227.118 L 67.413 227.118 L 67.413 226.194 L 71.683 226.194 L 71.683 227.118 L 70.115 227.118 L 70.115 231.094 L 68.981 231.094 Z " fill-rule="evenodd" fill="rgb(32,32,32)"/><path d=" M 15.979 272.884 L 14.761 272.884 L 13.816 271.519 L 13.76 271.519 L 12.773 271.519 L 12.773 272.884 L 11.639 272.884 L 11.639 267.984 L 13.76 267.984 L 13.76 267.984 Q 14.411 267.984 14.891 268.201 L 14.891 268.201 L 14.891 268.201 Q 15.37 268.418 15.629 268.817 L 15.629 268.817 L 15.629 268.817 Q 15.888 269.216 15.888 269.762 L 15.888 269.762 L 15.888 269.762 Q 15.888 270.308 15.626 270.704 L 15.626 270.704 L 15.626 270.704 Q 15.363 271.099 14.88 271.309 L 14.88 271.309 L 15.979 272.884 Z  M 14.74 269.762 L 14.74 269.762 Q 14.74 269.349 14.474 269.129 L 14.474 269.129 L 14.474 269.129 Q 14.208 268.908 13.697 268.908 L 13.697 268.908 L 12.773 268.908 L 12.773 270.616 L 13.697 270.616 L 13.697 270.616 Q 14.208 270.616 14.474 270.392 L 14.474 270.392 L 14.474 270.392 Q 14.74 270.168 14.74 269.762 L 14.74 269.762 Z  M 17.911 271.974 L 20.578 271.974 L 20.578 272.884 L 16.784 272.884 L 16.784 267.984 L 20.487 267.984 L 20.487 268.894 L 17.911 268.894 L 17.911 269.958 L 20.186 269.958 L 20.186 270.84 L 17.911 270.84 L 17.911 271.974 Z  M 23.091 272.968 L 23.091 272.968 Q 22.51 272.968 21.967 272.811 L 21.967 272.811 L 21.967 272.811 Q 21.425 272.653 21.096 272.401 L 21.096 272.401 L 21.481 271.547 L 21.481 271.547 Q 21.796 271.778 22.23 271.918 L 22.23 271.918 L 22.23 271.918 Q 22.664 272.058 23.098 272.058 L 23.098 272.058 L 23.098 272.058 Q 23.581 272.058 23.812 271.915 L 23.812 271.915 L 23.812 271.915 Q 24.043 271.771 24.043 271.533 L 24.043 271.533 L 24.043 271.533 Q 24.043 271.358 23.907 271.242 L 23.907 271.242 L 23.907 271.242 Q 23.77 271.127 23.556 271.057 L 23.556 271.057 L 23.556 271.057 Q 23.343 270.987 22.979 270.903 L 22.979 270.903 L 22.979 270.903 Q 22.419 270.77 22.062 270.637 L 22.062 270.637 L 22.062 270.637 Q 21.705 270.504 21.449 270.21 L 21.449 270.21 L 21.449 270.21 Q 21.194 269.916 21.194 269.426 L 21.194 269.426 L 21.194 269.426 Q 21.194 268.999 21.425 268.653 L 21.425 268.653 L 21.425 268.653 Q 21.656 268.306 22.122 268.103 L 22.122 268.103 L 22.122 268.103 Q 22.587 267.9 23.259 267.9 L 23.259 267.9 L 23.259 267.9 Q 23.728 267.9 24.176 268.012 L 24.176 268.012 L 24.176 268.012 Q 24.624 268.124 24.96 268.334 L 24.96 268.334 L 24.61 269.195 L 24.61 269.195 Q 23.931 268.81 23.252 268.81 L 23.252 268.81 L 23.252 268.81 Q 22.776 268.81 22.549 268.964 L 22.549 268.964 L 22.549 268.964 Q 22.321 269.118 22.321 269.37 L 22.321 269.37 L 22.321 269.37 Q 22.321 269.622 22.584 269.745 L 22.584 269.745 L 22.584 269.745 Q 22.846 269.867 23.385 269.986 L 23.385 269.986 L 23.385 269.986 Q 23.945 270.119 24.302 270.252 L 24.302 270.252 L 24.302 270.252 Q 24.659 270.385 24.914 270.672 L 24.914 270.672 L 24.914 270.672 Q 25.17 270.959 25.17 271.449 L 25.17 271.449 L 25.17 271.449 Q 25.17 271.869 24.935 272.216 L 24.935 272.216 L 24.935 272.216 Q 24.701 272.562 24.232 272.765 L 24.232 272.765 L 24.232 272.765 Q 23.763 272.968 23.091 272.968 L 23.091 272.968 Z  M 27.074 271.974 L 29.741 271.974 L 29.741 272.884 L 25.947 272.884 L 25.947 267.984 L 29.65 267.984 L 29.65 268.894 L 27.074 268.894 L 27.074 269.958 L 29.349 269.958 L 29.349 270.84 L 27.074 270.84 L 27.074 271.974 Z  M 31.659 272.884 L 31.659 268.908 L 30.091 268.908 L 30.091 267.984 L 34.361 267.984 L 34.361 268.908 L 32.793 268.908 L 32.793 272.884 L 31.659 272.884 Z " fill-rule="evenodd" fill="rgb(32,32,32)"/><path d=" M 22.979 222.7 L 22.997 216.9 C 22.999 216.348 23.315 215.581 23.703 215.189 L 31.297 207.511 C 31.685 207.119 32 206.352 32 205.8 L 32 200" fill="none" vector-effect="non-scaling-stroke" stroke-width="0.8" stroke-dasharray="0,0,0,0" stroke="rgb(32,32,32)" stroke-linejoin="miter" stroke-linecap="square" stroke-miterlimit="3"/><path d=" M 96.875 222.7 L 96.896 216.9 C 96.898 216.348 96.585 215.581 96.197 215.189 L 88.613 207.511 C 88.225 207.119 87.906 206.352 87.902 205.8 L 87.854 200" fill="none" vector-effect="non-scaling-stroke" stroke-width="0.8" stroke-dasharray="0,0,0,0" stroke="rgb(32,32,32)" stroke-linejoin="miter" stroke-linecap="square" stroke-miterlimit="3"/><g><line x1="44.561" y1="89.7" x2="43.8" y2="90.987" vector-effect="non-scaling-stroke" stroke-width="0.8" stroke="rgb(32,32,32)" stroke-linejoin="miter" stroke-linecap="square" stroke-miterlimit="3"/><line x1="75.435" y1="89.7" x2="76.196" y2="90.987" vector-effect="non-scaling-stroke" stroke-width="0.8" stroke="rgb(32,32,32)" stroke-linejoin="miter" stroke-linecap="square" stroke-miterlimit="3"/><line x1="30.8" y1="75.961" x2="32.186" y2="75.4" vector-effect="non-scaling-stroke" stroke-width="0.8" stroke="rgb(32,32,32)" stroke-linejoin="miter" stroke-linecap="square" stroke-miterlimit="3"/><line x1="89.196" y1="75.961" x2="87.81" y2="75.4" vector-effect="non-scaling-stroke" stroke-width="0.8" stroke="rgb(32,32,32)" stroke-linejoin="miter" stroke-linecap="square" stroke-miterlimit="3"/><line x1="29.672" y1="55.4" x2="31.115" y2="55.795" vector-effect="non-scaling-stroke" stroke-width="0.8" stroke="rgb(32,32,32)" stroke-linejoin="miter" stroke-linecap="square" stroke-miterlimit="3"/><line x1="90.324" y1="55.4" x2="88.882" y2="55.795" vector-effect="non-scaling-stroke" stroke-width="0.8" stroke="rgb(32,32,32)" stroke-linejoin="miter" stroke-linecap="square" stroke-miterlimit="3"/><line x1="60" y1="32.505" x2="60" y2="34" vector-effect="non-scaling-stroke" stroke-width="0.8" stroke="rgb(32,32,32)" stroke-linejoin="miter" stroke-linecap="square" stroke-miterlimit="3"/><line x1="40.826" y1="39.006" x2="41.734" y2="40.195" vector-effect="non-scaling-stroke" stroke-width="0.8" stroke="rgb(32,32,32)" stroke-linejoin="miter" stroke-linecap="square" stroke-miterlimit="3"/><line x1="79.17" y1="39.006" x2="78.263" y2="40.195" vector-effect="non-scaling-stroke" stroke-width="0.8" stroke="rgb(32,32,32)" stroke-linejoin="miter" stroke-linecap="square" stroke-miterlimit="3"/></g><path d=" M 45.892 101.692 L 45.892 101.692 Q 45.02 101.692 44.32 101.316 L 44.32 101.316 L 44.32 101.316 Q 43.62 100.94 43.224 100.28 L 43.224 100.28 L 43.224 100.28 Q 42.828 99.62 42.828 98.796 L 42.828 98.796 L 42.828 98.796 Q 42.828 97.972 43.224 97.312 L 43.224 97.312 L 43.224 97.312 Q 43.62 96.652 44.32 96.276 L 44.32 96.276 L 44.32 96.276 Q 45.02 95.9 45.892 95.9 L 45.892 95.9 L 45.892 95.9 Q 46.764 95.9 47.46 96.276 L 47.46 96.276 L 47.46 96.276 Q 48.156 96.652 48.556 97.312 L 48.556 97.312 L 48.556 97.312 Q 48.956 97.972 48.956 98.796 L 48.956 98.796 L 48.956 98.796 Q 48.956 99.62 48.556 100.28 L 48.556 100.28 L 48.556 100.28 Q 48.156 100.94 47.46 101.316 L 47.46 101.316 L 47.46 101.316 Q 46.764 101.692 45.892 101.692 L 45.892 101.692 Z  M 45.892 100.588 L 45.892 100.588 Q 46.388 100.588 46.788 100.36 L 46.788 100.36 L 46.788 100.36 Q 47.188 100.132 47.416 99.724 L 47.416 99.724 L 47.416 99.724 Q 47.644 99.316 47.644 98.796 L 47.644 98.796 L 47.644 98.796 Q 47.644 98.276 47.416 97.868 L 47.416 97.868 L 47.416 97.868 Q 47.188 97.46 46.788 97.232 L 46.788 97.232 L 46.788 97.232 Q 46.388 97.004 45.892 97.004 L 45.892 97.004 L 45.892 97.004 Q 45.396 97.004 44.996 97.232 L 44.996 97.232 L 44.996 97.232 Q 44.596 97.46 44.368 97.868 L 44.368 97.868 L 44.368 97.868 Q 44.14 98.276 44.14 98.796 L 44.14 98.796 L 44.14 98.796 Q 44.14 99.316 44.368 99.724 L 44.368 99.724 L 44.368 99.724 Q 44.596 100.132 44.996 100.36 L 44.996 100.36 L 44.996 100.36 Q 45.396 100.588 45.892 100.588 L 45.892 100.588 Z  M 52.612 101.692 L 52.612 101.692 Q 51.756 101.692 51.064 101.32 L 51.064 101.32 L 51.064 101.32 Q 50.372 100.948 49.976 100.288 L 49.976 100.288 L 49.976 100.288 Q 49.58 99.628 49.58 98.796 L 49.58 98.796 L 49.58 98.796 Q 49.58 97.964 49.976 97.304 L 49.976 97.304 L 49.976 97.304 Q 50.372 96.644 51.064 96.272 L 51.064 96.272 L 51.064 96.272 Q 51.756 95.9 52.62 95.9 L 52.62 95.9 L 52.62 95.9 Q 53.348 95.9 53.936 96.156 L 53.936 96.156 L 53.936 96.156 Q 54.524 96.412 54.924 96.892 L 54.924 96.892 L 54.092 97.66 L 54.092 97.66 Q 53.524 97.004 52.684 97.004 L 52.684 97.004 L 52.684 97.004 Q 52.164 97.004 51.756 97.232 L 51.756 97.232 L 51.756 97.232 Q 51.348 97.46 51.12 97.868 L 51.12 97.868 L 51.12 97.868 Q 50.892 98.276 50.892 98.796 L 50.892 98.796 L 50.892 98.796 Q 50.892 99.316 51.12 99.724 L 51.12 99.724 L 51.12 99.724 Q 51.348 100.132 51.756 100.36 L 51.756 100.36 L 51.756 100.36 Q 52.164 100.588 52.684 100.588 L 52.684 100.588 L 52.684 100.588 Q 53.524 100.588 54.092 99.924 L 54.092 99.924 L 54.924 100.692 L 54.924 100.692 Q 54.524 101.18 53.932 101.436 L 53.932 101.436 L 53.932 101.436 Q 53.34 101.692 52.612 101.692 L 52.612 101.692 Z  M 56.956 101.596 L 56.956 97.052 L 55.164 97.052 L 55.164 95.996 L 60.044 95.996 L 60.044 97.052 L 58.252 97.052 L 58.252 101.596 L 56.956 101.596 Z  M 64.924 101.596 L 64.428 100.396 L 61.828 100.396 L 61.332 101.596 L 60.004 101.596 L 62.5 95.996 L 63.78 95.996 L 66.284 101.596 L 64.924 101.596 Z  M 62.244 99.412 L 64.02 99.412 L 63.132 97.268 L 62.244 99.412 Z  M 70.964 95.996 L 72.252 95.996 L 69.828 101.596 L 68.548 101.596 L 66.132 95.996 L 67.532 95.996 L 69.236 99.996 L 70.964 95.996 Z  M 74.124 100.556 L 77.172 100.556 L 77.172 101.596 L 72.836 101.596 L 72.836 95.996 L 77.068 95.996 L 77.068 97.036 L 74.124 97.036 L 74.124 98.252 L 76.724 98.252 L 76.724 99.26 L 74.124 99.26 L 74.124 100.556 Z " fill-rule="evenodd" fill="rgb(32,32,32)"/><path d=" M 50.224 366.88 L 51.512 365.664 C 52.296 364.936 52.448 364.44 52.448 363.896 C 52.448 362.88 51.616 362.24 50.368 362.24 C 49.36 362.24 48.576 362.648 48.144 363.28 L 49.088 363.888 C 49.36 363.512 49.768 363.328 50.248 363.328 C 50.84 363.328 51.144 363.584 51.144 364.024 C 51.144 364.296 51.056 364.584 50.56 365.056 L 48.4 367.096 L 48.4 367.936 L 52.632 367.936 L 52.632 366.88 L 50.224 366.88 Z  M 52.912 362.336 L 52.912 363.376 L 54.032 363.376 L 54.032 367.936 L 55.328 367.936 L 55.328 362.336 L 52.912 362.336 Z  M 59.776 367.936 L 61.288 367.936 L 59.336 365.456 L 61.128 363.632 L 59.64 363.632 L 57.816 365.36 L 57.816 362 L 56.568 362 L 56.568 367.936 L 57.816 367.936 L 57.816 366.84 L 58.416 366.248 L 59.776 367.936 Z  M 65.776 362.336 L 65.776 364.544 L 63.232 364.544 L 63.232 362.336 L 61.936 362.336 L 61.936 367.936 L 63.232 367.936 L 63.232 365.64 L 65.776 365.64 L 65.776 367.936 L 67.072 367.936 L 67.072 362.336 L 65.776 362.336 Z  M 69.592 366.976 L 71.784 364.384 L 71.784 363.632 L 68.072 363.632 L 68.072 364.592 L 70.208 364.592 L 68.016 367.184 L 68.016 367.936 L 71.856 367.936 L 71.856 366.976 L 69.592 366.976 Z " fill-rule="evenodd" fill="rgb(32,32,32)"/><path d=" M 64.855 27.08 L 69.645 27.08 L 69.645 26.21 L 65.855 26.21 L 65.855 20.08 L 64.855 20.08 L 64.855 27.08 Z  M 73.955 27.16 C 76.085 27.16 77.665 25.64 77.665 23.58 C 77.665 21.52 76.085 20 73.955 20 C 71.805 20 70.225 21.53 70.225 23.58 C 70.225 25.63 71.805 27.16 73.955 27.16 Z  M 73.955 26.27 C 72.385 26.27 71.225 25.13 71.225 23.58 C 71.225 22.03 72.385 20.89 73.955 20.89 C 75.505 20.89 76.665 22.03 76.665 23.58 C 76.665 25.13 75.505 26.27 73.955 26.27 Z  M 82.355 27.16 C 84.485 27.16 86.065 25.64 86.065 23.58 C 86.065 21.52 84.485 20 82.355 20 C 80.205 20 78.625 21.53 78.625 23.58 C 78.625 25.63 80.205 27.16 82.355 27.16 Z  M 82.355 26.27 C 80.785 26.27 79.625 25.13 79.625 23.58 C 79.625 22.03 80.785 20.89 82.355 20.89 C 83.905 20.89 85.065 22.03 85.065 23.58 C 85.065 25.13 83.905 26.27 82.355 26.27 Z  M 90.325 20.08 L 87.595 20.08 L 87.595 27.08 L 88.595 27.08 L 88.595 24.96 L 90.325 24.96 C 92.145 24.96 93.245 24.04 93.245 22.52 C 93.245 21 92.145 20.08 90.325 20.08 Z  M 90.295 24.09 L 88.595 24.09 L 88.595 20.95 L 90.295 20.95 C 91.575 20.95 92.245 21.52 92.245 22.52 C 92.245 23.52 91.575 24.09 90.295 24.09 Z  M 29.485 20.08 L 26.755 20.08 L 26.755 27.08 L 27.755 27.08 L 27.755 24.96 L 29.485 24.96 C 31.305 24.96 32.405 24.04 32.405 22.52 C 32.405 21 31.305 20.08 29.485 20.08 Z  M 29.455 24.09 L 27.755 24.09 L 27.755 20.95 L 29.455 20.95 C 30.735 20.95 31.405 21.52 31.405 22.52 C 31.405 23.52 30.735 24.09 29.455 24.09 Z  M 39.205 27.08 L 40.255 27.08 L 37.075 20.08 L 36.085 20.08 L 32.915 27.08 L 33.945 27.08 L 34.715 25.33 L 38.435 25.33 L 39.205 27.08 Z  M 35.065 24.53 L 36.575 21.1 L 38.085 24.53 L 35.065 24.53 Z  M 41.295 27.08 L 46.085 27.08 L 46.085 26.21 L 42.295 26.21 L 42.295 20.08 L 41.295 20.08 L 41.295 27.08 Z  M 54.685 27.08 L 54.675 20.08 L 53.855 20.08 L 50.975 25 L 48.055 20.08 L 47.235 20.08 L 47.235 27.08 L 48.195 27.08 L 48.195 22.01 L 50.725 26.23 L 51.185 26.23 L 53.715 21.98 L 53.725 27.08 L 54.685 27.08 Z " fill-rule="evenodd" fill="rgb(0,0,0)"/><path d=" M 54 270.201 L 56.296 268.23 C 56.685 267.897 57 268.042 57 268.554 L 57 272.533 C 57 273.045 57.294 273.167 57.655 272.804 L 62.345 268.109 C 62.706 267.746 63 267.868 63 268.38 L 63 272.418 C 63 272.994 63.354 273.156 63.79 272.78 L 66 270.877" fill="none" vector-effect="non-scaling-stroke" stroke-width="1" stroke="rgb(226,226,226)" stroke-linejoin="miter" stroke-linecap="square" stroke-miterlimit="3"/><path d=" M 28.976 313.117 L 28.957 314.164 C 28.949 314.641 28.555 315.029 28.077 315.029 L 23.824 315.033 C 23.347 315.033 22.959 314.646 22.959 314.168 L 22.959 310.798 C 22.959 310.321 22.571 309.934 22.094 309.934 L 17.976 309.939 C 17.424 309.94 16.979 310.388 16.982 310.94 L 16.99 312.036" fill="none" vector-effect="non-scaling-stroke" stroke-width="1" stroke="rgb(226,226,226)" stroke-linejoin="miter" stroke-linecap="square" stroke-miterlimit="3"/><path d=" M 53.998 312.18 L 56.299 310.174 C 56.685 309.838 57.296 309.855 57.662 310.212 L 62.255 314.688 C 62.665 315.088 63.345 315.103 63.773 314.722 L 65.998 312.742" fill="none" vector-effect="non-scaling-stroke" stroke-width="1" stroke="rgb(226,226,226)" stroke-linejoin="miter" stroke-linecap="square" stroke-miterlimit="3"/><g><line x1="20.915" y1="146.445" x2="21.677" y2="145.158" vector-effect="non-scaling-stroke" stroke-width="0.8" stroke="rgb(32,32,32)" stroke-linejoin="miter" stroke-linecap="square" stroke-miterlimit="3"/><line x1="43.085" y1="146.445" x2="42.323" y2="145.158" vector-effect="non-scaling-stroke" stroke-width="0.8" stroke="rgb(32,32,32)" stroke-linejoin="miter" stroke-linecap="square" stroke-miterlimit="3"/><line x1="15.101" y1="141.297" x2="16.278" y2="140.375" vector-effect="non-scaling-stroke" stroke-width="0.8" stroke="rgb(32,32,32)" stroke-linejoin="miter" stroke-linecap="square" stroke-miterlimit="3"/><line x1="48.899" y1="141.297" x2="47.722" y2="140.375" vector-effect="non-scaling-stroke" stroke-width="0.8" stroke="rgb(32,32,32)" stroke-linejoin="miter" stroke-linecap="square" stroke-miterlimit="3"/><line x1="11.437" y1="134.331" x2="12.869" y2="133.901" vector-effect="non-scaling-stroke" stroke-width="0.8" stroke="rgb(32,32,32)" stroke-linejoin="miter" stroke-linecap="square" stroke-miterlimit="3"/><line x1="52.563" y1="134.331" x2="51.131" y2="133.901" vector-effect="non-scaling-stroke" stroke-width="0.8" stroke="rgb(32,32,32)" stroke-linejoin="miter" stroke-linecap="square" stroke-miterlimit="3"/><line x1="10.6" y1="126.175" x2="12.091" y2="126.295" vector-effect="non-scaling-stroke" stroke-width="0.8" stroke="rgb(32,32,32)" stroke-linejoin="miter" stroke-linecap="square" stroke-miterlimit="3"/><line x1="53.4" y1="126.175" x2="51.909" y2="126.295" vector-effect="non-scaling-stroke" stroke-width="0.8" stroke="rgb(32,32,32)" stroke-linejoin="miter" stroke-linecap="square" stroke-miterlimit="3"/><line x1="12.748" y1="118.452" x2="14.093" y2="119.106" vector-effect="non-scaling-stroke" stroke-width="0.8" stroke="rgb(32,32,32)" stroke-linejoin="miter" stroke-linecap="square" stroke-miterlimit="3"/><line x1="51.252" y1="118.452" x2="49.907" y2="119.106" vector-effect="non-scaling-stroke" stroke-width="0.8" stroke="rgb(32,32,32)" stroke-linejoin="miter" stroke-linecap="square" stroke-miterlimit="3"/><line x1="17.433" y1="112.176" x2="18.447" y2="113.275" vector-effect="non-scaling-stroke" stroke-width="0.8" stroke="rgb(32,32,32)" stroke-linejoin="miter" stroke-linecap="square" stroke-miterlimit="3"/><line x1="46.567" y1="112.176" x2="45.553" y2="113.275" vector-effect="non-scaling-stroke" stroke-width="0.8" stroke="rgb(32,32,32)" stroke-linejoin="miter" stroke-linecap="square" stroke-miterlimit="3"/><line x1="24.063" y1="108" x2="24.608" y2="109.393" vector-effect="non-scaling-stroke" stroke-width="0.8" stroke="rgb(32,32,32)" stroke-linejoin="miter" stroke-linecap="square" stroke-miterlimit="3"/><line x1="39.937" y1="108" x2="39.392" y2="109.393" vector-effect="non-scaling-stroke" stroke-width="0.8" stroke="rgb(32,32,32)" stroke-linejoin="miter" stroke-linecap="square" stroke-miterlimit="3"/><line x1="31.859" y1="107.995" x2="31.859" y2="106.5" vector-effect="non-scaling-stroke" stroke-width="0.8" stroke="rgb(32,32,32)" stroke-linejoin="miter" stroke-linecap="square" stroke-miterlimit="3"/></g><path d=" M 30.105 226.957 L 30.105 226.047 L 26.402 226.047 L 26.402 230.947 L 27.536 230.947 L 27.536 229.162 L 29.804 229.162 L 29.804 228.252 L 27.536 228.252 L 27.536 226.957 L 30.105 226.957 Z  M 36.398 230.947 L 36.384 226.047 L 35.453 226.047 L 33.647 229.092 L 31.813 226.047 L 30.875 226.047 L 30.875 230.947 L 31.939 230.947 L 31.939 228.07 L 33.374 230.429 L 33.885 230.429 L 35.327 228.007 L 35.334 230.947 L 36.398 230.947 Z  M 10.729 230.037 L 10.729 228.903 L 13.004 228.903 L 13.004 228.021 L 10.729 228.021 L 10.729 226.957 L 13.305 226.957 L 13.305 226.047 L 9.602 226.047 L 9.602 230.947 L 13.396 230.947 L 13.396 230.037 L 10.729 230.037 Z  M 18.695 230.947 L 16.868 228.413 L 18.576 226.047 L 17.351 226.047 L 16.245 227.636 L 15.118 226.047 L 13.83 226.047 L 15.552 228.455 L 13.739 230.947 L 15.041 230.947 L 16.203 229.246 L 17.386 230.947 L 18.695 230.947 Z  M 21.418 226.047 L 19.297 226.047 L 19.297 230.947 L 20.431 230.947 L 20.431 229.596 L 21.418 229.596 C 22.727 229.596 23.546 228.917 23.546 227.825 C 23.546 226.726 22.727 226.047 21.418 226.047 Z  M 21.355 228.672 L 20.431 228.672 L 20.431 226.971 L 21.355 226.971 C 22.048 226.971 22.398 227.286 22.398 227.825 C 22.398 228.357 22.048 228.672 21.355 228.672 Z " fill-rule="evenodd" fill="rgb(0,0,0)"/><path d=" M 102.786 226.957 L 102.786 226.047 L 99.082 226.047 L 99.082 230.947 L 100.217 230.947 L 100.217 229.162 L 102.484 229.162 L 102.484 228.252 L 100.217 228.252 L 100.217 226.957 L 102.786 226.957 Z  M 109.078 230.947 L 109.064 226.047 L 108.134 226.047 L 106.328 229.092 L 104.494 226.047 L 103.555 226.047 L 103.555 230.947 L 104.62 230.947 L 104.62 228.07 L 106.054 230.429 L 106.565 230.429 L 108.008 228.007 L 108.014 230.947 L 109.078 230.947 Z  M 84.922 230.947 L 88.512 230.947 L 88.512 230.023 L 86.055 230.023 L 86.055 226.047 L 84.922 226.047 L 84.922 230.947 Z  M 89.149 230.947 L 90.284 230.947 L 90.284 226.047 L 89.149 226.047 L 89.149 230.947 Z  M 94.819 226.047 L 94.819 229.022 L 92.384 226.047 L 91.445 226.047 L 91.445 230.947 L 92.565 230.947 L 92.565 227.972 L 95.009 230.947 L 95.939 230.947 L 95.939 226.047 L 94.819 226.047 Z " fill-rule="evenodd" fill="rgb(0,0,0)"/></g></svg>