<?xml version="1.0" standalone="no"?><!-- Generator: Gravit.io --><svg xmlns="http://www.w3.org/2000/svg" xmlns:xlink="http://www.w3.org/1999/xlink" style="isolation:isolate" viewBox="0 0 120 380" width="120" height="380"><defs><clipPath id="_clipPath_gsdq85nm2zoMGnPRNYyFAdzAXgcZTm6U"><rect width="120" height="380"/></clipPath></defs><g clip-path="url(#_clipPath_gsdq85nm2zoMGnPRNYyFAdzAXgcZTm6U)"><rect x="0" y="0" width="120" height="380" transform="matrix(1,0,0,1,0,0)" fill="rgb(226,226,226)"/><path d="M 11.535 305.9 L 108.465 305.9 C 111.52 305.9 114 308.38 114 311.435 L 114 344.365 C 114 347.42 111.52 349.9 108.465 349.9 L 11.535 349.9 C 8.48 349.9 6 347.42 6 344.365 L 6 311.435 C 6 308.38 8.48 305.9 11.535 305.9 Z" style="stroke:none;fill:#4D9A4D;stroke-miterlimit:10;"/><path d="M 50.405 263.9 L 105.596 263.9 C 110.234 263.9 114 267.666 114 272.304 L 114 314.846 C 114 319.484 110.234 323.25 105.596 323.25 L 50.405 323.25 C 45.766 323.25 42 319.484 42 314.846 L 42 272.304 C 42 267.666 45.766 263.9 50.405 263.9 Z" style="stroke:none;fill:#4D9A4D;stroke-miterlimit:10;"/><circle vector-effect="non-scaling-stroke" cx="0" cy="0" r="1" transform="matrix(24,0,0,24,60,64)" fill="rgb(0,0,0)"/><circle vector-effect="non-scaling-stroke" cx="0" cy="0" r="1" transform="matrix(16,0,0,16,32,128)" fill="rgb(0,0,0)"/><circle vector-effect="non-scaling-stroke" cx="0" cy="0" r="1" transform="matrix(16,0,0,16,32,184)" fill="rgb(0,0,0)"/><path d=" M 21.732 201.163 C 15.904 197.666 12 191.285 12 184 C 12 172.962 20.962 164 32 164 C 43.038 164 52 172.962 52 184 C 52 191.285 48.096 197.666 42.268 201.163" fill="none" vector-effect="non-scaling-stroke" stroke-width="0.8" stroke="rgb(32,32,32)" stroke-linejoin="miter" stroke-linecap="square" stroke-miterlimit="3"/><path d=" M 77.732 201.163 C 71.904 197.666 68 191.285 68 184 C 68 172.962 76.962 164 88 164 C 99.038 164 108 172.962 108 184 C 108 191.285 104.096 197.666 98.268 201.163" fill="none" vector-effect="non-scaling-stroke" stroke-width="0.8" stroke="rgb(32,32,32)" stroke-linejoin="miter" stroke-linecap="square" stroke-miterlimit="3"/><path d=" M 77.732 145.163 C 71.904 141.666 68 135.285 68 128 C 68 116.962 76.962 108 88 108 C 99.038 108 108 116.962 108 128 C 108 135.285 104.096 141.666 98.268 145.163" fill="none" vector-effect="non-scaling-stroke" stroke-width="0.8" stroke="rgb(32,32,32)" stroke-linejoin="miter" stroke-linecap="square" stroke-miterlimit="3"/><circle vector-effect="non-scaling-stroke" cx="0" cy="0" r="1" transform="matrix(13,0,0,13,23,247)" fill="rgb(0,0,0)"/><circle vector-effect="non-scaling-stroke" cx="0" cy="0" r="1" transform="matrix(13,0,0,13,23,289)" fill="rgb(0,0,0)"/><circle vector-effect="non-scaling-stroke" cx="0" cy="0" r="1" transform="matrix(13,0,0,13,23,331)" fill="rgb(0,0,0)"/><circle vector-effect="non-scaling-stroke" cx="0" cy="0" r="1" transform="matrix(13,0,0,13,60,247)" fill="rgb(0,0,0)"/><circle vector-effect="non-scaling-stroke" cx="0" cy="0" r="1" transform="matrix(13,0,0,13,60,289)" fill="rgb(0,0,0)"/><circle vector-effect="non-scaling-stroke" cx="0" cy="0" r="1" transform="matrix(13,0,0,13,60,331)" fill="rgb(0,0,0)"/><circle vector-effect="non-scaling-stroke" cx="0" cy="0" r="1" transform="matrix(13,0,0,13,97,247)" fill="rgb(0,0,0)"/><circle vector-effect="non-scaling-stroke" cx="0" cy="0" r="1" transform="matrix(13,0,0,13,96.875,289.125)" fill="rgb(0,0,0)"/><circle vector-effect="non-scaling-stroke" cx="0" cy="0" r="1" transform="matrix(13,0,0,13,97,331)" fill="rgb(0,0,0)"/><circle vector-effect="non-scaling-stroke" cx="0" cy="0" r="1" transform="matrix(16,0,0,16,88,128)" fill="rgb(0,0,0)"/><circle vector-effect="non-scaling-stroke" cx="0" cy="0" r="1" transform="matrix(16,0,0,16,88,184)" fill="rgb(0,0,0)"/><path d=" M 17.824 155.792 L 17.824 155.792 Q 16.968 155.792 16.276 155.42 L 16.276 155.42 L 16.276 155.42 Q 15.584 155.048 15.188 154.388 L 15.188 154.388 L 15.188 154.388 Q 14.792 153.728 14.792 152.896 L 14.792 152.896 L 14.792 152.896 Q 14.792 152.064 15.188 151.404 L 15.188 151.404 L 15.188 151.404 Q 15.584 150.744 16.276 150.372 L 16.276 150.372 L 16.276 150.372 Q 16.968 150 17.832 150 L 17.832 150 L 17.832 150 Q 18.56 150 19.148 150.256 L 19.148 150.256 L 19.148 150.256 Q 19.736 150.512 20.136 150.992 L 20.136 150.992 L 19.304 151.76 L 19.304 151.76 Q 18.736 151.104 17.896 151.104 L 17.896 151.104 L 17.896 151.104 Q 17.376 151.104 16.968 151.332 L 16.968 151.332 L 16.968 151.332 Q 16.56 151.56 16.332 151.968 L 16.332 151.968 L 16.332 151.968 Q 16.104 152.376 16.104 152.896 L 16.104 152.896 L 16.104 152.896 Q 16.104 153.416 16.332 153.824 L 16.332 153.824 L 16.332 153.824 Q 16.56 154.232 16.968 154.46 L 16.968 154.46 L 16.968 154.46 Q 17.376 154.688 17.896 154.688 L 17.896 154.688 L 17.896 154.688 Q 18.736 154.688 19.304 154.024 L 19.304 154.024 L 20.136 154.792 L 20.136 154.792 Q 19.736 155.28 19.144 155.536 L 19.144 155.536 L 19.144 155.536 Q 18.552 155.792 17.824 155.792 L 17.824 155.792 Z  M 23.72 155.792 L 23.72 155.792 Q 22.848 155.792 22.148 155.416 L 22.148 155.416 L 22.148 155.416 Q 21.448 155.04 21.052 154.38 L 21.052 154.38 L 21.052 154.38 Q 20.656 153.72 20.656 152.896 L 20.656 152.896 L 20.656 152.896 Q 20.656 152.072 21.052 151.412 L 21.052 151.412 L 21.052 151.412 Q 21.448 150.752 22.148 150.376 L 22.148 150.376 L 22.148 150.376 Q 22.848 150 23.72 150 L 23.72 150 L 23.72 150 Q 24.592 150 25.288 150.376 L 25.288 150.376 L 25.288 150.376 Q 25.984 150.752 26.384 151.412 L 26.384 151.412 L 26.384 151.412 Q 26.784 152.072 26.784 152.896 L 26.784 152.896 L 26.784 152.896 Q 26.784 153.72 26.384 154.38 L 26.384 154.38 L 26.384 154.38 Q 25.984 155.04 25.288 155.416 L 25.288 155.416 L 25.288 155.416 Q 24.592 155.792 23.72 155.792 L 23.72 155.792 Z  M 23.72 154.688 L 23.72 154.688 Q 24.216 154.688 24.616 154.46 L 24.616 154.46 L 24.616 154.46 Q 25.016 154.232 25.244 153.824 L 25.244 153.824 L 25.244 153.824 Q 25.472 153.416 25.472 152.896 L 25.472 152.896 L 25.472 152.896 Q 25.472 152.376 25.244 151.968 L 25.244 151.968 L 25.244 151.968 Q 25.016 151.56 24.616 151.332 L 24.616 151.332 L 24.616 151.332 Q 24.216 151.104 23.72 151.104 L 23.72 151.104 L 23.72 151.104 Q 23.224 151.104 22.824 151.332 L 22.824 151.332 L 22.824 151.332 Q 22.424 151.56 22.196 151.968 L 22.196 151.968 L 22.196 151.968 Q 21.968 152.376 21.968 152.896 L 21.968 152.896 L 21.968 152.896 Q 21.968 153.416 22.196 153.824 L 22.196 153.824 L 22.196 153.824 Q 22.424 154.232 22.824 154.46 L 22.824 154.46 L 22.824 154.46 Q 23.224 154.688 23.72 154.688 L 23.72 154.688 Z  M 31.944 155.696 L 31.448 154.496 L 28.848 154.496 L 28.352 155.696 L 27.024 155.696 L 29.52 150.096 L 30.8 150.096 L 33.304 155.696 L 31.944 155.696 Z  M 29.264 153.512 L 31.04 153.512 L 30.152 151.368 L 29.264 153.512 Z  M 38.848 155.696 L 37.456 155.696 L 36.376 154.136 L 36.312 154.136 L 35.184 154.136 L 35.184 155.696 L 33.888 155.696 L 33.888 150.096 L 36.312 150.096 L 36.312 150.096 Q 37.056 150.096 37.604 150.344 L 37.604 150.344 L 37.604 150.344 Q 38.152 150.592 38.448 151.048 L 38.448 151.048 L 38.448 151.048 Q 38.744 151.504 38.744 152.128 L 38.744 152.128 L 38.744 152.128 Q 38.744 152.752 38.444 153.204 L 38.444 153.204 L 38.444 153.204 Q 38.144 153.656 37.592 153.896 L 37.592 153.896 L 38.848 155.696 Z  M 37.432 152.128 L 37.432 152.128 Q 37.432 151.656 37.128 151.404 L 37.128 151.404 L 37.128 151.404 Q 36.824 151.152 36.24 151.152 L 36.24 151.152 L 35.184 151.152 L 35.184 153.104 L 36.24 153.104 L 36.24 153.104 Q 36.824 153.104 37.128 152.848 L 37.128 152.848 L 37.128 152.848 Q 37.432 152.592 37.432 152.128 L 37.432 152.128 Z  M 41.608 155.792 L 41.608 155.792 Q 40.944 155.792 40.324 155.612 L 40.324 155.612 L 40.324 155.612 Q 39.704 155.432 39.328 155.144 L 39.328 155.144 L 39.768 154.168 L 39.768 154.168 Q 40.128 154.432 40.624 154.592 L 40.624 154.592 L 40.624 154.592 Q 41.12 154.752 41.616 154.752 L 41.616 154.752 L 41.616 154.752 Q 42.168 154.752 42.432 154.588 L 42.432 154.588 L 42.432 154.588 Q 42.696 154.424 42.696 154.152 L 42.696 154.152 L 42.696 154.152 Q 42.696 153.952 42.54 153.82 L 42.54 153.82 L 42.54 153.82 Q 42.384 153.688 42.14 153.608 L 42.14 153.608 L 42.14 153.608 Q 41.896 153.528 41.48 153.432 L 41.48 153.432 L 41.48 153.432 Q 40.84 153.28 40.432 153.128 L 40.432 153.128 L 40.432 153.128 Q 40.024 152.976 39.732 152.64 L 39.732 152.64 L 39.732 152.64 Q 39.44 152.304 39.44 151.744 L 39.44 151.744 L 39.44 151.744 Q 39.44 151.256 39.704 150.86 L 39.704 150.86 L 39.704 150.86 Q 39.968 150.464 40.5 150.232 L 40.5 150.232 L 40.5 150.232 Q 41.032 150 41.8 150 L 41.8 150 L 41.8 150 Q 42.336 150 42.848 150.128 L 42.848 150.128 L 42.848 150.128 Q 43.36 150.256 43.744 150.496 L 43.744 150.496 L 43.344 151.48 L 43.344 151.48 Q 42.568 151.04 41.792 151.04 L 41.792 151.04 L 41.792 151.04 Q 41.248 151.04 40.988 151.216 L 40.988 151.216 L 40.988 151.216 Q 40.728 151.392 40.728 151.68 L 40.728 151.68 L 40.728 151.68 Q 40.728 151.968 41.028 152.108 L 41.028 152.108 L 41.028 152.108 Q 41.328 152.248 41.944 152.384 L 41.944 152.384 L 41.944 152.384 Q 42.584 152.536 42.992 152.688 L 42.992 152.688 L 42.992 152.688 Q 43.4 152.84 43.692 153.168 L 43.692 153.168 L 43.692 153.168 Q 43.984 153.496 43.984 154.056 L 43.984 154.056 L 43.984 154.056 Q 43.984 154.536 43.716 154.932 L 43.716 154.932 L 43.716 154.932 Q 43.448 155.328 42.912 155.56 L 42.912 155.56 L 42.912 155.56 Q 42.376 155.792 41.608 155.792 L 41.608 155.792 Z  M 46.16 154.656 L 49.208 154.656 L 49.208 155.696 L 44.872 155.696 L 44.872 150.096 L 49.104 150.096 L 49.104 151.136 L 46.16 151.136 L 46.16 152.352 L 48.76 152.352 L 48.76 153.36 L 46.16 153.36 L 46.16 154.656 Z " fill-rule="evenodd" fill="rgb(32,32,32)"/><path d=" M 82.964 151.04 L 80.028 151.04 L 80.028 152.52 L 82.62 152.52 L 82.62 153.56 L 80.028 153.56 L 80.028 155.6 L 78.732 155.6 L 78.732 150 L 82.964 150 L 82.964 151.04 Z  M 83.844 155.6 L 83.844 150 L 85.14 150 L 85.14 155.6 L 83.844 155.6 Z  M 90.324 150 L 91.604 150 L 91.604 155.6 L 90.54 155.6 L 87.748 152.2 L 87.748 155.6 L 86.468 155.6 L 86.468 150 L 87.54 150 L 90.324 153.4 L 90.324 150 Z  M 94.22 154.56 L 97.268 154.56 L 97.268 155.6 L 92.932 155.6 L 92.932 150 L 97.164 150 L 97.164 151.04 L 94.22 151.04 L 94.22 152.256 L 96.82 152.256 L 96.82 153.264 L 94.22 153.264 L 94.22 154.56 Z " fill-rule="evenodd" fill="rgb(32,32,32)"/><path d=" M 52.545 226.02 L 53.672 226.02 L 51.551 230.92 L 50.431 230.92 L 48.317 226.02 L 49.542 226.02 L 51.033 229.52 L 52.545 226.02 Z  M 53.371 231.62 L 55.681 225.026 L 56.654 225.026 L 54.344 231.62 L 53.371 231.62 Z  M 59.3 231.004 L 59.3 231.004 Q 58.537 231.004 57.925 230.675 L 57.925 230.675 L 57.925 230.675 Q 57.312 230.346 56.966 229.769 L 56.966 229.769 L 56.966 229.769 Q 56.619 229.191 56.619 228.47 L 56.619 228.47 L 56.619 228.47 Q 56.619 227.749 56.966 227.171 L 56.966 227.171 L 56.966 227.171 Q 57.312 226.594 57.925 226.265 L 57.925 226.265 L 57.925 226.265 Q 58.537 225.936 59.3 225.936 L 59.3 225.936 L 59.3 225.936 Q 60.063 225.936 60.672 226.265 L 60.672 226.265 L 60.672 226.265 Q 61.281 226.594 61.631 227.171 L 61.631 227.171 L 61.631 227.171 Q 61.981 227.749 61.981 228.47 L 61.981 228.47 L 61.981 228.47 Q 61.981 229.191 61.631 229.769 L 61.631 229.769 L 61.631 229.769 Q 61.281 230.346 60.672 230.675 L 60.672 230.675 L 60.672 230.675 Q 60.063 231.004 59.3 231.004 L 59.3 231.004 Z  M 59.3 230.038 L 59.3 230.038 Q 59.734 230.038 60.084 229.838 L 60.084 229.838 L 60.084 229.838 Q 60.434 229.639 60.633 229.282 L 60.633 229.282 L 60.633 229.282 Q 60.833 228.925 60.833 228.47 L 60.833 228.47 L 60.833 228.47 Q 60.833 228.015 60.633 227.658 L 60.633 227.658 L 60.633 227.658 Q 60.434 227.301 60.084 227.101 L 60.084 227.101 L 60.084 227.101 Q 59.734 226.902 59.3 226.902 L 59.3 226.902 L 59.3 226.902 Q 58.866 226.902 58.516 227.101 L 58.516 227.101 L 58.516 227.101 Q 58.166 227.301 57.967 227.658 L 57.967 227.658 L 57.967 227.658 Q 57.767 228.015 57.767 228.47 L 57.767 228.47 L 57.767 228.47 Q 57.767 228.925 57.967 229.282 L 57.967 229.282 L 57.967 229.282 Q 58.166 229.639 58.516 229.838 L 58.516 229.838 L 58.516 229.838 Q 58.866 230.038 59.3 230.038 L 59.3 230.038 Z  M 65.18 231.004 L 65.18 231.004 Q 64.431 231.004 63.825 230.678 L 63.825 230.678 L 63.825 230.678 Q 63.22 230.353 62.873 229.776 L 62.873 229.776 L 62.873 229.776 Q 62.527 229.198 62.527 228.47 L 62.527 228.47 L 62.527 228.47 Q 62.527 227.742 62.873 227.165 L 62.873 227.165 L 62.873 227.165 Q 63.22 226.587 63.825 226.261 L 63.825 226.261 L 63.825 226.261 Q 64.431 225.936 65.187 225.936 L 65.187 225.936 L 65.187 225.936 Q 65.824 225.936 66.338 226.16 L 66.338 226.16 L 66.338 226.16 Q 66.853 226.384 67.203 226.804 L 67.203 226.804 L 66.475 227.476 L 66.475 227.476 Q 65.978 226.902 65.243 226.902 L 65.243 226.902 L 65.243 226.902 Q 64.788 226.902 64.431 227.101 L 64.431 227.101 L 64.431 227.101 Q 64.074 227.301 63.874 227.658 L 63.874 227.658 L 63.874 227.658 Q 63.675 228.015 63.675 228.47 L 63.675 228.47 L 63.675 228.47 Q 63.675 228.925 63.874 229.282 L 63.874 229.282 L 63.874 229.282 Q 64.074 229.639 64.431 229.838 L 64.431 229.838 L 64.431 229.838 Q 64.788 230.038 65.243 230.038 L 65.243 230.038 L 65.243 230.038 Q 65.978 230.038 66.475 229.457 L 66.475 229.457 L 67.203 230.129 L 67.203 230.129 Q 66.853 230.556 66.335 230.78 L 66.335 230.78 L 66.335 230.78 Q 65.817 231.004 65.18 231.004 L 65.18 231.004 Z  M 68.981 230.92 L 68.981 226.944 L 67.413 226.944 L 67.413 226.02 L 71.683 226.02 L 71.683 226.944 L 70.115 226.944 L 70.115 230.92 L 68.981 230.92 Z " fill-rule="evenodd" fill="rgb(32,32,32)"/><path d=" M 17.155 229.863 L 19.822 229.863 L 19.822 230.773 L 16.028 230.773 L 16.028 225.873 L 19.731 225.873 L 19.731 226.783 L 17.155 226.783 L 17.155 227.847 L 19.43 227.847 L 19.43 228.729 L 17.155 228.729 L 17.155 229.863 Z  M 25.121 230.773 L 23.812 230.773 L 22.629 229.072 L 21.467 230.773 L 20.165 230.773 L 21.978 228.281 L 20.256 225.873 L 21.544 225.873 L 22.671 227.462 L 23.777 225.873 L 25.002 225.873 L 23.294 228.239 L 25.121 230.773 Z  M 27.844 225.873 L 27.844 225.873 Q 28.495 225.873 28.975 226.09 L 28.975 226.09 L 28.975 226.09 Q 29.454 226.307 29.713 226.706 L 29.713 226.706 L 29.713 226.706 Q 29.972 227.105 29.972 227.651 L 29.972 227.651 L 29.972 227.651 Q 29.972 228.19 29.713 228.592 L 29.713 228.592 L 29.713 228.592 Q 29.454 228.995 28.975 229.208 L 28.975 229.208 L 28.975 229.208 Q 28.495 229.422 27.844 229.422 L 27.844 229.422 L 26.857 229.422 L 26.857 230.773 L 25.723 230.773 L 25.723 225.873 L 27.844 225.873 Z  M 27.781 228.498 L 27.781 228.498 Q 28.292 228.498 28.558 228.277 L 28.558 228.277 L 28.558 228.277 Q 28.824 228.057 28.824 227.651 L 28.824 227.651 L 28.824 227.651 Q 28.824 227.238 28.558 227.018 L 28.558 227.018 L 28.558 227.018 Q 28.292 226.797 27.781 226.797 L 27.781 226.797 L 26.857 226.797 L 26.857 228.498 L 27.781 228.498 Z " fill-rule="evenodd" fill="rgb(32,32,32)"/><path d=" M 91.491 230.773 L 91.491 225.873 L 92.625 225.873 L 92.625 229.849 L 95.082 229.849 L 95.082 230.773 L 91.491 230.773 Z  M 95.719 230.773 L 95.719 225.873 L 96.853 225.873 L 96.853 230.773 L 95.719 230.773 Z  M 101.389 225.873 L 102.509 225.873 L 102.509 230.773 L 101.578 230.773 L 99.135 227.798 L 99.135 230.773 L 98.015 230.773 L 98.015 225.873 L 98.953 225.873 L 101.389 228.848 L 101.389 225.873 Z " fill-rule="evenodd" fill="rgb(32,32,32)"/><path d=" M 15.979 272.876 L 14.761 272.876 L 13.816 271.511 L 13.76 271.511 L 12.773 271.511 L 12.773 272.876 L 11.639 272.876 L 11.639 267.976 L 13.76 267.976 L 13.76 267.976 Q 14.411 267.976 14.891 268.193 L 14.891 268.193 L 14.891 268.193 Q 15.37 268.41 15.629 268.809 L 15.629 268.809 L 15.629 268.809 Q 15.888 269.208 15.888 269.754 L 15.888 269.754 L 15.888 269.754 Q 15.888 270.3 15.626 270.696 L 15.626 270.696 L 15.626 270.696 Q 15.363 271.091 14.88 271.301 L 14.88 271.301 L 15.979 272.876 Z  M 14.74 269.754 L 14.74 269.754 Q 14.74 269.341 14.474 269.121 L 14.474 269.121 L 14.474 269.121 Q 14.208 268.9 13.697 268.9 L 13.697 268.9 L 12.773 268.9 L 12.773 270.608 L 13.697 270.608 L 13.697 270.608 Q 14.208 270.608 14.474 270.384 L 14.474 270.384 L 14.474 270.384 Q 14.74 270.16 14.74 269.754 L 14.74 269.754 Z  M 17.911 271.966 L 20.578 271.966 L 20.578 272.876 L 16.784 272.876 L 16.784 267.976 L 20.487 267.976 L 20.487 268.886 L 17.911 268.886 L 17.911 269.95 L 20.186 269.95 L 20.186 270.832 L 17.911 270.832 L 17.911 271.966 Z  M 23.091 272.96 L 23.091 272.96 Q 22.51 272.96 21.967 272.803 L 21.967 272.803 L 21.967 272.803 Q 21.425 272.645 21.096 272.393 L 21.096 272.393 L 21.481 271.539 L 21.481 271.539 Q 21.796 271.77 22.23 271.91 L 22.23 271.91 L 22.23 271.91 Q 22.664 272.05 23.098 272.05 L 23.098 272.05 L 23.098 272.05 Q 23.581 272.05 23.812 271.907 L 23.812 271.907 L 23.812 271.907 Q 24.043 271.763 24.043 271.525 L 24.043 271.525 L 24.043 271.525 Q 24.043 271.35 23.907 271.234 L 23.907 271.234 L 23.907 271.234 Q 23.77 271.119 23.556 271.049 L 23.556 271.049 L 23.556 271.049 Q 23.343 270.979 22.979 270.895 L 22.979 270.895 L 22.979 270.895 Q 22.419 270.762 22.062 270.629 L 22.062 270.629 L 22.062 270.629 Q 21.705 270.496 21.449 270.202 L 21.449 270.202 L 21.449 270.202 Q 21.194 269.908 21.194 269.418 L 21.194 269.418 L 21.194 269.418 Q 21.194 268.991 21.425 268.644 L 21.425 268.644 L 21.425 268.644 Q 21.656 268.298 22.122 268.095 L 22.122 268.095 L 22.122 268.095 Q 22.587 267.892 23.259 267.892 L 23.259 267.892 L 23.259 267.892 Q 23.728 267.892 24.176 268.004 L 24.176 268.004 L 24.176 268.004 Q 24.624 268.116 24.96 268.326 L 24.96 268.326 L 24.61 269.187 L 24.61 269.187 Q 23.931 268.802 23.252 268.802 L 23.252 268.802 L 23.252 268.802 Q 22.776 268.802 22.549 268.956 L 22.549 268.956 L 22.549 268.956 Q 22.321 269.11 22.321 269.362 L 22.321 269.362 L 22.321 269.362 Q 22.321 269.614 22.584 269.736 L 22.584 269.736 L 22.584 269.736 Q 22.846 269.859 23.385 269.978 L 23.385 269.978 L 23.385 269.978 Q 23.945 270.111 24.302 270.244 L 24.302 270.244 L 24.302 270.244 Q 24.659 270.377 24.914 270.664 L 24.914 270.664 L 24.914 270.664 Q 25.17 270.951 25.17 271.441 L 25.17 271.441 L 25.17 271.441 Q 25.17 271.861 24.935 272.208 L 24.935 272.208 L 24.935 272.208 Q 24.701 272.554 24.232 272.757 L 24.232 272.757 L 24.232 272.757 Q 23.763 272.96 23.091 272.96 L 23.091 272.96 Z  M 27.074 271.966 L 29.741 271.966 L 29.741 272.876 L 25.947 272.876 L 25.947 267.976 L 29.65 267.976 L 29.65 268.886 L 27.074 268.886 L 27.074 269.95 L 29.349 269.95 L 29.349 270.832 L 27.074 270.832 L 27.074 271.966 Z  M 31.659 272.876 L 31.659 268.9 L 30.091 268.9 L 30.091 267.976 L 34.361 267.976 L 34.361 268.9 L 32.793 268.9 L 32.793 272.876 L 31.659 272.876 Z " fill-rule="evenodd" fill="rgb(32,32,32)"/><path d=" M 54.446 272.968 L 54.446 272.968 Q 53.864 272.968 53.322 272.811 L 53.322 272.811 L 53.322 272.811 Q 52.78 272.653 52.451 272.401 L 52.451 272.401 L 52.835 271.547 L 52.835 271.547 Q 53.15 271.778 53.585 271.918 L 53.585 271.918 L 53.585 271.918 Q 54.018 272.058 54.453 272.058 L 54.453 272.058 L 54.453 272.058 Q 54.935 272.058 55.167 271.915 L 55.167 271.915 L 55.167 271.915 Q 55.398 271.771 55.398 271.533 L 55.398 271.533 L 55.398 271.533 Q 55.398 271.358 55.261 271.242 L 55.261 271.242 L 55.261 271.242 Q 55.125 271.127 54.911 271.057 L 54.911 271.057 L 54.911 271.057 Q 54.697 270.987 54.334 270.903 L 54.334 270.903 L 54.334 270.903 Q 53.773 270.77 53.417 270.637 L 53.417 270.637 L 53.417 270.637 Q 53.059 270.504 52.804 270.21 L 52.804 270.21 L 52.804 270.21 Q 52.549 269.916 52.549 269.426 L 52.549 269.426 L 52.549 269.426 Q 52.549 268.999 52.78 268.652 L 52.78 268.652 L 52.78 268.652 Q 53.01 268.306 53.476 268.103 L 53.476 268.103 L 53.476 268.103 Q 53.941 267.9 54.613 267.9 L 54.613 267.9 L 54.613 267.9 Q 55.083 267.9 55.53 268.012 L 55.53 268.012 L 55.53 268.012 Q 55.979 268.124 56.314 268.334 L 56.314 268.334 L 55.965 269.195 L 55.965 269.195 Q 55.286 268.81 54.606 268.81 L 54.606 268.81 L 54.606 268.81 Q 54.131 268.81 53.903 268.964 L 53.903 268.964 L 53.903 268.964 Q 53.675 269.118 53.675 269.37 L 53.675 269.37 L 53.675 269.37 Q 53.675 269.622 53.938 269.744 L 53.938 269.744 L 53.938 269.744 Q 54.201 269.867 54.739 269.986 L 54.739 269.986 L 54.739 269.986 Q 55.3 270.119 55.656 270.252 L 55.656 270.252 L 55.656 270.252 Q 56.014 270.385 56.269 270.672 L 56.269 270.672 L 56.269 270.672 Q 56.524 270.959 56.524 271.449 L 56.524 271.449 L 56.524 271.449 Q 56.524 271.869 56.29 272.216 L 56.29 272.216 L 56.29 272.216 Q 56.056 272.562 55.586 272.765 L 55.586 272.765 L 55.586 272.765 Q 55.118 272.968 54.446 272.968 L 54.446 272.968 Z  M 62.097 272.807 L 62.6 273.409 L 62.6 273.409 Q 62.363 273.703 62.023 273.857 L 62.023 273.857 L 62.023 273.857 Q 61.683 274.011 61.278 274.011 L 61.278 274.011 L 61.278 274.011 Q 60.731 274.011 60.291 273.777 L 60.291 273.777 L 60.291 273.777 Q 59.849 273.542 59.282 272.947 L 59.282 272.947 L 59.282 272.947 Q 58.618 272.863 58.096 272.52 L 58.096 272.52 L 58.096 272.52 Q 57.574 272.177 57.284 271.635 L 57.284 271.635 L 57.284 271.635 Q 56.994 271.092 56.994 270.434 L 56.994 270.434 L 56.994 270.434 Q 56.994 269.713 57.34 269.135 L 57.34 269.135 L 57.34 269.135 Q 57.687 268.558 58.299 268.229 L 58.299 268.229 L 58.299 268.229 Q 58.912 267.9 59.675 267.9 L 59.675 267.9 L 59.675 267.9 Q 60.438 267.9 61.046 268.229 L 61.046 268.229 L 61.046 268.229 Q 61.655 268.558 62.006 269.135 L 62.006 269.135 L 62.006 269.135 Q 62.356 269.713 62.356 270.434 L 62.356 270.434 L 62.356 270.434 Q 62.356 271.288 61.876 271.932 L 61.876 271.932 L 61.876 271.932 Q 61.397 272.576 60.606 272.828 L 60.606 272.828 L 60.606 272.828 Q 60.78 273.01 60.945 273.091 L 60.945 273.091 L 60.945 273.091 Q 61.11 273.171 61.299 273.171 L 61.299 273.171 L 61.299 273.171 Q 61.753 273.171 62.097 272.807 L 62.097 272.807 Z  M 58.141 270.434 L 58.141 270.434 Q 58.141 270.889 58.341 271.246 L 58.341 271.246 L 58.341 271.246 Q 58.541 271.603 58.891 271.803 L 58.891 271.803 L 58.891 271.803 Q 59.24 272.002 59.675 272.002 L 59.675 272.002 L 59.675 272.002 Q 60.108 272.002 60.459 271.803 L 60.459 271.803 L 60.459 271.803 Q 60.808 271.603 61.008 271.246 L 61.008 271.246 L 61.008 271.246 Q 61.208 270.889 61.208 270.434 L 61.208 270.434 L 61.208 270.434 Q 61.208 269.979 61.008 269.622 L 61.008 269.622 L 61.008 269.622 Q 60.808 269.265 60.459 269.066 L 60.459 269.066 L 60.459 269.066 Q 60.108 268.866 59.675 268.866 L 59.675 268.866 L 59.675 268.866 Q 59.24 268.866 58.891 269.066 L 58.891 269.066 L 58.891 269.066 Q 58.541 269.265 58.341 269.622 L 58.341 269.622 L 58.341 269.622 Q 58.141 269.979 58.141 270.434 L 58.141 270.434 Z  M 67.55 272.884 L 66.331 272.884 L 65.386 271.519 L 65.33 271.519 L 64.343 271.519 L 64.343 272.884 L 63.21 272.884 L 63.21 267.984 L 65.33 267.984 L 65.33 267.984 Q 65.981 267.984 66.461 268.201 L 66.461 268.201 L 66.461 268.201 Q 66.94 268.418 67.199 268.817 L 67.199 268.817 L 67.199 268.817 Q 67.459 269.216 67.459 269.762 L 67.459 269.762 L 67.459 269.762 Q 67.459 270.308 67.196 270.704 L 67.196 270.704 L 67.196 270.704 Q 66.933 271.099 66.451 271.309 L 66.451 271.309 L 67.55 272.884 Z  M 66.31 269.762 L 66.31 269.762 Q 66.31 269.349 66.044 269.129 L 66.044 269.129 L 66.044 269.129 Q 65.779 268.908 65.267 268.908 L 65.267 268.908 L 64.343 268.908 L 64.343 270.616 L 65.267 270.616 L 65.267 270.616 Q 65.779 270.616 66.044 270.392 L 66.044 270.392 L 66.044 270.392 Q 66.31 270.168 66.31 269.762 L 66.31 269.762 Z " fill-rule="evenodd" fill="rgb(226,226,226)"/><path d=" M 92.864 272.8 L 92.864 268.824 L 91.296 268.824 L 91.296 267.9 L 95.566 267.9 L 95.566 268.824 L 93.998 268.824 L 93.998 272.8 L 92.864 272.8 Z  M 100.515 272.8 L 99.297 272.8 L 98.352 271.435 L 98.296 271.435 L 97.309 271.435 L 97.309 272.8 L 96.175 272.8 L 96.175 267.9 L 98.296 267.9 L 98.296 267.9 Q 98.947 267.9 99.426 268.117 L 99.426 268.117 L 99.426 268.117 Q 99.906 268.334 100.165 268.733 L 100.165 268.733 L 100.165 268.733 Q 100.424 269.132 100.424 269.678 L 100.424 269.678 L 100.424 269.678 Q 100.424 270.224 100.161 270.62 L 100.161 270.62 L 100.161 270.62 Q 99.899 271.015 99.416 271.225 L 99.416 271.225 L 100.515 272.8 Z  M 99.276 269.678 L 99.276 269.678 Q 99.276 269.265 99.01 269.045 L 99.01 269.045 L 99.01 269.045 Q 98.744 268.824 98.233 268.824 L 98.233 268.824 L 97.309 268.824 L 97.309 270.532 L 98.233 270.532 L 98.233 270.532 Q 98.744 270.532 99.01 270.308 L 99.01 270.308 L 99.01 270.308 Q 99.276 270.084 99.276 269.678 L 99.276 269.678 Z  M 101.32 272.8 L 101.32 267.9 L 102.454 267.9 L 102.454 272.8 L 101.32 272.8 Z " fill-rule="evenodd" fill="rgb(226,226,226)"/><path d=" M 16.185 314.963 L 16.185 314.963 Q 15.605 314.963 15.062 314.806 L 15.062 314.806 L 15.062 314.806 Q 14.519 314.648 14.191 314.396 L 14.191 314.396 L 14.576 313.542 L 14.576 313.542 Q 14.89 313.773 15.324 313.913 L 15.324 313.913 L 15.324 313.913 Q 15.758 314.053 16.192 314.053 L 16.192 314.053 L 16.192 314.053 Q 16.675 314.053 16.907 313.91 L 16.907 313.91 L 16.907 313.91 Q 17.137 313.766 17.137 313.528 L 17.137 313.528 L 17.137 313.528 Q 17.137 313.353 17.001 313.237 L 17.001 313.237 L 17.001 313.237 Q 16.865 313.122 16.651 313.052 L 16.651 313.052 L 16.651 313.052 Q 16.438 312.982 16.074 312.898 L 16.074 312.898 L 16.074 312.898 Q 15.513 312.765 15.156 312.632 L 15.156 312.632 L 15.156 312.632 Q 14.8 312.499 14.544 312.205 L 14.544 312.205 L 14.544 312.205 Q 14.288 311.911 14.288 311.421 L 14.288 311.421 L 14.288 311.421 Q 14.288 310.994 14.519 310.647 L 14.519 310.647 L 14.519 310.647 Q 14.75 310.301 15.216 310.098 L 15.216 310.098 L 15.216 310.098 Q 15.682 309.895 16.353 309.895 L 16.353 309.895 L 16.353 309.895 Q 16.822 309.895 17.27 310.007 L 17.27 310.007 L 17.27 310.007 Q 17.719 310.119 18.054 310.329 L 18.054 310.329 L 17.704 311.19 L 17.704 311.19 Q 17.026 310.805 16.346 310.805 L 16.346 310.805 L 16.346 310.805 Q 15.87 310.805 15.643 310.959 L 15.643 310.959 L 15.643 310.959 Q 15.415 311.113 15.415 311.365 L 15.415 311.365 L 15.415 311.365 Q 15.415 311.617 15.678 311.739 L 15.678 311.739 L 15.678 311.739 Q 15.94 311.862 16.48 311.981 L 16.48 311.981 L 16.48 311.981 Q 17.04 312.114 17.397 312.247 L 17.397 312.247 L 17.397 312.247 Q 17.754 312.38 18.009 312.667 L 18.009 312.667 L 18.009 312.667 Q 18.265 312.954 18.265 313.444 L 18.265 313.444 L 18.265 313.444 Q 18.265 313.864 18.03 314.211 L 18.03 314.211 L 18.03 314.211 Q 17.796 314.557 17.327 314.76 L 17.327 314.76 L 17.327 314.76 Q 16.858 314.963 16.185 314.963 L 16.185 314.963 Z  M 22.703 314.879 L 22.269 313.829 L 19.994 313.829 L 19.56 314.879 L 18.397 314.879 L 20.581 309.979 L 21.702 309.979 L 23.893 314.879 L 22.703 314.879 Z  M 20.358 312.968 L 21.911 312.968 L 21.134 311.092 L 20.358 312.968 Z  M 30.724 309.979 L 31.809 309.979 L 30.206 314.879 L 28.988 314.879 L 27.911 311.561 L 26.797 314.879 L 25.586 314.879 L 23.977 309.979 L 25.153 309.979 L 26.258 313.423 L 27.414 309.979 L 28.463 309.979 L 29.584 313.451 L 30.724 309.979 Z " fill-rule="evenodd" fill="rgb(226,226,226)"/><path d=" M 56.175 314.963 L 56.175 314.963 Q 55.593 314.963 55.051 314.806 L 55.051 314.806 L 55.051 314.806 Q 54.509 314.648 54.179 314.396 L 54.179 314.396 L 54.565 313.542 L 54.565 313.542 Q 54.879 313.773 55.314 313.913 L 55.314 313.913 L 55.314 313.913 Q 55.747 314.053 56.182 314.053 L 56.182 314.053 L 56.182 314.053 Q 56.664 314.053 56.896 313.91 L 56.896 313.91 L 56.896 313.91 Q 57.127 313.766 57.127 313.528 L 57.127 313.528 L 57.127 313.528 Q 57.127 313.353 56.99 313.237 L 56.99 313.237 L 56.99 313.237 Q 56.853 313.122 56.64 313.052 L 56.64 313.052 L 56.64 313.052 Q 56.426 312.982 56.063 312.898 L 56.063 312.898 L 56.063 312.898 Q 55.503 312.765 55.146 312.632 L 55.146 312.632 L 55.146 312.632 Q 54.788 312.499 54.533 312.205 L 54.533 312.205 L 54.533 312.205 Q 54.278 311.911 54.278 311.421 L 54.278 311.421 L 54.278 311.421 Q 54.278 310.994 54.509 310.647 L 54.509 310.647 L 54.509 310.647 Q 54.739 310.301 55.205 310.098 L 55.205 310.098 L 55.205 310.098 Q 55.67 309.895 56.343 309.895 L 56.343 309.895 L 56.343 309.895 Q 56.811 309.895 57.26 310.007 L 57.26 310.007 L 57.26 310.007 Q 57.707 310.119 58.044 310.329 L 58.044 310.329 L 57.693 311.19 L 57.693 311.19 Q 57.015 310.805 56.336 310.805 L 56.336 310.805 L 56.336 310.805 Q 55.859 310.805 55.632 310.959 L 55.632 310.959 L 55.632 310.959 Q 55.405 311.113 55.405 311.365 L 55.405 311.365 L 55.405 311.365 Q 55.405 311.617 55.667 311.739 L 55.667 311.739 L 55.667 311.739 Q 55.929 311.862 56.468 311.981 L 56.468 311.981 L 56.468 311.981 Q 57.029 312.114 57.385 312.247 L 57.385 312.247 L 57.385 312.247 Q 57.743 312.38 57.998 312.667 L 57.998 312.667 L 57.998 312.667 Q 58.253 312.954 58.253 313.444 L 58.253 313.444 L 58.253 313.444 Q 58.253 313.864 58.019 314.211 L 58.019 314.211 L 58.019 314.211 Q 57.785 314.557 57.315 314.76 L 57.315 314.76 L 57.315 314.76 Q 56.846 314.963 56.175 314.963 L 56.175 314.963 Z  M 59.031 314.879 L 59.031 309.979 L 60.164 309.979 L 60.164 314.879 L 59.031 314.879 Z  M 64.7 309.979 L 65.821 309.979 L 65.821 314.879 L 64.89 314.879 L 62.447 311.904 L 62.447 314.879 L 61.327 314.879 L 61.327 309.979 L 62.265 309.979 L 64.7 312.954 L 64.7 309.979 Z " fill-rule="evenodd" fill="rgb(226,226,226)"/><path d=" M 91.565 314.963 L 91.565 314.963 Q 90.983 314.963 90.441 314.806 L 90.441 314.806 L 90.441 314.806 Q 89.898 314.648 89.569 314.396 L 89.569 314.396 L 89.954 313.542 L 89.954 313.542 Q 90.27 313.773 90.704 313.913 L 90.704 313.913 L 90.704 313.913 Q 91.137 314.053 91.571 314.053 L 91.571 314.053 L 91.571 314.053 Q 92.054 314.053 92.286 313.91 L 92.286 313.91 L 92.286 313.91 Q 92.517 313.766 92.517 313.528 L 92.517 313.528 L 92.517 313.528 Q 92.517 313.353 92.38 313.237 L 92.38 313.237 L 92.38 313.237 Q 92.244 313.122 92.03 313.052 L 92.03 313.052 L 92.03 313.052 Q 91.816 312.982 91.453 312.898 L 91.453 312.898 L 91.453 312.898 Q 90.893 312.765 90.536 312.632 L 90.536 312.632 L 90.536 312.632 Q 90.178 312.499 89.923 312.205 L 89.923 312.205 L 89.923 312.205 Q 89.667 311.911 89.667 311.421 L 89.667 311.421 L 89.667 311.421 Q 89.667 310.994 89.898 310.647 L 89.898 310.647 L 89.898 310.647 Q 90.13 310.301 90.595 310.098 L 90.595 310.098 L 90.595 310.098 Q 91.061 309.895 91.732 309.895 L 91.732 309.895 L 91.732 309.895 Q 92.202 309.895 92.649 310.007 L 92.649 310.007 L 92.649 310.007 Q 93.097 310.119 93.434 310.329 L 93.434 310.329 L 93.083 311.19 L 93.083 311.19 Q 92.404 310.805 91.726 310.805 L 91.726 310.805 L 91.726 310.805 Q 91.249 310.805 91.022 310.959 L 91.022 310.959 L 91.022 310.959 Q 90.795 311.113 90.795 311.365 L 90.795 311.365 L 90.795 311.365 Q 90.795 311.617 91.057 311.739 L 91.057 311.739 L 91.057 311.739 Q 91.319 311.862 91.858 311.981 L 91.858 311.981 L 91.858 311.981 Q 92.418 312.114 92.775 312.247 L 92.775 312.247 L 92.775 312.247 Q 93.133 312.38 93.388 312.667 L 93.388 312.667 L 93.388 312.667 Q 93.644 312.954 93.644 313.444 L 93.644 313.444 L 93.644 313.444 Q 93.644 313.864 93.409 314.211 L 93.409 314.211 L 93.409 314.211 Q 93.175 314.557 92.705 314.76 L 92.705 314.76 L 92.705 314.76 Q 92.236 314.963 91.565 314.963 L 91.565 314.963 Z  M 96.597 314.963 L 96.597 314.963 Q 95.548 314.963 94.963 314.382 L 94.963 314.382 L 94.963 314.382 Q 94.379 313.801 94.379 312.723 L 94.379 312.723 L 94.379 309.979 L 95.512 309.979 L 95.512 312.681 L 95.512 312.681 Q 95.512 313.997 96.605 313.997 L 96.605 313.997 L 96.605 313.997 Q 97.136 313.997 97.416 313.678 L 97.416 313.678 L 97.416 313.678 Q 97.696 313.36 97.696 312.681 L 97.696 312.681 L 97.696 309.979 L 98.816 309.979 L 98.816 312.723 L 98.816 312.723 Q 98.816 313.801 98.232 314.382 L 98.232 314.382 L 98.232 314.382 Q 97.648 314.963 96.597 314.963 L 96.597 314.963 Z  M 103.535 312.331 L 103.535 312.331 Q 103.954 312.464 104.192 312.776 L 104.192 312.776 L 104.192 312.776 Q 104.43 313.087 104.43 313.542 L 104.43 313.542 L 104.43 313.542 Q 104.43 314.186 103.93 314.532 L 103.93 314.532 L 103.93 314.532 Q 103.429 314.879 102.47 314.879 L 102.47 314.879 L 99.937 314.879 L 99.937 309.979 L 102.33 309.979 L 102.33 309.979 Q 103.227 309.979 103.706 310.322 L 103.706 310.322 L 103.706 310.322 Q 104.186 310.665 104.186 311.253 L 104.186 311.253 L 104.186 311.253 Q 104.186 311.61 104.014 311.89 L 104.014 311.89 L 104.014 311.89 Q 103.843 312.17 103.535 312.331 L 103.535 312.331 Z  M 102.19 310.833 L 101.064 310.833 L 101.064 311.988 L 102.19 311.988 L 102.19 311.988 Q 102.61 311.988 102.828 311.841 L 102.828 311.841 L 102.828 311.841 Q 103.045 311.694 103.045 311.407 L 103.045 311.407 L 103.045 311.407 Q 103.045 311.12 102.828 310.976 L 102.828 310.976 L 102.828 310.976 Q 102.61 310.833 102.19 310.833 L 102.19 310.833 Z  M 102.386 314.025 L 102.386 314.025 Q 102.834 314.025 103.062 313.878 L 103.062 313.878 L 103.062 313.878 Q 103.289 313.731 103.289 313.423 L 103.289 313.423 L 103.289 313.423 Q 103.289 312.814 102.386 312.814 L 102.386 312.814 L 101.064 312.814 L 101.064 314.025 L 102.386 314.025 Z " fill-rule="evenodd" fill="rgb(226,226,226)"/><path d=" M 22.979 222.7 L 23.075 216.9 C 23.084 216.348 23.403 215.579 23.788 215.183 L 31.247 207.517 C 31.632 207.121 31.948 206.352 31.952 205.8 L 32 200" fill="none" vector-effect="non-scaling-stroke" stroke-width="0.8" stroke-dasharray="0,0,0,0" stroke="rgb(32,32,32)" stroke-linejoin="miter" stroke-linecap="square" stroke-miterlimit="3"/><path d=" M 96.875 222.7 L 96.779 216.9 C 96.77 216.348 96.451 215.579 96.066 215.183 L 88.607 207.517 C 88.222 207.121 87.906 206.352 87.902 205.8 L 87.854 200" fill="none" vector-effect="non-scaling-stroke" stroke-width="0.8" stroke-dasharray="0,0,0,0" stroke="rgb(32,32,32)" stroke-linejoin="miter" stroke-linecap="square" stroke-miterlimit="3"/><line x1="20.715" y1="146.45" x2="21.477" y2="145.163" vector-effect="non-scaling-stroke" stroke-width="0.8" stroke="rgb(32,32,32)" stroke-linejoin="miter" stroke-linecap="square" stroke-miterlimit="3"/><line x1="42.861" y1="146.445" x2="42.1" y2="145.158" vector-effect="non-scaling-stroke" stroke-width="0.8" stroke="rgb(32,32,32)" stroke-linejoin="miter" stroke-linecap="square" stroke-miterlimit="3"/><line x1="14.1" y1="140.238" x2="15.332" y2="139.391" vector-effect="non-scaling-stroke" stroke-width="0.8" stroke="rgb(32,32,32)" stroke-linejoin="miter" stroke-linecap="square" stroke-miterlimit="3"/><line x1="49.432" y1="140.233" x2="48.2" y2="139.386" vector-effect="non-scaling-stroke" stroke-width="0.8" stroke="rgb(32,32,32)" stroke-linejoin="miter" stroke-linecap="square" stroke-miterlimit="3"/><line x1="10.6" y1="131.649" x2="12.074" y2="131.4" vector-effect="non-scaling-stroke" stroke-width="0.8" stroke="rgb(32,32,32)" stroke-linejoin="miter" stroke-linecap="square" stroke-miterlimit="3"/><line x1="52.974" y1="131.749" x2="51.5" y2="131.5" vector-effect="non-scaling-stroke" stroke-width="0.8" stroke="rgb(32,32,32)" stroke-linejoin="miter" stroke-linecap="square" stroke-miterlimit="3"/><line x1="11.1" y1="122.2" x2="12.542" y2="122.595" vector-effect="non-scaling-stroke" stroke-width="0.8" stroke="rgb(32,32,32)" stroke-linejoin="miter" stroke-linecap="square" stroke-miterlimit="3"/><line x1="52.542" y1="122.195" x2="51.1" y2="122.59" vector-effect="non-scaling-stroke" stroke-width="0.8" stroke="rgb(32,32,32)" stroke-linejoin="miter" stroke-linecap="square" stroke-miterlimit="3"/><line x1="15.4" y1="114.1" x2="16.542" y2="115.065" vector-effect="non-scaling-stroke" stroke-width="0.8" stroke="rgb(32,32,32)" stroke-linejoin="miter" stroke-linecap="square" stroke-miterlimit="3"/><line x1="48.242" y1="114.095" x2="47.1" y2="115.061" vector-effect="non-scaling-stroke" stroke-width="0.8" stroke="rgb(32,32,32)" stroke-linejoin="miter" stroke-linecap="square" stroke-miterlimit="3"/><line x1="22.641" y1="108.5" x2="23.27" y2="109.856" vector-effect="non-scaling-stroke" stroke-width="0.8" stroke="rgb(32,32,32)" stroke-linejoin="miter" stroke-linecap="square" stroke-miterlimit="3"/><line x1="41.03" y1="108.5" x2="40.4" y2="109.856" vector-effect="non-scaling-stroke" stroke-width="0.8" stroke="rgb(32,32,32)" stroke-linejoin="miter" stroke-linecap="square" stroke-miterlimit="3"/><line x1="31.659" y1="108" x2="31.659" y2="106.505" vector-effect="non-scaling-stroke" stroke-width="0.8" stroke="rgb(32,32,32)" stroke-linejoin="miter" stroke-linecap="square" stroke-miterlimit="3"/><line x1="44.561" y1="89.7" x2="43.8" y2="90.987" vector-effect="non-scaling-stroke" stroke-width="0.8" stroke="rgb(32,32,32)" stroke-linejoin="miter" stroke-linecap="square" stroke-miterlimit="3"/><line x1="75.435" y1="89.7" x2="76.196" y2="90.987" vector-effect="non-scaling-stroke" stroke-width="0.8" stroke="rgb(32,32,32)" stroke-linejoin="miter" stroke-linecap="square" stroke-miterlimit="3"/><line x1="30.8" y1="75.961" x2="32.186" y2="75.4" vector-effect="non-scaling-stroke" stroke-width="0.8" stroke="rgb(32,32,32)" stroke-linejoin="miter" stroke-linecap="square" stroke-miterlimit="3"/><line x1="89.196" y1="75.961" x2="87.81" y2="75.4" vector-effect="non-scaling-stroke" stroke-width="0.8" stroke="rgb(32,32,32)" stroke-linejoin="miter" stroke-linecap="square" stroke-miterlimit="3"/><line x1="29.672" y1="55.4" x2="31.115" y2="55.795" vector-effect="non-scaling-stroke" stroke-width="0.8" stroke="rgb(32,32,32)" stroke-linejoin="miter" stroke-linecap="square" stroke-miterlimit="3"/><line x1="90.324" y1="55.4" x2="88.882" y2="55.795" vector-effect="non-scaling-stroke" stroke-width="0.8" stroke="rgb(32,32,32)" stroke-linejoin="miter" stroke-linecap="square" stroke-miterlimit="3"/><line x1="60" y1="32.505" x2="60" y2="34" vector-effect="non-scaling-stroke" stroke-width="0.8" stroke="rgb(32,32,32)" stroke-linejoin="miter" stroke-linecap="square" stroke-miterlimit="3"/><line x1="40.826" y1="39.006" x2="41.734" y2="40.195" vector-effect="non-scaling-stroke" stroke-width="0.8" stroke="rgb(32,32,32)" stroke-linejoin="miter" stroke-linecap="square" stroke-miterlimit="3"/><line x1="79.17" y1="39.006" x2="78.263" y2="40.195" vector-effect="non-scaling-stroke" stroke-width="0.8" stroke="rgb(32,32,32)" stroke-linejoin="miter" stroke-linecap="square" stroke-miterlimit="3"/><path d=" M 45.892 101.792 L 45.892 101.792 Q 45.02 101.792 44.32 101.416 L 44.32 101.416 L 44.32 101.416 Q 43.62 101.04 43.224 100.38 L 43.224 100.38 L 43.224 100.38 Q 42.828 99.72 42.828 98.896 L 42.828 98.896 L 42.828 98.896 Q 42.828 98.072 43.224 97.412 L 43.224 97.412 L 43.224 97.412 Q 43.62 96.752 44.32 96.376 L 44.32 96.376 L 44.32 96.376 Q 45.02 96 45.892 96 L 45.892 96 L 45.892 96 Q 46.764 96 47.46 96.376 L 47.46 96.376 L 47.46 96.376 Q 48.156 96.752 48.556 97.412 L 48.556 97.412 L 48.556 97.412 Q 48.956 98.072 48.956 98.896 L 48.956 98.896 L 48.956 98.896 Q 48.956 99.72 48.556 100.38 L 48.556 100.38 L 48.556 100.38 Q 48.156 101.04 47.46 101.416 L 47.46 101.416 L 47.46 101.416 Q 46.764 101.792 45.892 101.792 L 45.892 101.792 Z  M 45.892 100.688 L 45.892 100.688 Q 46.388 100.688 46.788 100.46 L 46.788 100.46 L 46.788 100.46 Q 47.188 100.232 47.416 99.824 L 47.416 99.824 L 47.416 99.824 Q 47.644 99.416 47.644 98.896 L 47.644 98.896 L 47.644 98.896 Q 47.644 98.376 47.416 97.968 L 47.416 97.968 L 47.416 97.968 Q 47.188 97.56 46.788 97.332 L 46.788 97.332 L 46.788 97.332 Q 46.388 97.104 45.892 97.104 L 45.892 97.104 L 45.892 97.104 Q 45.396 97.104 44.996 97.332 L 44.996 97.332 L 44.996 97.332 Q 44.596 97.56 44.368 97.968 L 44.368 97.968 L 44.368 97.968 Q 44.14 98.376 44.14 98.896 L 44.14 98.896 L 44.14 98.896 Q 44.14 99.416 44.368 99.824 L 44.368 99.824 L 44.368 99.824 Q 44.596 100.232 44.996 100.46 L 44.996 100.46 L 44.996 100.46 Q 45.396 100.688 45.892 100.688 L 45.892 100.688 Z  M 52.612 101.792 L 52.612 101.792 Q 51.756 101.792 51.064 101.42 L 51.064 101.42 L 51.064 101.42 Q 50.372 101.048 49.976 100.388 L 49.976 100.388 L 49.976 100.388 Q 49.58 99.728 49.58 98.896 L 49.58 98.896 L 49.58 98.896 Q 49.58 98.064 49.976 97.404 L 49.976 97.404 L 49.976 97.404 Q 50.372 96.744 51.064 96.372 L 51.064 96.372 L 51.064 96.372 Q 51.756 96 52.62 96 L 52.62 96 L 52.62 96 Q 53.348 96 53.936 96.256 L 53.936 96.256 L 53.936 96.256 Q 54.524 96.512 54.924 96.992 L 54.924 96.992 L 54.092 97.76 L 54.092 97.76 Q 53.524 97.104 52.684 97.104 L 52.684 97.104 L 52.684 97.104 Q 52.164 97.104 51.756 97.332 L 51.756 97.332 L 51.756 97.332 Q 51.348 97.56 51.12 97.968 L 51.12 97.968 L 51.12 97.968 Q 50.892 98.376 50.892 98.896 L 50.892 98.896 L 50.892 98.896 Q 50.892 99.416 51.12 99.824 L 51.12 99.824 L 51.12 99.824 Q 51.348 100.232 51.756 100.46 L 51.756 100.46 L 51.756 100.46 Q 52.164 100.688 52.684 100.688 L 52.684 100.688 L 52.684 100.688 Q 53.524 100.688 54.092 100.024 L 54.092 100.024 L 54.924 100.792 L 54.924 100.792 Q 54.524 101.28 53.932 101.536 L 53.932 101.536 L 53.932 101.536 Q 53.34 101.792 52.612 101.792 L 52.612 101.792 Z  M 56.956 101.696 L 56.956 97.152 L 55.164 97.152 L 55.164 96.096 L 60.044 96.096 L 60.044 97.152 L 58.252 97.152 L 58.252 101.696 L 56.956 101.696 Z  M 64.924 101.696 L 64.428 100.496 L 61.828 100.496 L 61.332 101.696 L 60.004 101.696 L 62.5 96.096 L 63.78 96.096 L 66.284 101.696 L 64.924 101.696 Z  M 62.244 99.512 L 64.02 99.512 L 63.132 97.368 L 62.244 99.512 Z  M 70.964 96.096 L 72.252 96.096 L 69.828 101.696 L 68.548 101.696 L 66.132 96.096 L 67.532 96.096 L 69.236 100.096 L 70.964 96.096 Z  M 74.124 100.656 L 77.172 100.656 L 77.172 101.696 L 72.836 101.696 L 72.836 96.096 L 77.068 96.096 L 77.068 97.136 L 74.124 97.136 L 74.124 98.352 L 76.724 98.352 L 76.724 99.36 L 74.124 99.36 L 74.124 100.656 Z " fill-rule="evenodd" fill="rgb(32,32,32)"/><path d=" M 50.224 366.88 L 51.512 365.664 C 52.296 364.936 52.448 364.44 52.448 363.896 C 52.448 362.88 51.616 362.24 50.368 362.24 C 49.36 362.24 48.576 362.648 48.144 363.28 L 49.088 363.888 C 49.36 363.512 49.768 363.328 50.248 363.328 C 50.84 363.328 51.144 363.584 51.144 364.024 C 51.144 364.296 51.056 364.584 50.56 365.056 L 48.4 367.096 L 48.4 367.936 L 52.632 367.936 L 52.632 366.88 L 50.224 366.88 Z  M 52.912 362.336 L 52.912 363.376 L 54.032 363.376 L 54.032 367.936 L 55.328 367.936 L 55.328 362.336 L 52.912 362.336 Z  M 59.776 367.936 L 61.288 367.936 L 59.336 365.456 L 61.128 363.632 L 59.64 363.632 L 57.816 365.36 L 57.816 362 L 56.568 362 L 56.568 367.936 L 57.816 367.936 L 57.816 366.84 L 58.416 366.248 L 59.776 367.936 Z  M 65.776 362.336 L 65.776 364.544 L 63.232 364.544 L 63.232 362.336 L 61.936 362.336 L 61.936 367.936 L 63.232 367.936 L 63.232 365.64 L 65.776 365.64 L 65.776 367.936 L 67.072 367.936 L 67.072 362.336 L 65.776 362.336 Z  M 69.592 366.976 L 71.784 364.384 L 71.784 363.632 L 68.072 363.632 L 68.072 364.592 L 70.208 364.592 L 68.016 367.184 L 68.016 367.936 L 71.856 367.936 L 71.856 366.976 L 69.592 366.976 Z " fill-rule="evenodd" fill="rgb(32,32,32)"/><path d=" M 64.855 27.08 L 69.645 27.08 L 69.645 26.21 L 65.855 26.21 L 65.855 20.08 L 64.855 20.08 L 64.855 27.08 Z  M 73.955 27.16 C 76.085 27.16 77.665 25.64 77.665 23.58 C 77.665 21.52 76.085 20 73.955 20 C 71.805 20 70.225 21.53 70.225 23.58 C 70.225 25.63 71.805 27.16 73.955 27.16 Z  M 73.955 26.27 C 72.385 26.27 71.225 25.13 71.225 23.58 C 71.225 22.03 72.385 20.89 73.955 20.89 C 75.505 20.89 76.665 22.03 76.665 23.58 C 76.665 25.13 75.505 26.27 73.955 26.27 Z  M 82.355 27.16 C 84.485 27.16 86.065 25.64 86.065 23.58 C 86.065 21.52 84.485 20 82.355 20 C 80.205 20 78.625 21.53 78.625 23.58 C 78.625 25.63 80.205 27.16 82.355 27.16 Z  M 82.355 26.27 C 80.785 26.27 79.625 25.13 79.625 23.58 C 79.625 22.03 80.785 20.89 82.355 20.89 C 83.905 20.89 85.065 22.03 85.065 23.58 C 85.065 25.13 83.905 26.27 82.355 26.27 Z  M 90.325 20.08 L 87.595 20.08 L 87.595 27.08 L 88.595 27.08 L 88.595 24.96 L 90.325 24.96 C 92.145 24.96 93.245 24.04 93.245 22.52 C 93.245 21 92.145 20.08 90.325 20.08 Z  M 90.295 24.09 L 88.595 24.09 L 88.595 20.95 L 90.295 20.95 C 91.575 20.95 92.245 21.52 92.245 22.52 C 92.245 23.52 91.575 24.09 90.295 24.09 Z  M 29.485 20.08 L 26.755 20.08 L 26.755 27.08 L 27.755 27.08 L 27.755 24.96 L 29.485 24.96 C 31.305 24.96 32.405 24.04 32.405 22.52 C 32.405 21 31.305 20.08 29.485 20.08 Z  M 29.455 24.09 L 27.755 24.09 L 27.755 20.95 L 29.455 20.95 C 30.735 20.95 31.405 21.52 31.405 22.52 C 31.405 23.52 30.735 24.09 29.455 24.09 Z  M 39.205 27.08 L 40.255 27.08 L 37.075 20.08 L 36.085 20.08 L 32.915 27.08 L 33.945 27.08 L 34.715 25.33 L 38.435 25.33 L 39.205 27.08 Z  M 35.065 24.53 L 36.575 21.1 L 38.085 24.53 L 35.065 24.53 Z  M 41.295 27.08 L 46.085 27.08 L 46.085 26.21 L 42.295 26.21 L 42.295 20.08 L 41.295 20.08 L 41.295 27.08 Z  M 54.685 27.08 L 54.675 20.08 L 53.855 20.08 L 50.975 25 L 48.055 20.08 L 47.235 20.08 L 47.235 27.08 L 48.195 27.08 L 48.195 22.01 L 50.725 26.23 L 51.185 26.23 L 53.715 21.98 L 53.725 27.08 L 54.685 27.08 Z " fill-rule="evenodd" fill="rgb(0,0,0)"/></g></svg>