<?xml version="1.0" standalone="no"?><!-- Generator: Gravit.io --><svg xmlns="http://www.w3.org/2000/svg" xmlns:xlink="http://www.w3.org/1999/xlink" style="isolation:isolate" viewBox="0 0 120 380" width="120" height="380"><defs><clipPath id="_clipPath_JQ91CHgRmQR1zehKqP3B4gVlKPWB54Vt"><rect width="120" height="380"/></clipPath></defs><g clip-path="url(#_clipPath_JQ91CHgRmQR1zehKqP3B4gVlKPWB54Vt)"><rect x="0" y="0" width="120" height="380" transform="matrix(1,0,0,1,0,0)" fill="rgb(226,226,226)"/><path d="M 12 306 L 108 306 C 111.311 306 114 308.689 114 312 L 114 344 C 114 347.311 111.311 350 108 350 L 12 350 C 8.689 350 6 347.311 6 344 L 6 312 C 6 308.689 8.689 306 12 306 Z" style="stroke:none;fill:#4D9A4D;stroke-miterlimit:10;"/><path d="M 48 263.974 L 108 263.974 C 111.311 263.974 114 266.663 114 269.974 L 114 317.324 C 114 320.636 111.311 323.324 108 323.324 L 48 323.324 C 44.689 323.324 42 320.636 42 317.324 L 42 269.974 C 42 266.663 44.689 263.974 48 263.974 Z" style="stroke:none;fill:#4D9A4D;stroke-miterlimit:10;"/><circle vector-effect="non-scaling-stroke" cx="0" cy="0" r="1" transform="matrix(24,0,0,24,60,64)" fill="rgb(0,0,0)"/><circle vector-effect="non-scaling-stroke" cx="0" cy="0" r="1" transform="matrix(16,0,0,16,32,128)" fill="rgb(0,0,0)"/><circle vector-effect="non-scaling-stroke" cx="0" cy="0" r="1" transform="matrix(16,0,0,16,32,184)" fill="rgb(0,0,0)"/><path d=" M 21.732 201.163 C 15.904 197.666 12 191.285 12 184 C 12 172.962 20.962 164 32 164 C 43.038 164 52 172.962 52 184 C 52 191.285 48.096 197.666 42.268 201.163" fill="none" vector-effect="non-scaling-stroke" stroke-width="0.8" stroke="rgb(32,32,32)" stroke-linejoin="miter" stroke-linecap="square" stroke-miterlimit="3"/><path d=" M 77.732 201.163 C 71.904 197.666 68 191.285 68 184 C 68 172.962 76.962 164 88 164 C 99.038 164 108 172.962 108 184 C 108 191.285 104.096 197.666 98.268 201.163" fill="none" vector-effect="non-scaling-stroke" stroke-width="0.8" stroke="rgb(32,32,32)" stroke-linejoin="miter" stroke-linecap="square" stroke-miterlimit="3"/><path d=" M 77.732 145.163 C 71.904 141.666 68 135.285 68 128 C 68 116.962 76.962 108 88 108 C 99.038 108 108 116.962 108 128 C 108 135.285 104.096 141.666 98.268 145.163" fill="none" vector-effect="non-scaling-stroke" stroke-width="0.8" stroke="rgb(32,32,32)" stroke-linejoin="miter" stroke-linecap="square" stroke-miterlimit="3"/><circle vector-effect="non-scaling-stroke" cx="0" cy="0" r="1" transform="matrix(13,0,0,13,23,247)" fill="rgb(0,0,0)"/><circle vector-effect="non-scaling-stroke" cx="0" cy="0" r="1" transform="matrix(13,0,0,13,23,289)" fill="rgb(0,0,0)"/><circle vector-effect="non-scaling-stroke" cx="0" cy="0" r="1" transform="matrix(13,0,0,13,23,331)" fill="rgb(0,0,0)"/><circle vector-effect="non-scaling-stroke" cx="0" cy="0" r="1" transform="matrix(13,0,0,13,60,247)" fill="rgb(0,0,0)"/><circle vector-effect="non-scaling-stroke" cx="0" cy="0" r="1" transform="matrix(13,0,0,13,60,289)" fill="rgb(0,0,0)"/><circle vector-effect="non-scaling-stroke" cx="0" cy="0" r="1" transform="matrix(13,0,0,13,60,331)" fill="rgb(0,0,0)"/><circle vector-effect="non-scaling-stroke" cx="0" cy="0" r="1" transform="matrix(13,0,0,13,97,247)" fill="rgb(0,0,0)"/><circle vector-effect="non-scaling-stroke" cx="0" cy="0" r="1" transform="matrix(13,0,0,13,96.875,289.125)" fill="rgb(0,0,0)"/><circle vector-effect="non-scaling-stroke" cx="0" cy="0" r="1" transform="matrix(13,0,0,13,97,331)" fill="rgb(0,0,0)"/><circle vector-effect="non-scaling-stroke" cx="0" cy="0" r="1" transform="matrix(16,0,0,16,88,128)" fill="rgb(0,0,0)"/><circle vector-effect="non-scaling-stroke" cx="0" cy="0" r="1" transform="matrix(16,0,0,16,88,184)" fill="rgb(0,0,0)"/><path d=" M 17.824 155.792 L 17.824 155.792 Q 16.968 155.792 16.276 155.42 L 16.276 155.42 L 16.276 155.42 Q 15.584 155.048 15.188 154.388 L 15.188 154.388 L 15.188 154.388 Q 14.792 153.728 14.792 152.896 L 14.792 152.896 L 14.792 152.896 Q 14.792 152.064 15.188 151.404 L 15.188 151.404 L 15.188 151.404 Q 15.584 150.744 16.276 150.372 L 16.276 150.372 L 16.276 150.372 Q 16.968 150 17.832 150 L 17.832 150 L 17.832 150 Q 18.56 150 19.148 150.256 L 19.148 150.256 L 19.148 150.256 Q 19.736 150.512 20.136 150.992 L 20.136 150.992 L 19.304 151.76 L 19.304 151.76 Q 18.736 151.104 17.896 151.104 L 17.896 151.104 L 17.896 151.104 Q 17.376 151.104 16.968 151.332 L 16.968 151.332 L 16.968 151.332 Q 16.56 151.56 16.332 151.968 L 16.332 151.968 L 16.332 151.968 Q 16.104 152.376 16.104 152.896 L 16.104 152.896 L 16.104 152.896 Q 16.104 153.416 16.332 153.824 L 16.332 153.824 L 16.332 153.824 Q 16.56 154.232 16.968 154.46 L 16.968 154.46 L 16.968 154.46 Q 17.376 154.688 17.896 154.688 L 17.896 154.688 L 17.896 154.688 Q 18.736 154.688 19.304 154.024 L 19.304 154.024 L 20.136 154.792 L 20.136 154.792 Q 19.736 155.28 19.144 155.536 L 19.144 155.536 L 19.144 155.536 Q 18.552 155.792 17.824 155.792 L 17.824 155.792 Z  M 23.72 155.792 L 23.72 155.792 Q 22.848 155.792 22.148 155.416 L 22.148 155.416 L 22.148 155.416 Q 21.448 155.04 21.052 154.38 L 21.052 154.38 L 21.052 154.38 Q 20.656 153.72 20.656 152.896 L 20.656 152.896 L 20.656 152.896 Q 20.656 152.072 21.052 151.412 L 21.052 151.412 L 21.052 151.412 Q 21.448 150.752 22.148 150.376 L 22.148 150.376 L 22.148 150.376 Q 22.848 150 23.72 150 L 23.72 150 L 23.72 150 Q 24.592 150 25.288 150.376 L 25.288 150.376 L 25.288 150.376 Q 25.984 150.752 26.384 151.412 L 26.384 151.412 L 26.384 151.412 Q 26.784 152.072 26.784 152.896 L 26.784 152.896 L 26.784 152.896 Q 26.784 153.72 26.384 154.38 L 26.384 154.38 L 26.384 154.38 Q 25.984 155.04 25.288 155.416 L 25.288 155.416 L 25.288 155.416 Q 24.592 155.792 23.72 155.792 L 23.72 155.792 Z  M 23.72 154.688 L 23.72 154.688 Q 24.216 154.688 24.616 154.46 L 24.616 154.46 L 24.616 154.46 Q 25.016 154.232 25.244 153.824 L 25.244 153.824 L 25.244 153.824 Q 25.472 153.416 25.472 152.896 L 25.472 152.896 L 25.472 152.896 Q 25.472 152.376 25.244 151.968 L 25.244 151.968 L 25.244 151.968 Q 25.016 151.56 24.616 151.332 L 24.616 151.332 L 24.616 151.332 Q 24.216 151.104 23.72 151.104 L 23.72 151.104 L 23.72 151.104 Q 23.224 151.104 22.824 151.332 L 22.824 151.332 L 22.824 151.332 Q 22.424 151.56 22.196 151.968 L 22.196 151.968 L 22.196 151.968 Q 21.968 152.376 21.968 152.896 L 21.968 152.896 L 21.968 152.896 Q 21.968 153.416 22.196 153.824 L 22.196 153.824 L 22.196 153.824 Q 22.424 154.232 22.824 154.46 L 22.824 154.46 L 22.824 154.46 Q 23.224 154.688 23.72 154.688 L 23.72 154.688 Z  M 31.944 155.696 L 31.448 154.496 L 28.848 154.496 L 28.352 155.696 L 27.024 155.696 L 29.52 150.096 L 30.8 150.096 L 33.304 155.696 L 31.944 155.696 Z  M 29.264 153.512 L 31.04 153.512 L 30.152 151.368 L 29.264 153.512 Z  M 38.848 155.696 L 37.456 155.696 L 36.376 154.136 L 36.312 154.136 L 35.184 154.136 L 35.184 155.696 L 33.888 155.696 L 33.888 150.096 L 36.312 150.096 L 36.312 150.096 Q 37.056 150.096 37.604 150.344 L 37.604 150.344 L 37.604 150.344 Q 38.152 150.592 38.448 151.048 L 38.448 151.048 L 38.448 151.048 Q 38.744 151.504 38.744 152.128 L 38.744 152.128 L 38.744 152.128 Q 38.744 152.752 38.444 153.204 L 38.444 153.204 L 38.444 153.204 Q 38.144 153.656 37.592 153.896 L 37.592 153.896 L 38.848 155.696 Z  M 37.432 152.128 L 37.432 152.128 Q 37.432 151.656 37.128 151.404 L 37.128 151.404 L 37.128 151.404 Q 36.824 151.152 36.24 151.152 L 36.24 151.152 L 35.184 151.152 L 35.184 153.104 L 36.24 153.104 L 36.24 153.104 Q 36.824 153.104 37.128 152.848 L 37.128 152.848 L 37.128 152.848 Q 37.432 152.592 37.432 152.128 L 37.432 152.128 Z  M 41.608 155.792 L 41.608 155.792 Q 40.944 155.792 40.324 155.612 L 40.324 155.612 L 40.324 155.612 Q 39.704 155.432 39.328 155.144 L 39.328 155.144 L 39.768 154.168 L 39.768 154.168 Q 40.128 154.432 40.624 154.592 L 40.624 154.592 L 40.624 154.592 Q 41.12 154.752 41.616 154.752 L 41.616 154.752 L 41.616 154.752 Q 42.168 154.752 42.432 154.588 L 42.432 154.588 L 42.432 154.588 Q 42.696 154.424 42.696 154.152 L 42.696 154.152 L 42.696 154.152 Q 42.696 153.952 42.54 153.82 L 42.54 153.82 L 42.54 153.82 Q 42.384 153.688 42.14 153.608 L 42.14 153.608 L 42.14 153.608 Q 41.896 153.528 41.48 153.432 L 41.48 153.432 L 41.48 153.432 Q 40.84 153.28 40.432 153.128 L 40.432 153.128 L 40.432 153.128 Q 40.024 152.976 39.732 152.64 L 39.732 152.64 L 39.732 152.64 Q 39.44 152.304 39.44 151.744 L 39.44 151.744 L 39.44 151.744 Q 39.44 151.256 39.704 150.86 L 39.704 150.86 L 39.704 150.86 Q 39.968 150.464 40.5 150.232 L 40.5 150.232 L 40.5 150.232 Q 41.032 150 41.8 150 L 41.8 150 L 41.8 150 Q 42.336 150 42.848 150.128 L 42.848 150.128 L 42.848 150.128 Q 43.36 150.256 43.744 150.496 L 43.744 150.496 L 43.344 151.48 L 43.344 151.48 Q 42.568 151.04 41.792 151.04 L 41.792 151.04 L 41.792 151.04 Q 41.248 151.04 40.988 151.216 L 40.988 151.216 L 40.988 151.216 Q 40.728 151.392 40.728 151.68 L 40.728 151.68 L 40.728 151.68 Q 40.728 151.968 41.028 152.108 L 41.028 152.108 L 41.028 152.108 Q 41.328 152.248 41.944 152.384 L 41.944 152.384 L 41.944 152.384 Q 42.584 152.536 42.992 152.688 L 42.992 152.688 L 42.992 152.688 Q 43.4 152.84 43.692 153.168 L 43.692 153.168 L 43.692 153.168 Q 43.984 153.496 43.984 154.056 L 43.984 154.056 L 43.984 154.056 Q 43.984 154.536 43.716 154.932 L 43.716 154.932 L 43.716 154.932 Q 43.448 155.328 42.912 155.56 L 42.912 155.56 L 42.912 155.56 Q 42.376 155.792 41.608 155.792 L 41.608 155.792 Z  M 46.16 154.656 L 49.208 154.656 L 49.208 155.696 L 44.872 155.696 L 44.872 150.096 L 49.104 150.096 L 49.104 151.136 L 46.16 151.136 L 46.16 152.352 L 48.76 152.352 L 48.76 153.36 L 46.16 153.36 L 46.16 154.656 Z " fill-rule="evenodd" fill="rgb(32,32,32)"/><path d=" M 82.964 151.04 L 80.028 151.04 L 80.028 152.52 L 82.62 152.52 L 82.62 153.56 L 80.028 153.56 L 80.028 155.6 L 78.732 155.6 L 78.732 150 L 82.964 150 L 82.964 151.04 Z  M 83.844 155.6 L 83.844 150 L 85.14 150 L 85.14 155.6 L 83.844 155.6 Z  M 90.324 150 L 91.604 150 L 91.604 155.6 L 90.54 155.6 L 87.748 152.2 L 87.748 155.6 L 86.468 155.6 L 86.468 150 L 87.54 150 L 90.324 153.4 L 90.324 150 Z  M 94.22 154.56 L 97.268 154.56 L 97.268 155.6 L 92.932 155.6 L 92.932 150 L 97.164 150 L 97.164 151.04 L 94.22 151.04 L 94.22 152.256 L 96.82 152.256 L 96.82 153.264 L 94.22 153.264 L 94.22 154.56 Z " fill-rule="evenodd" fill="rgb(32,32,32)"/><path d=" M 52.545 226.194 L 53.672 226.194 L 51.551 231.094 L 50.431 231.094 L 48.317 226.194 L 49.542 226.194 L 51.033 229.694 L 52.545 226.194 Z  M 53.371 231.794 L 55.681 225.2 L 56.654 225.2 L 54.344 231.794 L 53.371 231.794 Z  M 59.3 231.178 L 59.3 231.178 Q 58.537 231.178 57.925 230.849 L 57.925 230.849 L 57.925 230.849 Q 57.312 230.52 56.966 229.943 L 56.966 229.943 L 56.966 229.943 Q 56.619 229.365 56.619 228.644 L 56.619 228.644 L 56.619 228.644 Q 56.619 227.923 56.966 227.346 L 56.966 227.346 L 56.966 227.346 Q 57.312 226.768 57.925 226.439 L 57.925 226.439 L 57.925 226.439 Q 58.537 226.11 59.3 226.11 L 59.3 226.11 L 59.3 226.11 Q 60.063 226.11 60.672 226.439 L 60.672 226.439 L 60.672 226.439 Q 61.281 226.768 61.631 227.346 L 61.631 227.346 L 61.631 227.346 Q 61.981 227.923 61.981 228.644 L 61.981 228.644 L 61.981 228.644 Q 61.981 229.365 61.631 229.943 L 61.631 229.943 L 61.631 229.943 Q 61.281 230.52 60.672 230.849 L 60.672 230.849 L 60.672 230.849 Q 60.063 231.178 59.3 231.178 L 59.3 231.178 Z  M 59.3 230.212 L 59.3 230.212 Q 59.734 230.212 60.084 230.013 L 60.084 230.013 L 60.084 230.013 Q 60.434 229.813 60.633 229.456 L 60.633 229.456 L 60.633 229.456 Q 60.833 229.099 60.833 228.644 L 60.833 228.644 L 60.833 228.644 Q 60.833 228.189 60.633 227.832 L 60.633 227.832 L 60.633 227.832 Q 60.434 227.475 60.084 227.276 L 60.084 227.276 L 60.084 227.276 Q 59.734 227.076 59.3 227.076 L 59.3 227.076 L 59.3 227.076 Q 58.866 227.076 58.516 227.276 L 58.516 227.276 L 58.516 227.276 Q 58.166 227.475 57.967 227.832 L 57.967 227.832 L 57.967 227.832 Q 57.767 228.189 57.767 228.644 L 57.767 228.644 L 57.767 228.644 Q 57.767 229.099 57.967 229.456 L 57.967 229.456 L 57.967 229.456 Q 58.166 229.813 58.516 230.013 L 58.516 230.013 L 58.516 230.013 Q 58.866 230.212 59.3 230.212 L 59.3 230.212 Z  M 65.18 231.178 L 65.18 231.178 Q 64.431 231.178 63.825 230.852 L 63.825 230.852 L 63.825 230.852 Q 63.22 230.527 62.873 229.95 L 62.873 229.95 L 62.873 229.95 Q 62.527 229.372 62.527 228.644 L 62.527 228.644 L 62.527 228.644 Q 62.527 227.916 62.873 227.339 L 62.873 227.339 L 62.873 227.339 Q 63.22 226.761 63.825 226.436 L 63.825 226.436 L 63.825 226.436 Q 64.431 226.11 65.187 226.11 L 65.187 226.11 L 65.187 226.11 Q 65.824 226.11 66.338 226.334 L 66.338 226.334 L 66.338 226.334 Q 66.853 226.558 67.203 226.978 L 67.203 226.978 L 66.475 227.65 L 66.475 227.65 Q 65.978 227.076 65.243 227.076 L 65.243 227.076 L 65.243 227.076 Q 64.788 227.076 64.431 227.276 L 64.431 227.276 L 64.431 227.276 Q 64.074 227.475 63.874 227.832 L 63.874 227.832 L 63.874 227.832 Q 63.675 228.189 63.675 228.644 L 63.675 228.644 L 63.675 228.644 Q 63.675 229.099 63.874 229.456 L 63.874 229.456 L 63.874 229.456 Q 64.074 229.813 64.431 230.013 L 64.431 230.013 L 64.431 230.013 Q 64.788 230.212 65.243 230.212 L 65.243 230.212 L 65.243 230.212 Q 65.978 230.212 66.475 229.631 L 66.475 229.631 L 67.203 230.303 L 67.203 230.303 Q 66.853 230.73 66.335 230.954 L 66.335 230.954 L 66.335 230.954 Q 65.817 231.178 65.18 231.178 L 65.18 231.178 Z  M 68.981 231.094 L 68.981 227.118 L 67.413 227.118 L 67.413 226.194 L 71.683 226.194 L 71.683 227.118 L 70.115 227.118 L 70.115 231.094 L 68.981 231.094 Z " fill-rule="evenodd" fill="rgb(32,32,32)"/><path d=" M 17.155 230.037 L 19.822 230.037 L 19.822 230.947 L 16.028 230.947 L 16.028 226.047 L 19.731 226.047 L 19.731 226.957 L 17.155 226.957 L 17.155 228.021 L 19.43 228.021 L 19.43 228.903 L 17.155 228.903 L 17.155 230.037 Z  M 25.121 230.947 L 23.812 230.947 L 22.629 229.246 L 21.467 230.947 L 20.165 230.947 L 21.978 228.455 L 20.256 226.047 L 21.544 226.047 L 22.671 227.636 L 23.777 226.047 L 25.002 226.047 L 23.294 228.413 L 25.121 230.947 Z  M 27.844 226.047 L 27.844 226.047 Q 28.495 226.047 28.975 226.264 L 28.975 226.264 L 28.975 226.264 Q 29.454 226.481 29.713 226.88 L 29.713 226.88 L 29.713 226.88 Q 29.972 227.279 29.972 227.825 L 29.972 227.825 L 29.972 227.825 Q 29.972 228.364 29.713 228.767 L 29.713 228.767 L 29.713 228.767 Q 29.454 229.169 28.975 229.383 L 28.975 229.383 L 28.975 229.383 Q 28.495 229.596 27.844 229.596 L 27.844 229.596 L 26.857 229.596 L 26.857 230.947 L 25.723 230.947 L 25.723 226.047 L 27.844 226.047 Z  M 27.781 228.672 L 27.781 228.672 Q 28.292 228.672 28.558 228.452 L 28.558 228.452 L 28.558 228.452 Q 28.824 228.231 28.824 227.825 L 28.824 227.825 L 28.824 227.825 Q 28.824 227.412 28.558 227.192 L 28.558 227.192 L 28.558 227.192 Q 28.292 226.971 27.781 226.971 L 27.781 226.971 L 26.857 226.971 L 26.857 228.672 L 27.781 228.672 Z " fill-rule="evenodd" fill="rgb(32,32,32)"/><path d=" M 91.491 230.947 L 91.491 226.047 L 92.625 226.047 L 92.625 230.023 L 95.082 230.023 L 95.082 230.947 L 91.491 230.947 Z  M 95.719 230.947 L 95.719 226.047 L 96.853 226.047 L 96.853 230.947 L 95.719 230.947 Z  M 101.389 226.047 L 102.509 226.047 L 102.509 230.947 L 101.578 230.947 L 99.135 227.972 L 99.135 230.947 L 98.015 230.947 L 98.015 226.047 L 98.953 226.047 L 101.389 229.022 L 101.389 226.047 Z " fill-rule="evenodd" fill="rgb(32,32,32)"/><path d=" M 15.979 272.95 L 14.761 272.95 L 13.816 271.585 L 13.76 271.585 L 12.773 271.585 L 12.773 272.95 L 11.639 272.95 L 11.639 268.05 L 13.76 268.05 L 13.76 268.05 Q 14.411 268.05 14.891 268.267 L 14.891 268.267 L 14.891 268.267 Q 15.37 268.484 15.629 268.883 L 15.629 268.883 L 15.629 268.883 Q 15.888 269.282 15.888 269.828 L 15.888 269.828 L 15.888 269.828 Q 15.888 270.374 15.626 270.77 L 15.626 270.77 L 15.626 270.77 Q 15.363 271.165 14.88 271.375 L 14.88 271.375 L 15.979 272.95 Z  M 14.74 269.828 L 14.74 269.828 Q 14.74 269.415 14.474 269.195 L 14.474 269.195 L 14.474 269.195 Q 14.208 268.974 13.697 268.974 L 13.697 268.974 L 12.773 268.974 L 12.773 270.682 L 13.697 270.682 L 13.697 270.682 Q 14.208 270.682 14.474 270.458 L 14.474 270.458 L 14.474 270.458 Q 14.74 270.234 14.74 269.828 L 14.74 269.828 Z  M 17.911 272.04 L 20.578 272.04 L 20.578 272.95 L 16.784 272.95 L 16.784 268.05 L 20.487 268.05 L 20.487 268.96 L 17.911 268.96 L 17.911 270.024 L 20.186 270.024 L 20.186 270.906 L 17.911 270.906 L 17.911 272.04 Z  M 23.091 273.034 L 23.091 273.034 Q 22.51 273.034 21.967 272.877 L 21.967 272.877 L 21.967 272.877 Q 21.425 272.719 21.096 272.467 L 21.096 272.467 L 21.481 271.613 L 21.481 271.613 Q 21.796 271.844 22.23 271.984 L 22.23 271.984 L 22.23 271.984 Q 22.664 272.124 23.098 272.124 L 23.098 272.124 L 23.098 272.124 Q 23.581 272.124 23.812 271.981 L 23.812 271.981 L 23.812 271.981 Q 24.043 271.837 24.043 271.599 L 24.043 271.599 L 24.043 271.599 Q 24.043 271.424 23.907 271.308 L 23.907 271.308 L 23.907 271.308 Q 23.77 271.193 23.556 271.123 L 23.556 271.123 L 23.556 271.123 Q 23.343 271.053 22.979 270.969 L 22.979 270.969 L 22.979 270.969 Q 22.419 270.836 22.062 270.703 L 22.062 270.703 L 22.062 270.703 Q 21.705 270.57 21.449 270.276 L 21.449 270.276 L 21.449 270.276 Q 21.194 269.982 21.194 269.492 L 21.194 269.492 L 21.194 269.492 Q 21.194 269.065 21.425 268.719 L 21.425 268.719 L 21.425 268.719 Q 21.656 268.372 22.122 268.169 L 22.122 268.169 L 22.122 268.169 Q 22.587 267.966 23.259 267.966 L 23.259 267.966 L 23.259 267.966 Q 23.728 267.966 24.176 268.078 L 24.176 268.078 L 24.176 268.078 Q 24.624 268.19 24.96 268.4 L 24.96 268.4 L 24.61 269.261 L 24.61 269.261 Q 23.931 268.876 23.252 268.876 L 23.252 268.876 L 23.252 268.876 Q 22.776 268.876 22.549 269.03 L 22.549 269.03 L 22.549 269.03 Q 22.321 269.184 22.321 269.436 L 22.321 269.436 L 22.321 269.436 Q 22.321 269.688 22.584 269.811 L 22.584 269.811 L 22.584 269.811 Q 22.846 269.933 23.385 270.052 L 23.385 270.052 L 23.385 270.052 Q 23.945 270.185 24.302 270.318 L 24.302 270.318 L 24.302 270.318 Q 24.659 270.451 24.914 270.738 L 24.914 270.738 L 24.914 270.738 Q 25.17 271.025 25.17 271.515 L 25.17 271.515 L 25.17 271.515 Q 25.17 271.935 24.935 272.282 L 24.935 272.282 L 24.935 272.282 Q 24.701 272.628 24.232 272.831 L 24.232 272.831 L 24.232 272.831 Q 23.763 273.034 23.091 273.034 L 23.091 273.034 Z  M 27.074 272.04 L 29.741 272.04 L 29.741 272.95 L 25.947 272.95 L 25.947 268.05 L 29.65 268.05 L 29.65 268.96 L 27.074 268.96 L 27.074 270.024 L 29.349 270.024 L 29.349 270.906 L 27.074 270.906 L 27.074 272.04 Z  M 31.659 272.95 L 31.659 268.974 L 30.091 268.974 L 30.091 268.05 L 34.361 268.05 L 34.361 268.974 L 32.793 268.974 L 32.793 272.95 L 31.659 272.95 Z " fill-rule="evenodd" fill="rgb(32,32,32)"/><path d=" M 54.446 273.042 L 54.446 273.042 Q 53.864 273.042 53.322 272.885 L 53.322 272.885 L 53.322 272.885 Q 52.78 272.727 52.451 272.475 L 52.451 272.475 L 52.835 271.621 L 52.835 271.621 Q 53.15 271.852 53.585 271.992 L 53.585 271.992 L 53.585 271.992 Q 54.018 272.132 54.453 272.132 L 54.453 272.132 L 54.453 272.132 Q 54.935 272.132 55.167 271.989 L 55.167 271.989 L 55.167 271.989 Q 55.398 271.845 55.398 271.607 L 55.398 271.607 L 55.398 271.607 Q 55.398 271.432 55.261 271.316 L 55.261 271.316 L 55.261 271.316 Q 55.125 271.201 54.911 271.131 L 54.911 271.131 L 54.911 271.131 Q 54.697 271.061 54.334 270.977 L 54.334 270.977 L 54.334 270.977 Q 53.773 270.844 53.417 270.711 L 53.417 270.711 L 53.417 270.711 Q 53.059 270.578 52.804 270.284 L 52.804 270.284 L 52.804 270.284 Q 52.549 269.99 52.549 269.5 L 52.549 269.5 L 52.549 269.5 Q 52.549 269.073 52.78 268.726 L 52.78 268.726 L 52.78 268.726 Q 53.01 268.38 53.476 268.177 L 53.476 268.177 L 53.476 268.177 Q 53.941 267.974 54.613 267.974 L 54.613 267.974 L 54.613 267.974 Q 55.083 267.974 55.53 268.086 L 55.53 268.086 L 55.53 268.086 Q 55.979 268.198 56.314 268.408 L 56.314 268.408 L 55.965 269.269 L 55.965 269.269 Q 55.286 268.884 54.606 268.884 L 54.606 268.884 L 54.606 268.884 Q 54.131 268.884 53.903 269.038 L 53.903 269.038 L 53.903 269.038 Q 53.675 269.192 53.675 269.444 L 53.675 269.444 L 53.675 269.444 Q 53.675 269.696 53.938 269.819 L 53.938 269.819 L 53.938 269.819 Q 54.201 269.941 54.739 270.06 L 54.739 270.06 L 54.739 270.06 Q 55.3 270.193 55.656 270.326 L 55.656 270.326 L 55.656 270.326 Q 56.014 270.459 56.269 270.746 L 56.269 270.746 L 56.269 270.746 Q 56.524 271.033 56.524 271.523 L 56.524 271.523 L 56.524 271.523 Q 56.524 271.943 56.29 272.29 L 56.29 272.29 L 56.29 272.29 Q 56.056 272.636 55.586 272.839 L 55.586 272.839 L 55.586 272.839 Q 55.118 273.042 54.446 273.042 L 54.446 273.042 Z  M 62.097 272.881 L 62.6 273.483 L 62.6 273.483 Q 62.363 273.777 62.023 273.931 L 62.023 273.931 L 62.023 273.931 Q 61.683 274.085 61.278 274.085 L 61.278 274.085 L 61.278 274.085 Q 60.731 274.085 60.291 273.851 L 60.291 273.851 L 60.291 273.851 Q 59.849 273.616 59.282 273.021 L 59.282 273.021 L 59.282 273.021 Q 58.618 272.937 58.096 272.594 L 58.096 272.594 L 58.096 272.594 Q 57.574 272.251 57.284 271.709 L 57.284 271.709 L 57.284 271.709 Q 56.994 271.166 56.994 270.508 L 56.994 270.508 L 56.994 270.508 Q 56.994 269.787 57.34 269.21 L 57.34 269.21 L 57.34 269.21 Q 57.687 268.632 58.299 268.303 L 58.299 268.303 L 58.299 268.303 Q 58.912 267.974 59.675 267.974 L 59.675 267.974 L 59.675 267.974 Q 60.438 267.974 61.046 268.303 L 61.046 268.303 L 61.046 268.303 Q 61.655 268.632 62.006 269.21 L 62.006 269.21 L 62.006 269.21 Q 62.356 269.787 62.356 270.508 L 62.356 270.508 L 62.356 270.508 Q 62.356 271.362 61.876 272.006 L 61.876 272.006 L 61.876 272.006 Q 61.397 272.65 60.606 272.902 L 60.606 272.902 L 60.606 272.902 Q 60.78 273.084 60.945 273.165 L 60.945 273.165 L 60.945 273.165 Q 61.11 273.245 61.299 273.245 L 61.299 273.245 L 61.299 273.245 Q 61.753 273.245 62.097 272.881 L 62.097 272.881 Z  M 58.141 270.508 L 58.141 270.508 Q 58.141 270.963 58.341 271.32 L 58.341 271.32 L 58.341 271.32 Q 58.541 271.677 58.891 271.877 L 58.891 271.877 L 58.891 271.877 Q 59.24 272.076 59.675 272.076 L 59.675 272.076 L 59.675 272.076 Q 60.108 272.076 60.459 271.877 L 60.459 271.877 L 60.459 271.877 Q 60.808 271.677 61.008 271.32 L 61.008 271.32 L 61.008 271.32 Q 61.208 270.963 61.208 270.508 L 61.208 270.508 L 61.208 270.508 Q 61.208 270.053 61.008 269.696 L 61.008 269.696 L 61.008 269.696 Q 60.808 269.339 60.459 269.14 L 60.459 269.14 L 60.459 269.14 Q 60.108 268.94 59.675 268.94 L 59.675 268.94 L 59.675 268.94 Q 59.24 268.94 58.891 269.14 L 58.891 269.14 L 58.891 269.14 Q 58.541 269.339 58.341 269.696 L 58.341 269.696 L 58.341 269.696 Q 58.141 270.053 58.141 270.508 L 58.141 270.508 Z  M 67.55 272.958 L 66.331 272.958 L 65.386 271.593 L 65.33 271.593 L 64.343 271.593 L 64.343 272.958 L 63.21 272.958 L 63.21 268.058 L 65.33 268.058 L 65.33 268.058 Q 65.981 268.058 66.461 268.275 L 66.461 268.275 L 66.461 268.275 Q 66.94 268.492 67.199 268.891 L 67.199 268.891 L 67.199 268.891 Q 67.459 269.29 67.459 269.836 L 67.459 269.836 L 67.459 269.836 Q 67.459 270.382 67.196 270.778 L 67.196 270.778 L 67.196 270.778 Q 66.933 271.173 66.451 271.383 L 66.451 271.383 L 67.55 272.958 Z  M 66.31 269.836 L 66.31 269.836 Q 66.31 269.423 66.044 269.203 L 66.044 269.203 L 66.044 269.203 Q 65.779 268.982 65.267 268.982 L 65.267 268.982 L 64.343 268.982 L 64.343 270.69 L 65.267 270.69 L 65.267 270.69 Q 65.779 270.69 66.044 270.466 L 66.044 270.466 L 66.044 270.466 Q 66.31 270.242 66.31 269.836 L 66.31 269.836 Z " fill-rule="evenodd" fill="rgb(226,226,226)"/><path d=" M 92.864 272.874 L 92.864 268.898 L 91.296 268.898 L 91.296 267.974 L 95.566 267.974 L 95.566 268.898 L 93.998 268.898 L 93.998 272.874 L 92.864 272.874 Z  M 100.515 272.874 L 99.297 272.874 L 98.352 271.509 L 98.296 271.509 L 97.309 271.509 L 97.309 272.874 L 96.175 272.874 L 96.175 267.974 L 98.296 267.974 L 98.296 267.974 Q 98.947 267.974 99.426 268.191 L 99.426 268.191 L 99.426 268.191 Q 99.906 268.408 100.165 268.807 L 100.165 268.807 L 100.165 268.807 Q 100.424 269.206 100.424 269.752 L 100.424 269.752 L 100.424 269.752 Q 100.424 270.298 100.161 270.694 L 100.161 270.694 L 100.161 270.694 Q 99.899 271.089 99.416 271.299 L 99.416 271.299 L 100.515 272.874 Z  M 99.276 269.752 L 99.276 269.752 Q 99.276 269.339 99.01 269.119 L 99.01 269.119 L 99.01 269.119 Q 98.744 268.898 98.233 268.898 L 98.233 268.898 L 97.309 268.898 L 97.309 270.606 L 98.233 270.606 L 98.233 270.606 Q 98.744 270.606 99.01 270.382 L 99.01 270.382 L 99.01 270.382 Q 99.276 270.158 99.276 269.752 L 99.276 269.752 Z  M 101.32 272.874 L 101.32 267.974 L 102.454 267.974 L 102.454 272.874 L 101.32 272.874 Z " fill-rule="evenodd" fill="rgb(226,226,226)"/><path d=" M 16.185 315.037 L 16.185 315.037 Q 15.605 315.037 15.062 314.88 L 15.062 314.88 L 15.062 314.88 Q 14.519 314.722 14.191 314.47 L 14.191 314.47 L 14.576 313.616 L 14.576 313.616 Q 14.89 313.847 15.324 313.987 L 15.324 313.987 L 15.324 313.987 Q 15.758 314.127 16.192 314.127 L 16.192 314.127 L 16.192 314.127 Q 16.675 314.127 16.907 313.984 L 16.907 313.984 L 16.907 313.984 Q 17.137 313.84 17.137 313.602 L 17.137 313.602 L 17.137 313.602 Q 17.137 313.427 17.001 313.311 L 17.001 313.311 L 17.001 313.311 Q 16.865 313.196 16.651 313.126 L 16.651 313.126 L 16.651 313.126 Q 16.438 313.056 16.074 312.972 L 16.074 312.972 L 16.074 312.972 Q 15.513 312.839 15.156 312.706 L 15.156 312.706 L 15.156 312.706 Q 14.8 312.573 14.544 312.279 L 14.544 312.279 L 14.544 312.279 Q 14.288 311.985 14.288 311.495 L 14.288 311.495 L 14.288 311.495 Q 14.288 311.068 14.519 310.722 L 14.519 310.722 L 14.519 310.722 Q 14.75 310.375 15.216 310.172 L 15.216 310.172 L 15.216 310.172 Q 15.682 309.969 16.353 309.969 L 16.353 309.969 L 16.353 309.969 Q 16.822 309.969 17.27 310.081 L 17.27 310.081 L 17.27 310.081 Q 17.719 310.193 18.054 310.403 L 18.054 310.403 L 17.704 311.264 L 17.704 311.264 Q 17.026 310.879 16.346 310.879 L 16.346 310.879 L 16.346 310.879 Q 15.87 310.879 15.643 311.033 L 15.643 311.033 L 15.643 311.033 Q 15.415 311.187 15.415 311.439 L 15.415 311.439 L 15.415 311.439 Q 15.415 311.691 15.678 311.814 L 15.678 311.814 L 15.678 311.814 Q 15.94 311.936 16.48 312.055 L 16.48 312.055 L 16.48 312.055 Q 17.04 312.188 17.397 312.321 L 17.397 312.321 L 17.397 312.321 Q 17.754 312.454 18.009 312.741 L 18.009 312.741 L 18.009 312.741 Q 18.265 313.028 18.265 313.518 L 18.265 313.518 L 18.265 313.518 Q 18.265 313.938 18.03 314.285 L 18.03 314.285 L 18.03 314.285 Q 17.796 314.631 17.327 314.834 L 17.327 314.834 L 17.327 314.834 Q 16.858 315.037 16.185 315.037 L 16.185 315.037 Z  M 22.703 314.953 L 22.269 313.903 L 19.994 313.903 L 19.56 314.953 L 18.397 314.953 L 20.581 310.053 L 21.702 310.053 L 23.893 314.953 L 22.703 314.953 Z  M 20.358 313.042 L 21.911 313.042 L 21.134 311.166 L 20.358 313.042 Z  M 30.724 310.053 L 31.809 310.053 L 30.206 314.953 L 28.988 314.953 L 27.911 311.635 L 26.797 314.953 L 25.586 314.953 L 23.977 310.053 L 25.153 310.053 L 26.258 313.497 L 27.414 310.053 L 28.463 310.053 L 29.584 313.525 L 30.724 310.053 Z " fill-rule="evenodd" fill="rgb(226,226,226)"/><path d=" M 56.175 315.037 L 56.175 315.037 Q 55.593 315.037 55.051 314.88 L 55.051 314.88 L 55.051 314.88 Q 54.509 314.722 54.179 314.47 L 54.179 314.47 L 54.565 313.616 L 54.565 313.616 Q 54.879 313.847 55.314 313.987 L 55.314 313.987 L 55.314 313.987 Q 55.747 314.127 56.182 314.127 L 56.182 314.127 L 56.182 314.127 Q 56.664 314.127 56.896 313.984 L 56.896 313.984 L 56.896 313.984 Q 57.127 313.84 57.127 313.602 L 57.127 313.602 L 57.127 313.602 Q 57.127 313.427 56.99 313.311 L 56.99 313.311 L 56.99 313.311 Q 56.853 313.196 56.64 313.126 L 56.64 313.126 L 56.64 313.126 Q 56.426 313.056 56.063 312.972 L 56.063 312.972 L 56.063 312.972 Q 55.503 312.839 55.146 312.706 L 55.146 312.706 L 55.146 312.706 Q 54.788 312.573 54.533 312.279 L 54.533 312.279 L 54.533 312.279 Q 54.278 311.985 54.278 311.495 L 54.278 311.495 L 54.278 311.495 Q 54.278 311.068 54.509 310.722 L 54.509 310.722 L 54.509 310.722 Q 54.739 310.375 55.205 310.172 L 55.205 310.172 L 55.205 310.172 Q 55.67 309.969 56.343 309.969 L 56.343 309.969 L 56.343 309.969 Q 56.811 309.969 57.26 310.081 L 57.26 310.081 L 57.26 310.081 Q 57.707 310.193 58.044 310.403 L 58.044 310.403 L 57.693 311.264 L 57.693 311.264 Q 57.015 310.879 56.336 310.879 L 56.336 310.879 L 56.336 310.879 Q 55.859 310.879 55.632 311.033 L 55.632 311.033 L 55.632 311.033 Q 55.405 311.187 55.405 311.439 L 55.405 311.439 L 55.405 311.439 Q 55.405 311.691 55.667 311.814 L 55.667 311.814 L 55.667 311.814 Q 55.929 311.936 56.468 312.055 L 56.468 312.055 L 56.468 312.055 Q 57.029 312.188 57.385 312.321 L 57.385 312.321 L 57.385 312.321 Q 57.743 312.454 57.998 312.741 L 57.998 312.741 L 57.998 312.741 Q 58.253 313.028 58.253 313.518 L 58.253 313.518 L 58.253 313.518 Q 58.253 313.938 58.019 314.285 L 58.019 314.285 L 58.019 314.285 Q 57.785 314.631 57.315 314.834 L 57.315 314.834 L 57.315 314.834 Q 56.846 315.037 56.175 315.037 L 56.175 315.037 Z  M 59.031 314.953 L 59.031 310.053 L 60.164 310.053 L 60.164 314.953 L 59.031 314.953 Z  M 64.7 310.053 L 65.821 310.053 L 65.821 314.953 L 64.89 314.953 L 62.447 311.978 L 62.447 314.953 L 61.327 314.953 L 61.327 310.053 L 62.265 310.053 L 64.7 313.028 L 64.7 310.053 Z " fill-rule="evenodd" fill="rgb(226,226,226)"/><path d=" M 91.565 315.037 L 91.565 315.037 Q 90.983 315.037 90.441 314.88 L 90.441 314.88 L 90.441 314.88 Q 89.898 314.722 89.569 314.47 L 89.569 314.47 L 89.954 313.616 L 89.954 313.616 Q 90.27 313.847 90.704 313.987 L 90.704 313.987 L 90.704 313.987 Q 91.137 314.127 91.571 314.127 L 91.571 314.127 L 91.571 314.127 Q 92.054 314.127 92.286 313.984 L 92.286 313.984 L 92.286 313.984 Q 92.517 313.84 92.517 313.602 L 92.517 313.602 L 92.517 313.602 Q 92.517 313.427 92.38 313.311 L 92.38 313.311 L 92.38 313.311 Q 92.244 313.196 92.03 313.126 L 92.03 313.126 L 92.03 313.126 Q 91.816 313.056 91.453 312.972 L 91.453 312.972 L 91.453 312.972 Q 90.893 312.839 90.536 312.706 L 90.536 312.706 L 90.536 312.706 Q 90.178 312.573 89.923 312.279 L 89.923 312.279 L 89.923 312.279 Q 89.667 311.985 89.667 311.495 L 89.667 311.495 L 89.667 311.495 Q 89.667 311.068 89.898 310.722 L 89.898 310.722 L 89.898 310.722 Q 90.13 310.375 90.595 310.172 L 90.595 310.172 L 90.595 310.172 Q 91.061 309.969 91.732 309.969 L 91.732 309.969 L 91.732 309.969 Q 92.202 309.969 92.649 310.081 L 92.649 310.081 L 92.649 310.081 Q 93.097 310.193 93.434 310.403 L 93.434 310.403 L 93.083 311.264 L 93.083 311.264 Q 92.404 310.879 91.726 310.879 L 91.726 310.879 L 91.726 310.879 Q 91.249 310.879 91.022 311.033 L 91.022 311.033 L 91.022 311.033 Q 90.795 311.187 90.795 311.439 L 90.795 311.439 L 90.795 311.439 Q 90.795 311.691 91.057 311.814 L 91.057 311.814 L 91.057 311.814 Q 91.319 311.936 91.858 312.055 L 91.858 312.055 L 91.858 312.055 Q 92.418 312.188 92.775 312.321 L 92.775 312.321 L 92.775 312.321 Q 93.133 312.454 93.388 312.741 L 93.388 312.741 L 93.388 312.741 Q 93.644 313.028 93.644 313.518 L 93.644 313.518 L 93.644 313.518 Q 93.644 313.938 93.409 314.285 L 93.409 314.285 L 93.409 314.285 Q 93.175 314.631 92.705 314.834 L 92.705 314.834 L 92.705 314.834 Q 92.236 315.037 91.565 315.037 L 91.565 315.037 Z  M 96.597 315.037 L 96.597 315.037 Q 95.548 315.037 94.963 314.456 L 94.963 314.456 L 94.963 314.456 Q 94.379 313.875 94.379 312.797 L 94.379 312.797 L 94.379 310.053 L 95.512 310.053 L 95.512 312.755 L 95.512 312.755 Q 95.512 314.071 96.605 314.071 L 96.605 314.071 L 96.605 314.071 Q 97.136 314.071 97.416 313.753 L 97.416 313.753 L 97.416 313.753 Q 97.696 313.434 97.696 312.755 L 97.696 312.755 L 97.696 310.053 L 98.816 310.053 L 98.816 312.797 L 98.816 312.797 Q 98.816 313.875 98.232 314.456 L 98.232 314.456 L 98.232 314.456 Q 97.648 315.037 96.597 315.037 L 96.597 315.037 Z  M 103.535 312.405 L 103.535 312.405 Q 103.954 312.538 104.192 312.85 L 104.192 312.85 L 104.192 312.85 Q 104.43 313.161 104.43 313.616 L 104.43 313.616 L 104.43 313.616 Q 104.43 314.26 103.93 314.607 L 103.93 314.607 L 103.93 314.607 Q 103.429 314.953 102.47 314.953 L 102.47 314.953 L 99.937 314.953 L 99.937 310.053 L 102.33 310.053 L 102.33 310.053 Q 103.227 310.053 103.706 310.396 L 103.706 310.396 L 103.706 310.396 Q 104.186 310.739 104.186 311.327 L 104.186 311.327 L 104.186 311.327 Q 104.186 311.684 104.014 311.964 L 104.014 311.964 L 104.014 311.964 Q 103.843 312.244 103.535 312.405 L 103.535 312.405 Z  M 102.19 310.907 L 101.064 310.907 L 101.064 312.062 L 102.19 312.062 L 102.19 312.062 Q 102.61 312.062 102.828 311.915 L 102.828 311.915 L 102.828 311.915 Q 103.045 311.768 103.045 311.481 L 103.045 311.481 L 103.045 311.481 Q 103.045 311.194 102.828 311.051 L 102.828 311.051 L 102.828 311.051 Q 102.61 310.907 102.19 310.907 L 102.19 310.907 Z  M 102.386 314.099 L 102.386 314.099 Q 102.834 314.099 103.062 313.952 L 103.062 313.952 L 103.062 313.952 Q 103.289 313.805 103.289 313.497 L 103.289 313.497 L 103.289 313.497 Q 103.289 312.888 102.386 312.888 L 102.386 312.888 L 101.064 312.888 L 101.064 314.099 L 102.386 314.099 Z " fill-rule="evenodd" fill="rgb(226,226,226)"/><path d=" M 22.979 222.7 L 23.075 216.9 C 23.084 216.348 23.403 215.579 23.788 215.183 L 31.247 207.517 C 31.632 207.121 31.948 206.352 31.952 205.8 L 32 200" fill="none" vector-effect="non-scaling-stroke" stroke-width="0.8" stroke-dasharray="0,0,0,0" stroke="rgb(32,32,32)" stroke-linejoin="miter" stroke-linecap="square" stroke-miterlimit="3"/><path d=" M 96.875 222.7 L 96.779 216.9 C 96.77 216.348 96.451 215.579 96.066 215.183 L 88.607 207.517 C 88.222 207.121 87.906 206.352 87.902 205.8 L 87.854 200" fill="none" vector-effect="non-scaling-stroke" stroke-width="0.8" stroke-dasharray="0,0,0,0" stroke="rgb(32,32,32)" stroke-linejoin="miter" stroke-linecap="square" stroke-miterlimit="3"/><line x1="20.715" y1="146.45" x2="21.477" y2="145.163" vector-effect="non-scaling-stroke" stroke-width="0.8" stroke="rgb(32,32,32)" stroke-linejoin="miter" stroke-linecap="square" stroke-miterlimit="3"/><line x1="42.861" y1="146.445" x2="42.1" y2="145.158" vector-effect="non-scaling-stroke" stroke-width="0.8" stroke="rgb(32,32,32)" stroke-linejoin="miter" stroke-linecap="square" stroke-miterlimit="3"/><line x1="14.1" y1="140.238" x2="15.332" y2="139.391" vector-effect="non-scaling-stroke" stroke-width="0.8" stroke="rgb(32,32,32)" stroke-linejoin="miter" stroke-linecap="square" stroke-miterlimit="3"/><line x1="49.432" y1="140.233" x2="48.2" y2="139.386" vector-effect="non-scaling-stroke" stroke-width="0.8" stroke="rgb(32,32,32)" stroke-linejoin="miter" stroke-linecap="square" stroke-miterlimit="3"/><line x1="10.6" y1="131.649" x2="12.074" y2="131.4" vector-effect="non-scaling-stroke" stroke-width="0.8" stroke="rgb(32,32,32)" stroke-linejoin="miter" stroke-linecap="square" stroke-miterlimit="3"/><line x1="52.974" y1="131.749" x2="51.5" y2="131.5" vector-effect="non-scaling-stroke" stroke-width="0.8" stroke="rgb(32,32,32)" stroke-linejoin="miter" stroke-linecap="square" stroke-miterlimit="3"/><line x1="11.1" y1="122.2" x2="12.542" y2="122.595" vector-effect="non-scaling-stroke" stroke-width="0.8" stroke="rgb(32,32,32)" stroke-linejoin="miter" stroke-linecap="square" stroke-miterlimit="3"/><line x1="52.542" y1="122.195" x2="51.1" y2="122.59" vector-effect="non-scaling-stroke" stroke-width="0.8" stroke="rgb(32,32,32)" stroke-linejoin="miter" stroke-linecap="square" stroke-miterlimit="3"/><line x1="15.4" y1="114.1" x2="16.542" y2="115.065" vector-effect="non-scaling-stroke" stroke-width="0.8" stroke="rgb(32,32,32)" stroke-linejoin="miter" stroke-linecap="square" stroke-miterlimit="3"/><line x1="48.242" y1="114.095" x2="47.1" y2="115.061" vector-effect="non-scaling-stroke" stroke-width="0.8" stroke="rgb(32,32,32)" stroke-linejoin="miter" stroke-linecap="square" stroke-miterlimit="3"/><line x1="22.641" y1="108.5" x2="23.27" y2="109.856" vector-effect="non-scaling-stroke" stroke-width="0.8" stroke="rgb(32,32,32)" stroke-linejoin="miter" stroke-linecap="square" stroke-miterlimit="3"/><line x1="41.03" y1="108.5" x2="40.4" y2="109.856" vector-effect="non-scaling-stroke" stroke-width="0.8" stroke="rgb(32,32,32)" stroke-linejoin="miter" stroke-linecap="square" stroke-miterlimit="3"/><line x1="31.659" y1="108" x2="31.659" y2="106.505" vector-effect="non-scaling-stroke" stroke-width="0.8" stroke="rgb(32,32,32)" stroke-linejoin="miter" stroke-linecap="square" stroke-miterlimit="3"/><line x1="44.561" y1="89.7" x2="43.8" y2="90.987" vector-effect="non-scaling-stroke" stroke-width="0.8" stroke="rgb(32,32,32)" stroke-linejoin="miter" stroke-linecap="square" stroke-miterlimit="3"/><line x1="75.435" y1="89.7" x2="76.196" y2="90.987" vector-effect="non-scaling-stroke" stroke-width="0.8" stroke="rgb(32,32,32)" stroke-linejoin="miter" stroke-linecap="square" stroke-miterlimit="3"/><line x1="30.8" y1="75.961" x2="32.186" y2="75.4" vector-effect="non-scaling-stroke" stroke-width="0.8" stroke="rgb(32,32,32)" stroke-linejoin="miter" stroke-linecap="square" stroke-miterlimit="3"/><line x1="89.196" y1="75.961" x2="87.81" y2="75.4" vector-effect="non-scaling-stroke" stroke-width="0.8" stroke="rgb(32,32,32)" stroke-linejoin="miter" stroke-linecap="square" stroke-miterlimit="3"/><line x1="29.672" y1="55.4" x2="31.115" y2="55.795" vector-effect="non-scaling-stroke" stroke-width="0.8" stroke="rgb(32,32,32)" stroke-linejoin="miter" stroke-linecap="square" stroke-miterlimit="3"/><line x1="90.324" y1="55.4" x2="88.882" y2="55.795" vector-effect="non-scaling-stroke" stroke-width="0.8" stroke="rgb(32,32,32)" stroke-linejoin="miter" stroke-linecap="square" stroke-miterlimit="3"/><line x1="60" y1="32.505" x2="60" y2="34" vector-effect="non-scaling-stroke" stroke-width="0.8" stroke="rgb(32,32,32)" stroke-linejoin="miter" stroke-linecap="square" stroke-miterlimit="3"/><line x1="40.826" y1="39.006" x2="41.734" y2="40.195" vector-effect="non-scaling-stroke" stroke-width="0.8" stroke="rgb(32,32,32)" stroke-linejoin="miter" stroke-linecap="square" stroke-miterlimit="3"/><line x1="79.17" y1="39.006" x2="78.263" y2="40.195" vector-effect="non-scaling-stroke" stroke-width="0.8" stroke="rgb(32,32,32)" stroke-linejoin="miter" stroke-linecap="square" stroke-miterlimit="3"/><path d=" M 45.892 101.792 L 45.892 101.792 Q 45.02 101.792 44.32 101.416 L 44.32 101.416 L 44.32 101.416 Q 43.62 101.04 43.224 100.38 L 43.224 100.38 L 43.224 100.38 Q 42.828 99.72 42.828 98.896 L 42.828 98.896 L 42.828 98.896 Q 42.828 98.072 43.224 97.412 L 43.224 97.412 L 43.224 97.412 Q 43.62 96.752 44.32 96.376 L 44.32 96.376 L 44.32 96.376 Q 45.02 96 45.892 96 L 45.892 96 L 45.892 96 Q 46.764 96 47.46 96.376 L 47.46 96.376 L 47.46 96.376 Q 48.156 96.752 48.556 97.412 L 48.556 97.412 L 48.556 97.412 Q 48.956 98.072 48.956 98.896 L 48.956 98.896 L 48.956 98.896 Q 48.956 99.72 48.556 100.38 L 48.556 100.38 L 48.556 100.38 Q 48.156 101.04 47.46 101.416 L 47.46 101.416 L 47.46 101.416 Q 46.764 101.792 45.892 101.792 L 45.892 101.792 Z  M 45.892 100.688 L 45.892 100.688 Q 46.388 100.688 46.788 100.46 L 46.788 100.46 L 46.788 100.46 Q 47.188 100.232 47.416 99.824 L 47.416 99.824 L 47.416 99.824 Q 47.644 99.416 47.644 98.896 L 47.644 98.896 L 47.644 98.896 Q 47.644 98.376 47.416 97.968 L 47.416 97.968 L 47.416 97.968 Q 47.188 97.56 46.788 97.332 L 46.788 97.332 L 46.788 97.332 Q 46.388 97.104 45.892 97.104 L 45.892 97.104 L 45.892 97.104 Q 45.396 97.104 44.996 97.332 L 44.996 97.332 L 44.996 97.332 Q 44.596 97.56 44.368 97.968 L 44.368 97.968 L 44.368 97.968 Q 44.14 98.376 44.14 98.896 L 44.14 98.896 L 44.14 98.896 Q 44.14 99.416 44.368 99.824 L 44.368 99.824 L 44.368 99.824 Q 44.596 100.232 44.996 100.46 L 44.996 100.46 L 44.996 100.46 Q 45.396 100.688 45.892 100.688 L 45.892 100.688 Z  M 52.612 101.792 L 52.612 101.792 Q 51.756 101.792 51.064 101.42 L 51.064 101.42 L 51.064 101.42 Q 50.372 101.048 49.976 100.388 L 49.976 100.388 L 49.976 100.388 Q 49.58 99.728 49.58 98.896 L 49.58 98.896 L 49.58 98.896 Q 49.58 98.064 49.976 97.404 L 49.976 97.404 L 49.976 97.404 Q 50.372 96.744 51.064 96.372 L 51.064 96.372 L 51.064 96.372 Q 51.756 96 52.62 96 L 52.62 96 L 52.62 96 Q 53.348 96 53.936 96.256 L 53.936 96.256 L 53.936 96.256 Q 54.524 96.512 54.924 96.992 L 54.924 96.992 L 54.092 97.76 L 54.092 97.76 Q 53.524 97.104 52.684 97.104 L 52.684 97.104 L 52.684 97.104 Q 52.164 97.104 51.756 97.332 L 51.756 97.332 L 51.756 97.332 Q 51.348 97.56 51.12 97.968 L 51.12 97.968 L 51.12 97.968 Q 50.892 98.376 50.892 98.896 L 50.892 98.896 L 50.892 98.896 Q 50.892 99.416 51.12 99.824 L 51.12 99.824 L 51.12 99.824 Q 51.348 100.232 51.756 100.46 L 51.756 100.46 L 51.756 100.46 Q 52.164 100.688 52.684 100.688 L 52.684 100.688 L 52.684 100.688 Q 53.524 100.688 54.092 100.024 L 54.092 100.024 L 54.924 100.792 L 54.924 100.792 Q 54.524 101.28 53.932 101.536 L 53.932 101.536 L 53.932 101.536 Q 53.34 101.792 52.612 101.792 L 52.612 101.792 Z  M 56.956 101.696 L 56.956 97.152 L 55.164 97.152 L 55.164 96.096 L 60.044 96.096 L 60.044 97.152 L 58.252 97.152 L 58.252 101.696 L 56.956 101.696 Z  M 64.924 101.696 L 64.428 100.496 L 61.828 100.496 L 61.332 101.696 L 60.004 101.696 L 62.5 96.096 L 63.78 96.096 L 66.284 101.696 L 64.924 101.696 Z  M 62.244 99.512 L 64.02 99.512 L 63.132 97.368 L 62.244 99.512 Z  M 70.964 96.096 L 72.252 96.096 L 69.828 101.696 L 68.548 101.696 L 66.132 96.096 L 67.532 96.096 L 69.236 100.096 L 70.964 96.096 Z  M 74.124 100.656 L 77.172 100.656 L 77.172 101.696 L 72.836 101.696 L 72.836 96.096 L 77.068 96.096 L 77.068 97.136 L 74.124 97.136 L 74.124 98.352 L 76.724 98.352 L 76.724 99.36 L 74.124 99.36 L 74.124 100.656 Z " fill-rule="evenodd" fill="rgb(32,32,32)"/><path d=" M 50.224 366.88 L 51.512 365.664 C 52.296 364.936 52.448 364.44 52.448 363.896 C 52.448 362.88 51.616 362.24 50.368 362.24 C 49.36 362.24 48.576 362.648 48.144 363.28 L 49.088 363.888 C 49.36 363.512 49.768 363.328 50.248 363.328 C 50.84 363.328 51.144 363.584 51.144 364.024 C 51.144 364.296 51.056 364.584 50.56 365.056 L 48.4 367.096 L 48.4 367.936 L 52.632 367.936 L 52.632 366.88 L 50.224 366.88 Z  M 52.912 362.336 L 52.912 363.376 L 54.032 363.376 L 54.032 367.936 L 55.328 367.936 L 55.328 362.336 L 52.912 362.336 Z  M 59.776 367.936 L 61.288 367.936 L 59.336 365.456 L 61.128 363.632 L 59.64 363.632 L 57.816 365.36 L 57.816 362 L 56.568 362 L 56.568 367.936 L 57.816 367.936 L 57.816 366.84 L 58.416 366.248 L 59.776 367.936 Z  M 65.776 362.336 L 65.776 364.544 L 63.232 364.544 L 63.232 362.336 L 61.936 362.336 L 61.936 367.936 L 63.232 367.936 L 63.232 365.64 L 65.776 365.64 L 65.776 367.936 L 67.072 367.936 L 67.072 362.336 L 65.776 362.336 Z  M 69.592 366.976 L 71.784 364.384 L 71.784 363.632 L 68.072 363.632 L 68.072 364.592 L 70.208 364.592 L 68.016 367.184 L 68.016 367.936 L 71.856 367.936 L 71.856 366.976 L 69.592 366.976 Z " fill-rule="evenodd" fill="rgb(32,32,32)"/><path d=" M 64.855 27.08 L 69.645 27.08 L 69.645 26.21 L 65.855 26.21 L 65.855 20.08 L 64.855 20.08 L 64.855 27.08 Z  M 73.955 27.16 C 76.085 27.16 77.665 25.64 77.665 23.58 C 77.665 21.52 76.085 20 73.955 20 C 71.805 20 70.225 21.53 70.225 23.58 C 70.225 25.63 71.805 27.16 73.955 27.16 Z  M 73.955 26.27 C 72.385 26.27 71.225 25.13 71.225 23.58 C 71.225 22.03 72.385 20.89 73.955 20.89 C 75.505 20.89 76.665 22.03 76.665 23.58 C 76.665 25.13 75.505 26.27 73.955 26.27 Z  M 82.355 27.16 C 84.485 27.16 86.065 25.64 86.065 23.58 C 86.065 21.52 84.485 20 82.355 20 C 80.205 20 78.625 21.53 78.625 23.58 C 78.625 25.63 80.205 27.16 82.355 27.16 Z  M 82.355 26.27 C 80.785 26.27 79.625 25.13 79.625 23.58 C 79.625 22.03 80.785 20.89 82.355 20.89 C 83.905 20.89 85.065 22.03 85.065 23.58 C 85.065 25.13 83.905 26.27 82.355 26.27 Z  M 90.325 20.08 L 87.595 20.08 L 87.595 27.08 L 88.595 27.08 L 88.595 24.96 L 90.325 24.96 C 92.145 24.96 93.245 24.04 93.245 22.52 C 93.245 21 92.145 20.08 90.325 20.08 Z  M 90.295 24.09 L 88.595 24.09 L 88.595 20.95 L 90.295 20.95 C 91.575 20.95 92.245 21.52 92.245 22.52 C 92.245 23.52 91.575 24.09 90.295 24.09 Z  M 29.485 20.08 L 26.755 20.08 L 26.755 27.08 L 27.755 27.08 L 27.755 24.96 L 29.485 24.96 C 31.305 24.96 32.405 24.04 32.405 22.52 C 32.405 21 31.305 20.08 29.485 20.08 Z  M 29.455 24.09 L 27.755 24.09 L 27.755 20.95 L 29.455 20.95 C 30.735 20.95 31.405 21.52 31.405 22.52 C 31.405 23.52 30.735 24.09 29.455 24.09 Z  M 39.205 27.08 L 40.255 27.08 L 37.075 20.08 L 36.085 20.08 L 32.915 27.08 L 33.945 27.08 L 34.715 25.33 L 38.435 25.33 L 39.205 27.08 Z  M 35.065 24.53 L 36.575 21.1 L 38.085 24.53 L 35.065 24.53 Z  M 41.295 27.08 L 46.085 27.08 L 46.085 26.21 L 42.295 26.21 L 42.295 20.08 L 41.295 20.08 L 41.295 27.08 Z  M 54.685 27.08 L 54.675 20.08 L 53.855 20.08 L 50.975 25 L 48.055 20.08 L 47.235 20.08 L 47.235 27.08 L 48.195 27.08 L 48.195 22.01 L 50.725 26.23 L 51.185 26.23 L 53.715 21.98 L 53.725 27.08 L 54.685 27.08 Z " fill-rule="evenodd" fill="rgb(0,0,0)"/></g></svg>
