<?xml version="1.0" standalone="no"?><!-- Generator: Gravit.io --><svg xmlns="http://www.w3.org/2000/svg" xmlns:xlink="http://www.w3.org/1999/xlink" style="isolation:isolate" viewBox="0 0 300 380" width="300" height="380"><defs><clipPath id="_clipPath_DsPrLkdHOPsBJ6PxmrINliYVOlW3Q770"><rect width="300" height="380"/></clipPath></defs><g clip-path="url(#_clipPath_DsPrLkdHOPsBJ6PxmrINliYVOlW3Q770)"><rect x="0" y="0" width="300" height="380" transform="matrix(1,0,0,1,0,0)" fill="rgb(228,228,228)"/><rect x="0" y="0" width="300" height="380" transform="matrix(1,0,0,1,0,0)" fill="rgb(228,228,228)"/><path d=" M 140.224 366.88 L 141.512 365.664 C 142.296 364.936 142.448 364.44 142.448 363.896 C 142.448 362.88 141.616 362.24 140.368 362.24 C 139.36 362.24 138.576 362.648 138.144 363.28 L 139.088 363.888 C 139.36 363.512 139.768 363.328 140.248 363.328 C 140.84 363.328 141.144 363.584 141.144 364.024 C 141.144 364.296 141.056 364.584 140.56 365.056 L 138.4 367.096 L 138.4 367.936 L 142.632 367.936 L 142.632 366.88 L 140.224 366.88 Z  M 142.912 362.336 L 142.912 363.376 L 144.032 363.376 L 144.032 367.936 L 145.328 367.936 L 145.328 362.336 L 142.912 362.336 Z  M 149.776 367.936 L 151.288 367.936 L 149.336 365.456 L 151.128 363.632 L 149.64 363.632 L 147.816 365.36 L 147.816 362 L 146.568 362 L 146.568 367.936 L 147.816 367.936 L 147.816 366.84 L 148.416 366.248 L 149.776 367.936 Z  M 155.776 362.336 L 155.776 364.544 L 153.232 364.544 L 153.232 362.336 L 151.936 362.336 L 151.936 367.936 L 153.232 367.936 L 153.232 365.64 L 155.776 365.64 L 155.776 367.936 L 157.072 367.936 L 157.072 362.336 L 155.776 362.336 Z  M 159.592 366.976 L 161.784 364.384 L 161.784 363.632 L 158.072 363.632 L 158.072 364.592 L 160.208 364.592 L 158.016 367.184 L 158.016 367.936 L 161.856 367.936 L 161.856 366.976 L 159.592 366.976 Z " fill-rule="evenodd" fill="rgb(32,32,32)"/><path d=" M 77.732 145.163 C 71.904 141.666 68 135.285 68 128 C 68 116.962 76.962 108 88 108 C 99.038 108 108 116.962 108 128 C 108 135.285 104.096 141.666 98.268 145.163" fill="none" vector-effect="non-scaling-stroke" stroke-width="0.8" stroke="rgb(32,32,32)" stroke-linejoin="miter" stroke-linecap="square" stroke-miterlimit="3"/><path d=" M 77.732 201.163 C 71.904 197.666 68 191.285 68 184 C 68 172.962 76.962 164 88 164 C 99.038 164 108 172.962 108 184 C 108 191.285 104.096 197.666 98.268 201.163" fill="none" vector-effect="non-scaling-stroke" stroke-width="0.8" stroke="rgb(32,32,32)" stroke-linejoin="miter" stroke-linecap="square" stroke-miterlimit="3"/><path d=" M 139.732 201.163 C 133.904 197.666 130 191.285 130 184 C 130 172.962 138.962 164 150 164 C 161.038 164 170 172.962 170 184 C 170 191.285 166.096 197.666 160.268 201.163" fill="none" vector-effect="non-scaling-stroke" stroke-width="0.8" stroke="rgb(32,32,32)" stroke-linejoin="miter" stroke-linecap="square" stroke-miterlimit="3"/><path d=" M 257.732 145.163 C 251.904 141.666 248 135.285 248 128 C 248 116.962 256.962 108 268 108 C 279.038 108 288 116.962 288 128 C 288 135.285 284.096 141.666 278.268 145.163" fill="none" vector-effect="non-scaling-stroke" stroke-width="0.8" stroke="rgb(32,32,32)" stroke-linejoin="miter" stroke-linecap="square" stroke-miterlimit="3"/><path d=" M 257.732 201.163 C 251.904 197.666 248 191.285 248 184 C 248 172.962 256.962 164 268 164 C 279.038 164 288 172.962 288 184 C 288 191.285 284.096 197.666 278.268 201.163" fill="none" vector-effect="non-scaling-stroke" stroke-width="0.8" stroke="rgb(32,32,32)" stroke-linejoin="miter" stroke-linecap="square" stroke-miterlimit="3"/><path d=" M 21.732 145.163 C 15.904 141.666 12 135.285 12 128 C 12 116.962 20.962 108 32 108 C 43.038 108 52 116.962 52 128 C 52 135.285 48.096 141.666 42.268 145.163" fill="none" vector-effect="non-scaling-stroke" stroke-width="0.8" stroke="rgb(32,32,32)" stroke-linejoin="miter" stroke-linecap="square" stroke-miterlimit="3"/><path d=" M 21.732 201.163 C 15.904 197.666 12 191.285 12 184 C 12 172.962 20.962 164 32 164 C 43.038 164 52 172.962 52 184 C 52 191.285 48.096 197.666 42.268 201.163" fill="none" vector-effect="non-scaling-stroke" stroke-width="0.8" stroke="rgb(32,32,32)" stroke-linejoin="miter" stroke-linecap="square" stroke-miterlimit="3"/><path d=" M 201.732 145.163 C 195.904 141.666 192 135.285 192 128 C 192 116.962 200.962 108 212 108 C 223.038 108 232 116.962 232 128 C 232 135.285 228.096 141.666 222.268 145.163" fill="none" vector-effect="non-scaling-stroke" stroke-width="0.8" stroke="rgb(32,32,32)" stroke-linejoin="miter" stroke-linecap="square" stroke-miterlimit="3"/><path d=" M 201.732 201.163 C 195.904 197.666 192 191.285 192 184 C 192 172.962 200.962 164 212 164 C 223.038 164 232 172.962 232 184 C 232 191.285 228.096 197.666 222.268 201.163" fill="none" vector-effect="non-scaling-stroke" stroke-width="0.8" stroke="rgb(32,32,32)" stroke-linejoin="miter" stroke-linecap="square" stroke-miterlimit="3"/><g><line x1="44.563" y1="89.695" x2="43.802" y2="90.983" vector-effect="non-scaling-stroke" stroke-width="0.8" stroke="rgb(32,32,32)" stroke-linejoin="miter" stroke-linecap="square" stroke-miterlimit="3"/><line x1="75.437" y1="89.695" x2="76.198" y2="90.983" vector-effect="non-scaling-stroke" stroke-width="0.8" stroke="rgb(32,32,32)" stroke-linejoin="miter" stroke-linecap="square" stroke-miterlimit="3"/><line x1="30.802" y1="75.957" x2="32.188" y2="75.395" vector-effect="non-scaling-stroke" stroke-width="0.8" stroke="rgb(32,32,32)" stroke-linejoin="miter" stroke-linecap="square" stroke-miterlimit="3"/><line x1="89.198" y1="75.957" x2="87.812" y2="75.395" vector-effect="non-scaling-stroke" stroke-width="0.8" stroke="rgb(32,32,32)" stroke-linejoin="miter" stroke-linecap="square" stroke-miterlimit="3"/><line x1="29.674" y1="55.395" x2="31.117" y2="55.79" vector-effect="non-scaling-stroke" stroke-width="0.8" stroke="rgb(32,32,32)" stroke-linejoin="miter" stroke-linecap="square" stroke-miterlimit="3"/><line x1="90.326" y1="55.395" x2="88.883" y2="55.79" vector-effect="non-scaling-stroke" stroke-width="0.8" stroke="rgb(32,32,32)" stroke-linejoin="miter" stroke-linecap="square" stroke-miterlimit="3"/><line x1="60.002" y1="32.5" x2="60.002" y2="33.995" vector-effect="non-scaling-stroke" stroke-width="0.8" stroke="rgb(32,32,32)" stroke-linejoin="miter" stroke-linecap="square" stroke-miterlimit="3"/><line x1="40.828" y1="39.002" x2="41.735" y2="40.19" vector-effect="non-scaling-stroke" stroke-width="0.8" stroke="rgb(32,32,32)" stroke-linejoin="miter" stroke-linecap="square" stroke-miterlimit="3"/><line x1="79.172" y1="39.002" x2="78.265" y2="40.19" vector-effect="non-scaling-stroke" stroke-width="0.8" stroke="rgb(32,32,32)" stroke-linejoin="miter" stroke-linecap="square" stroke-miterlimit="3"/></g><path d=" M 168.5 264.5 L 168.5 259.605 C 168.5 258.917 168.993 258.098 169.601 257.776 L 182.899 250.724 C 183.507 250.402 184 249.583 184 248.895 L 184 244" fill="none" vector-effect="non-scaling-stroke" stroke-width="0.8" stroke-dasharray="0,0,0,0" stroke="rgb(32,32,32)" stroke-linejoin="miter" stroke-linecap="square" stroke-miterlimit="3"/><path d=" M 131.5 264.5 L 131.5 259.605 C 131.5 258.917 131.007 258.098 130.399 257.776 L 117.101 250.724 C 116.493 250.402 116 249.583 116 248.895 L 116 244" fill="none" vector-effect="non-scaling-stroke" stroke-width="0.8" stroke-dasharray="0,0,0,0" stroke="rgb(32,32,32)" stroke-linejoin="miter" stroke-linecap="square" stroke-miterlimit="3"/><path d=" M 205.5 264.5 L 205.5 260.217 C 205.5 259.192 206.31 258.166 207.308 257.928 L 238.192 250.572 C 239.19 250.334 240 249.308 240 248.283 L 240 244" fill="none" vector-effect="non-scaling-stroke" stroke-width="0.8" stroke-dasharray="0,0,0,0" stroke="rgb(32,32,32)" stroke-linejoin="miter" stroke-linecap="square" stroke-miterlimit="3"/><path d=" M 94.5 264.5 L 94.5 260.217 C 94.5 259.192 93.69 258.166 92.692 257.928 L 61.808 250.572 C 60.81 250.334 60 249.308 60 248.283 L 60 244" fill="none" vector-effect="non-scaling-stroke" stroke-width="0.8" stroke-dasharray="0,0,0,0" stroke="rgb(32,32,32)" stroke-linejoin="miter" stroke-linecap="square" stroke-miterlimit="3"/><path d="M 83.5 305.294 L 216.5 305.294 C 219.811 305.294 222.5 307.982 222.5 311.294 L 222.5 343.994 C 222.5 347.305 219.811 349.994 216.5 349.994 L 83.5 349.994 C 80.189 349.994 77.5 347.305 77.5 343.994 L 77.5 311.294 C 77.5 307.982 80.189 305.294 83.5 305.294 Z" style="stroke:none;fill:#4D9A4D;stroke-miterlimit:10;"/><path d=" M 137.497 313.083 L 137.478 314.129 C 137.47 314.607 137.076 314.994 136.598 314.995 L 132.345 314.998 C 131.868 314.999 131.48 314.612 131.48 314.134 L 131.48 310.764 C 131.48 310.287 131.092 309.899 130.615 309.9 L 126.497 309.905 C 125.945 309.905 125.5 310.354 125.503 310.906 L 125.511 312.001" fill="none" vector-effect="non-scaling-stroke" stroke-width="1" stroke="rgb(226,226,226)" stroke-linejoin="miter" stroke-linecap="square" stroke-miterlimit="3"/><path d=" M 211.497 313.083 L 211.478 314.129 C 211.47 314.607 211.076 314.994 210.598 314.995 L 206.345 314.998 C 205.868 314.999 205.48 314.612 205.48 314.134 L 205.48 310.764 C 205.48 310.287 205.092 309.899 204.615 309.9 L 200.497 309.905 C 199.945 309.905 199.5 310.354 199.503 310.906 L 199.511 312.001" fill="none" vector-effect="non-scaling-stroke" stroke-width="1" stroke="rgb(226,226,226)" stroke-linejoin="miter" stroke-linecap="square" stroke-miterlimit="3"/><path d=" M 66.695 314.884 L 67.884 314.884 L 65.694 309.984 L 64.573 309.984 L 62.39 314.884 L 63.552 314.884 L 63.985 313.834 L 66.261 313.834 L 66.695 314.884 Z  M 64.35 312.973 L 65.127 311.097 L 65.904 312.973 L 64.35 312.973 Z  M 51.455 314.884 L 50.357 313.309 C 50.994 313.036 51.365 312.497 51.365 311.762 C 51.365 310.663 50.545 309.984 49.237 309.984 L 47.115 309.984 L 47.115 314.884 L 48.249 314.884 L 48.249 313.519 L 49.237 313.519 L 49.293 313.519 L 50.238 314.884 L 51.455 314.884 Z  M 50.217 311.762 C 50.217 312.294 49.866 312.616 49.173 312.616 L 48.249 312.616 L 48.249 310.908 L 49.173 310.908 C 49.866 310.908 50.217 311.223 50.217 311.762 Z  M 53.871 314.968 C 55.27 314.968 55.949 314.268 55.949 313.449 C 55.949 311.65 53.101 312.273 53.101 311.37 C 53.101 311.062 53.359 310.81 54.031 310.81 C 54.466 310.81 54.934 310.936 55.39 311.195 L 55.74 310.334 C 55.284 310.047 54.655 309.9 54.038 309.9 C 52.645 309.9 51.974 310.593 51.974 311.426 C 51.974 313.246 54.823 312.616 54.823 313.533 C 54.823 313.834 54.55 314.058 53.878 314.058 C 53.289 314.058 52.673 313.848 52.26 313.547 L 51.876 314.401 C 52.309 314.737 53.094 314.968 53.871 314.968 Z  M 57.741 314.884 L 58.876 314.884 L 58.876 310.908 L 60.443 310.908 L 60.443 309.984 L 56.173 309.984 L 56.173 310.908 L 57.741 310.908 L 57.741 314.884 Z " fill-rule="evenodd" fill="rgb(32,32,32)"/><path d=" M 285.132 152.688 C 285.588 152.448 285.876 152.016 285.876 151.456 C 285.876 150.584 285.156 150 283.756 150 L 281.02 150 L 281.02 155.6 L 283.916 155.6 C 285.388 155.6 286.156 155.04 286.156 154.072 C 286.156 153.368 285.756 152.888 285.132 152.688 Z  M 283.596 150.976 C 284.228 150.976 284.572 151.192 284.572 151.632 C 284.572 152.072 284.228 152.296 283.596 152.296 L 282.308 152.296 L 282.308 150.976 L 283.596 150.976 Z  M 283.82 154.624 L 282.308 154.624 L 282.308 153.24 L 283.82 153.24 C 284.492 153.24 284.852 153.464 284.852 153.936 C 284.852 154.416 284.492 154.624 283.82 154.624 Z  M 270.236 151.04 L 270.236 150 L 266.004 150 L 266.004 155.6 L 267.3 155.6 L 267.3 153.56 L 269.892 153.56 L 269.892 152.52 L 267.3 152.52 L 267.3 151.04 L 270.236 151.04 Z  M 277.428 155.6 L 277.412 150 L 276.348 150 L 274.284 153.48 L 272.188 150 L 271.116 150 L 271.116 155.6 L 272.332 155.6 L 272.332 152.312 L 273.972 155.008 L 274.556 155.008 L 276.204 152.24 L 276.212 155.6 L 277.428 155.6 Z  M 249.82 155.6 L 253.924 155.6 L 253.924 154.544 L 251.116 154.544 L 251.116 150 L 249.82 150 L 249.82 155.6 Z  M 254.652 155.6 L 255.948 155.6 L 255.948 150 L 254.652 150 L 254.652 155.6 Z  M 261.132 150 L 261.132 153.4 L 258.348 150 L 257.276 150 L 257.276 155.6 L 258.556 155.6 L 258.556 152.2 L 261.348 155.6 L 262.412 155.6 L 262.412 150 L 261.132 150 Z " fill-rule="evenodd" fill="rgb(32,32,32)"/><path d=" M 176.812 246.001 C 172.733 243.553 170 239.086 170 233.987 C 170 226.26 176.273 219.987 184 219.987 C 191.727 219.987 198 226.26 198 233.987 C 198 239.086 195.267 243.553 191.188 246.001" fill="none" vector-effect="non-scaling-stroke" stroke-width="0.8" stroke="rgb(32,32,32)" stroke-linejoin="miter" stroke-linecap="square" stroke-miterlimit="3"/><path d=" M 52.812 246.001 C 48.733 243.553 46 239.086 46 233.987 C 46 226.26 52.273 219.987 60 219.987 C 67.727 219.987 74 226.26 74 233.987 C 74 239.086 71.267 243.553 67.188 246.001" fill="none" vector-effect="non-scaling-stroke" stroke-width="0.8" stroke="rgb(32,32,32)" stroke-linejoin="miter" stroke-linecap="square" stroke-miterlimit="3"/><path d=" M 232.812 246.001 C 228.733 243.553 226 239.086 226 233.987 C 226 226.26 232.273 219.987 240 219.987 C 247.727 219.987 254 226.26 254 233.987 C 254 239.086 251.267 243.553 247.188 246.001" fill="none" vector-effect="non-scaling-stroke" stroke-width="0.8" stroke="rgb(32,32,32)" stroke-linejoin="miter" stroke-linecap="square" stroke-miterlimit="3"/><path d=" M 108.812 246.001 C 104.733 243.553 102 239.086 102 233.987 C 102 226.26 108.273 219.987 116 219.987 C 123.727 219.987 130 226.26 130 233.987 C 130 239.086 127.267 243.553 123.188 246.001" fill="none" vector-effect="non-scaling-stroke" stroke-width="0.8" stroke="rgb(32,32,32)" stroke-linejoin="miter" stroke-linecap="square" stroke-miterlimit="3"/><path d=" M 224.598 89.744 C 215.856 84.499 210 74.928 210 64 C 210 47.443 223.443 34 240 34 C 256.557 34 270 47.443 270 64 C 270 74.928 264.144 84.499 255.402 89.744" fill="none" vector-effect="non-scaling-stroke" stroke-width="1" stroke="rgb(32,32,32)" stroke-linejoin="miter" stroke-linecap="square" stroke-miterlimit="3"/><path d=" M 45.892 101.692 C 47.652 101.692 48.956 100.468 48.956 98.796 C 48.956 97.124 47.652 95.9 45.892 95.9 C 44.124 95.9 42.828 97.132 42.828 98.796 C 42.828 100.46 44.124 101.692 45.892 101.692 Z  M 45.892 100.588 C 44.892 100.588 44.14 99.86 44.14 98.796 C 44.14 97.732 44.892 97.004 45.892 97.004 C 46.892 97.004 47.644 97.732 47.644 98.796 C 47.644 99.86 46.892 100.588 45.892 100.588 Z  M 52.612 101.692 C 53.588 101.692 54.396 101.34 54.924 100.692 L 54.092 99.924 C 53.716 100.364 53.244 100.588 52.684 100.588 C 51.636 100.588 50.892 99.852 50.892 98.796 C 50.892 97.74 51.636 97.004 52.684 97.004 C 53.244 97.004 53.716 97.228 54.092 97.66 L 54.924 96.892 C 54.396 96.252 53.588 95.9 52.62 95.9 C 50.876 95.9 49.58 97.108 49.58 98.796 C 49.58 100.484 50.876 101.692 52.612 101.692 Z  M 56.956 101.596 L 58.252 101.596 L 58.252 97.052 L 60.044 97.052 L 60.044 95.996 L 55.164 95.996 L 55.164 97.052 L 56.956 97.052 L 56.956 101.596 Z  M 64.924 101.596 L 66.284 101.596 L 63.78 95.996 L 62.5 95.996 L 60.004 101.596 L 61.332 101.596 L 61.828 100.396 L 64.428 100.396 L 64.924 101.596 Z  M 62.244 99.412 L 63.132 97.268 L 64.02 99.412 L 62.244 99.412 Z  M 70.964 95.996 L 69.236 99.996 L 67.532 95.996 L 66.132 95.996 L 68.548 101.596 L 69.828 101.596 L 72.252 95.996 L 70.964 95.996 Z  M 74.124 100.556 L 74.124 99.26 L 76.724 99.26 L 76.724 98.252 L 74.124 98.252 L 74.124 97.036 L 77.068 97.036 L 77.068 95.996 L 72.836 95.996 L 72.836 101.596 L 77.172 101.596 L 77.172 100.556 L 74.124 100.556 Z " fill-rule="evenodd" fill="rgb(32,32,32)"/><path d=" M 135.824 155.692 C 136.8 155.692 137.608 155.34 138.136 154.692 L 137.304 153.924 C 136.928 154.364 136.456 154.588 135.896 154.588 C 134.848 154.588 134.104 153.852 134.104 152.796 C 134.104 151.74 134.848 151.004 135.896 151.004 C 136.456 151.004 136.928 151.228 137.304 151.66 L 138.136 150.892 C 137.608 150.252 136.8 149.9 135.832 149.9 C 134.088 149.9 132.792 151.108 132.792 152.796 C 132.792 154.484 134.088 155.692 135.824 155.692 Z  M 141.72 155.692 C 143.48 155.692 144.784 154.468 144.784 152.796 C 144.784 151.124 143.48 149.9 141.72 149.9 C 139.952 149.9 138.656 151.132 138.656 152.796 C 138.656 154.46 139.952 155.692 141.72 155.692 Z  M 141.72 154.588 C 140.72 154.588 139.968 153.86 139.968 152.796 C 139.968 151.732 140.72 151.004 141.72 151.004 C 142.72 151.004 143.472 151.732 143.472 152.796 C 143.472 153.86 142.72 154.588 141.72 154.588 Z  M 149.944 155.596 L 151.304 155.596 L 148.8 149.996 L 147.52 149.996 L 145.024 155.596 L 146.352 155.596 L 146.848 154.396 L 149.448 154.396 L 149.944 155.596 Z  M 147.264 153.412 L 148.152 151.268 L 149.04 153.412 L 147.264 153.412 Z  M 156.848 155.596 L 155.592 153.796 C 156.32 153.484 156.744 152.868 156.744 152.028 C 156.744 150.772 155.808 149.996 154.312 149.996 L 151.888 149.996 L 151.888 155.596 L 153.184 155.596 L 153.184 154.036 L 154.312 154.036 L 154.376 154.036 L 155.456 155.596 L 156.848 155.596 Z  M 155.432 152.028 C 155.432 152.636 155.032 153.004 154.24 153.004 L 153.184 153.004 L 153.184 151.052 L 154.24 151.052 C 155.032 151.052 155.432 151.412 155.432 152.028 Z  M 159.608 155.692 C 161.208 155.692 161.984 154.892 161.984 153.956 C 161.984 151.9 158.728 152.612 158.728 151.58 C 158.728 151.228 159.024 150.94 159.792 150.94 C 160.288 150.94 160.824 151.084 161.344 151.38 L 161.744 150.396 C 161.224 150.068 160.504 149.9 159.8 149.9 C 158.208 149.9 157.44 150.692 157.44 151.644 C 157.44 153.724 160.696 153.004 160.696 154.052 C 160.696 154.396 160.384 154.652 159.616 154.652 C 158.944 154.652 158.24 154.412 157.768 154.068 L 157.328 155.044 C 157.824 155.428 158.72 155.692 159.608 155.692 Z  M 164.16 154.556 L 164.16 153.26 L 166.76 153.26 L 166.76 152.252 L 164.16 152.252 L 164.16 151.036 L 167.104 151.036 L 167.104 149.996 L 162.872 149.996 L 162.872 155.596 L 167.208 155.596 L 167.208 154.556 L 164.16 154.556 Z " fill-rule="evenodd" fill="rgb(32,32,32)"/><path d=" M 144.964 207.04 L 144.964 206 L 140.732 206 L 140.732 211.6 L 142.028 211.6 L 142.028 209.56 L 144.62 209.56 L 144.62 208.52 L 142.028 208.52 L 142.028 207.04 L 144.964 207.04 Z  M 145.844 211.6 L 147.14 211.6 L 147.14 206 L 145.844 206 L 145.844 211.6 Z  M 152.324 206 L 152.324 209.4 L 149.54 206 L 148.468 206 L 148.468 211.6 L 149.748 211.6 L 149.748 208.2 L 152.54 211.6 L 153.604 211.6 L 153.604 206 L 152.324 206 Z  M 156.22 210.56 L 156.22 209.264 L 158.82 209.264 L 158.82 208.256 L 156.22 208.256 L 156.22 207.04 L 159.164 207.04 L 159.164 206 L 154.932 206 L 154.932 211.6 L 159.268 211.6 L 159.268 210.56 L 156.22 210.56 Z " fill-rule="evenodd" fill="rgb(32,32,32)"/><path d=" M 255.84 98.684 C 256.296 98.444 256.584 98.012 256.584 97.452 C 256.584 96.58 255.864 95.996 254.464 95.996 L 251.728 95.996 L 251.728 101.596 L 254.624 101.596 C 256.096 101.596 256.864 101.036 256.864 100.068 C 256.864 99.364 256.464 98.884 255.84 98.684 Z  M 254.304 96.972 C 254.936 96.972 255.28 97.188 255.28 97.628 C 255.28 98.068 254.936 98.292 254.304 98.292 L 253.016 98.292 L 253.016 96.972 L 254.304 96.972 Z  M 254.528 100.62 L 253.016 100.62 L 253.016 99.236 L 254.528 99.236 C 255.2 99.236 255.56 99.46 255.56 99.932 C 255.56 100.412 255.2 100.62 254.528 100.62 Z  M 228.096 101.596 L 226.84 99.796 C 227.568 99.484 227.992 98.868 227.992 98.028 C 227.992 96.772 227.056 95.996 225.56 95.996 L 223.136 95.996 L 223.136 101.596 L 224.432 101.596 L 224.432 100.036 L 225.56 100.036 L 225.624 100.036 L 226.704 101.596 L 228.096 101.596 Z  M 226.68 98.028 C 226.68 98.636 226.28 99.004 225.488 99.004 L 224.432 99.004 L 224.432 97.052 L 225.488 97.052 C 226.28 97.052 226.68 97.412 226.68 98.028 Z  M 233.2 101.596 L 234.56 101.596 L 232.056 95.996 L 230.776 95.996 L 228.28 101.596 L 229.608 101.596 L 230.104 100.396 L 232.704 100.396 L 233.2 101.596 Z  M 230.52 99.412 L 231.408 97.268 L 232.296 99.412 L 230.52 99.412 Z  M 236.304 101.596 L 237.6 101.596 L 237.6 97.052 L 239.392 97.052 L 239.392 95.996 L 234.512 95.996 L 234.512 97.052 L 236.304 97.052 L 236.304 101.596 Z  M 240.088 101.596 L 241.384 101.596 L 241.384 95.996 L 240.088 95.996 L 240.088 101.596 Z  M 245.424 101.692 C 247.184 101.692 248.488 100.468 248.488 98.796 C 248.488 97.124 247.184 95.9 245.424 95.9 C 243.656 95.9 242.36 97.132 242.36 98.796 C 242.36 100.46 243.656 101.692 245.424 101.692 Z  M 245.424 100.588 C 244.424 100.588 243.672 99.86 243.672 98.796 C 243.672 97.732 244.424 97.004 245.424 97.004 C 246.424 97.004 247.176 97.732 247.176 98.796 C 247.176 99.86 246.424 100.588 245.424 100.588 Z " fill-rule="evenodd" fill="rgb(32,32,32)"/><path d=" M 50.52 155.6 L 51.88 155.6 L 49.376 150 L 48.096 150 L 45.6 155.6 L 46.928 155.6 L 47.424 154.4 L 50.024 154.4 L 50.52 155.6 Z  M 47.84 153.416 L 48.728 151.272 L 49.616 153.416 L 47.84 153.416 Z  M 35.552 151.04 L 35.552 150 L 31.32 150 L 31.32 155.6 L 32.616 155.6 L 32.616 153.56 L 35.208 153.56 L 35.208 152.52 L 32.616 152.52 L 32.616 151.04 L 35.552 151.04 Z  M 42.744 155.6 L 42.728 150 L 41.664 150 L 39.6 153.48 L 37.504 150 L 36.432 150 L 36.432 155.6 L 37.648 155.6 L 37.648 152.312 L 39.288 155.008 L 39.872 155.008 L 41.52 152.24 L 41.528 155.6 L 42.744 155.6 Z  M 13.408 154.56 L 13.408 153.264 L 16.008 153.264 L 16.008 152.256 L 13.408 152.256 L 13.408 151.04 L 16.352 151.04 L 16.352 150 L 12.12 150 L 12.12 155.6 L 16.456 155.6 L 16.456 154.56 L 13.408 154.56 Z  M 22.512 155.6 L 20.424 152.704 L 22.376 150 L 20.976 150 L 19.712 151.816 L 18.424 150 L 16.952 150 L 18.92 152.752 L 16.848 155.6 L 18.336 155.6 L 19.664 153.656 L 21.016 155.6 L 22.512 155.6 Z  M 25.624 150 L 23.2 150 L 23.2 155.6 L 24.496 155.6 L 24.496 154.056 L 25.624 154.056 C 27.12 154.056 28.056 153.28 28.056 152.032 C 28.056 150.776 27.12 150 25.624 150 Z  M 25.552 153 L 24.496 153 L 24.496 151.056 L 25.552 151.056 C 26.344 151.056 26.744 151.416 26.744 152.032 C 26.744 152.64 26.344 153 25.552 153 Z " fill-rule="evenodd" fill="rgb(32,32,32)"/><path d=" M 105.012 155.6 L 106.372 155.6 L 103.868 150 L 102.588 150 L 100.092 155.6 L 101.42 155.6 L 101.916 154.4 L 104.516 154.4 L 105.012 155.6 Z  M 102.332 153.416 L 103.22 151.272 L 104.108 153.416 L 102.332 153.416 Z  M 90.044 151.04 L 90.044 150 L 85.812 150 L 85.812 155.6 L 87.108 155.6 L 87.108 153.56 L 89.7 153.56 L 89.7 152.52 L 87.108 152.52 L 87.108 151.04 L 90.044 151.04 Z  M 97.236 155.6 L 97.22 150 L 96.156 150 L 94.092 153.48 L 91.996 150 L 90.924 150 L 90.924 155.6 L 92.14 155.6 L 92.14 152.312 L 93.78 155.008 L 94.364 155.008 L 96.012 152.24 L 96.02 155.6 L 97.236 155.6 Z  M 69.628 155.6 L 73.732 155.6 L 73.732 154.544 L 70.924 154.544 L 70.924 150 L 69.628 150 L 69.628 155.6 Z  M 74.46 155.6 L 75.756 155.6 L 75.756 150 L 74.46 150 L 74.46 155.6 Z  M 80.94 150 L 80.94 153.4 L 78.156 150 L 77.084 150 L 77.084 155.6 L 78.364 155.6 L 78.364 152.2 L 81.156 155.6 L 82.22 155.6 L 82.22 150 L 80.94 150 Z " fill-rule="evenodd" fill="rgb(32,32,32)"/><path d=" M 230.64 152.688 C 231.096 152.448 231.384 152.016 231.384 151.456 C 231.384 150.584 230.664 150 229.264 150 L 226.528 150 L 226.528 155.6 L 229.424 155.6 C 230.896 155.6 231.664 155.04 231.664 154.072 C 231.664 153.368 231.264 152.888 230.64 152.688 Z  M 229.104 150.976 C 229.736 150.976 230.08 151.192 230.08 151.632 C 230.08 152.072 229.736 152.296 229.104 152.296 L 227.816 152.296 L 227.816 150.976 L 229.104 150.976 Z  M 229.328 154.624 L 227.816 154.624 L 227.816 153.24 L 229.328 153.24 C 230 153.24 230.36 153.464 230.36 153.936 C 230.36 154.416 230 154.624 229.328 154.624 Z  M 215.744 151.04 L 215.744 150 L 211.512 150 L 211.512 155.6 L 212.808 155.6 L 212.808 153.56 L 215.4 153.56 L 215.4 152.52 L 212.808 152.52 L 212.808 151.04 L 215.744 151.04 Z  M 222.936 155.6 L 222.92 150 L 221.856 150 L 219.792 153.48 L 217.696 150 L 216.624 150 L 216.624 155.6 L 217.84 155.6 L 217.84 152.312 L 219.48 155.008 L 220.064 155.008 L 221.712 152.24 L 221.72 155.6 L 222.936 155.6 Z  M 193.6 154.56 L 193.6 153.264 L 196.2 153.264 L 196.2 152.256 L 193.6 152.256 L 193.6 151.04 L 196.544 151.04 L 196.544 150 L 192.312 150 L 192.312 155.6 L 196.648 155.6 L 196.648 154.56 L 193.6 154.56 Z  M 202.704 155.6 L 200.616 152.704 L 202.568 150 L 201.168 150 L 199.904 151.816 L 198.616 150 L 197.144 150 L 199.112 152.752 L 197.04 155.6 L 198.528 155.6 L 199.856 153.656 L 201.208 155.6 L 202.704 155.6 Z  M 205.816 150 L 203.392 150 L 203.392 155.6 L 204.688 155.6 L 204.688 154.056 L 205.816 154.056 C 207.312 154.056 208.248 153.28 208.248 152.032 C 208.248 150.776 207.312 150 205.816 150 Z  M 205.744 153 L 204.688 153 L 204.688 151.056 L 205.744 151.056 C 206.536 151.056 206.936 151.416 206.936 152.032 C 206.936 152.64 206.536 153 205.744 153 Z " fill-rule="evenodd" fill="rgb(32,32,32)"/><path d=" M 49.876 211.596 L 51.236 211.596 L 48.732 205.996 L 47.452 205.996 L 44.956 211.596 L 46.284 211.596 L 46.78 210.396 L 49.38 210.396 L 49.876 211.596 Z  M 47.196 209.412 L 48.084 207.268 L 48.972 209.412 L 47.196 209.412 Z  M 15.796 211.692 C 16.772 211.692 17.58 211.34 18.108 210.692 L 17.276 209.924 C 16.9 210.364 16.428 210.588 15.868 210.588 C 14.82 210.588 14.076 209.852 14.076 208.796 C 14.076 207.74 14.82 207.004 15.868 207.004 C 16.428 207.004 16.9 207.228 17.276 207.66 L 18.108 206.892 C 17.58 206.252 16.772 205.9 15.804 205.9 C 14.06 205.9 12.764 207.108 12.764 208.796 C 12.764 210.484 14.06 211.692 15.796 211.692 Z  M 22.82 205.996 L 22.82 208.204 L 20.276 208.204 L 20.276 205.996 L 18.98 205.996 L 18.98 211.596 L 20.276 211.596 L 20.276 209.3 L 22.82 209.3 L 22.82 211.596 L 24.116 211.596 L 24.116 205.996 L 22.82 205.996 Z  M 29.628 211.596 L 30.988 211.596 L 28.484 205.996 L 27.204 205.996 L 24.708 211.596 L 26.036 211.596 L 26.532 210.396 L 29.132 210.396 L 29.628 211.596 Z  M 26.948 209.412 L 27.836 207.268 L 28.724 209.412 L 26.948 209.412 Z  M 34.284 211.692 C 36.044 211.692 37.348 210.468 37.348 208.796 C 37.348 207.124 36.044 205.9 34.284 205.9 C 32.516 205.9 31.22 207.132 31.22 208.796 C 31.22 210.46 32.516 211.692 34.284 211.692 Z  M 34.284 210.588 C 33.284 210.588 32.532 209.86 32.532 208.796 C 32.532 207.732 33.284 207.004 34.284 207.004 C 35.284 207.004 36.036 207.732 36.036 208.796 C 36.036 209.86 35.284 210.588 34.284 210.588 Z  M 40.164 211.692 C 41.764 211.692 42.54 210.892 42.54 209.956 C 42.54 207.9 39.284 208.612 39.284 207.58 C 39.284 207.228 39.58 206.94 40.348 206.94 C 40.844 206.94 41.38 207.084 41.9 207.38 L 42.3 206.396 C 41.78 206.068 41.06 205.9 40.356 205.9 C 38.764 205.9 37.996 206.692 37.996 207.644 C 37.996 209.724 41.252 209.004 41.252 210.052 C 41.252 210.396 40.94 210.652 40.172 210.652 C 39.5 210.652 38.796 210.412 38.324 210.068 L 37.884 211.044 C 38.38 211.428 39.276 211.692 40.164 211.692 Z " fill-rule="evenodd" fill="rgb(32,32,32)"/><path d=" M 102.184 211.596 L 103.544 211.596 L 101.04 205.996 L 99.76 205.996 L 97.264 211.596 L 98.592 211.596 L 99.088 210.396 L 101.688 210.396 L 102.184 211.596 Z  M 99.504 209.412 L 100.392 207.268 L 101.28 209.412 L 99.504 209.412 Z  M 74.736 211.692 C 76.336 211.692 77.112 210.892 77.112 209.956 C 77.112 207.9 73.856 208.612 73.856 207.58 C 73.856 207.228 74.152 206.94 74.92 206.94 C 75.416 206.94 75.952 207.084 76.472 207.38 L 76.872 206.396 C 76.352 206.068 75.632 205.9 74.928 205.9 C 73.336 205.9 72.568 206.692 72.568 207.644 C 72.568 209.724 75.824 209.004 75.824 210.052 C 75.824 210.396 75.512 210.652 74.744 210.652 C 74.072 210.652 73.368 210.412 72.896 210.068 L 72.456 211.044 C 72.952 211.428 73.848 211.692 74.736 211.692 Z  M 82.864 205.996 L 81.592 205.996 L 80.096 208.484 L 78.6 205.996 L 77.224 205.996 L 79.392 209.596 L 79.392 211.596 L 80.688 211.596 L 80.688 209.612 L 82.864 205.996 Z  M 87.264 205.996 L 87.264 209.396 L 84.48 205.996 L 83.408 205.996 L 83.408 211.596 L 84.688 211.596 L 84.688 208.196 L 87.48 211.596 L 88.544 211.596 L 88.544 205.996 L 87.264 205.996 Z  M 92.552 211.692 C 93.528 211.692 94.336 211.34 94.864 210.692 L 94.032 209.924 C 93.656 210.364 93.184 210.588 92.624 210.588 C 91.576 210.588 90.832 209.852 90.832 208.796 C 90.832 207.74 91.576 207.004 92.624 207.004 C 93.184 207.004 93.656 207.228 94.032 207.66 L 94.864 206.892 C 94.336 206.252 93.528 205.9 92.56 205.9 C 90.816 205.9 89.52 207.108 89.52 208.796 C 89.52 210.484 90.816 211.692 92.552 211.692 Z " fill-rule="evenodd" fill="rgb(32,32,32)"/><path d=" M 230.008 208.684 C 230.464 208.444 230.752 208.012 230.752 207.452 C 230.752 206.58 230.032 205.996 228.632 205.996 L 225.896 205.996 L 225.896 211.596 L 228.792 211.596 C 230.264 211.596 231.032 211.036 231.032 210.068 C 231.032 209.364 230.632 208.884 230.008 208.684 Z  M 228.472 206.972 C 229.104 206.972 229.448 207.188 229.448 207.628 C 229.448 208.068 229.104 208.292 228.472 208.292 L 227.184 208.292 L 227.184 206.972 L 228.472 206.972 Z  M 228.696 210.62 L 227.184 210.62 L 227.184 209.236 L 228.696 209.236 C 229.368 209.236 229.728 209.46 229.728 209.932 C 229.728 210.412 229.368 210.62 228.696 210.62 Z  M 196 211.692 C 196.976 211.692 197.784 211.34 198.312 210.692 L 197.48 209.924 C 197.104 210.364 196.632 210.588 196.072 210.588 C 195.024 210.588 194.28 209.852 194.28 208.796 C 194.28 207.74 195.024 207.004 196.072 207.004 C 196.632 207.004 197.104 207.228 197.48 207.66 L 198.312 206.892 C 197.784 206.252 196.976 205.9 196.008 205.9 C 194.264 205.9 192.968 207.108 192.968 208.796 C 192.968 210.484 194.264 211.692 196 211.692 Z  M 203.024 205.996 L 203.024 208.204 L 200.48 208.204 L 200.48 205.996 L 199.184 205.996 L 199.184 211.596 L 200.48 211.596 L 200.48 209.3 L 203.024 209.3 L 203.024 211.596 L 204.32 211.596 L 204.32 205.996 L 203.024 205.996 Z  M 209.832 211.596 L 211.192 211.596 L 208.688 205.996 L 207.408 205.996 L 204.912 211.596 L 206.24 211.596 L 206.736 210.396 L 209.336 210.396 L 209.832 211.596 Z  M 207.152 209.412 L 208.04 207.268 L 208.928 209.412 L 207.152 209.412 Z  M 214.488 211.692 C 216.248 211.692 217.552 210.468 217.552 208.796 C 217.552 207.124 216.248 205.9 214.488 205.9 C 212.72 205.9 211.424 207.132 211.424 208.796 C 211.424 210.46 212.72 211.692 214.488 211.692 Z  M 214.488 210.588 C 213.488 210.588 212.736 209.86 212.736 208.796 C 212.736 207.732 213.488 207.004 214.488 207.004 C 215.488 207.004 216.24 207.732 216.24 208.796 C 216.24 209.86 215.488 210.588 214.488 210.588 Z  M 220.368 211.692 C 221.968 211.692 222.744 210.892 222.744 209.956 C 222.744 207.9 219.488 208.612 219.488 207.58 C 219.488 207.228 219.784 206.94 220.552 206.94 C 221.048 206.94 221.584 207.084 222.104 207.38 L 222.504 206.396 C 221.984 206.068 221.264 205.9 220.56 205.9 C 218.968 205.9 218.2 206.692 218.2 207.644 C 218.2 209.724 221.456 209.004 221.456 210.052 C 221.456 210.396 221.144 210.652 220.376 210.652 C 219.704 210.652 219 210.412 218.528 210.068 L 218.088 211.044 C 218.584 211.428 219.48 211.692 220.368 211.692 Z " fill-rule="evenodd" fill="rgb(32,32,32)"/><path d=" M 282.316 208.684 C 282.772 208.444 283.06 208.012 283.06 207.452 C 283.06 206.58 282.34 205.996 280.94 205.996 L 278.204 205.996 L 278.204 211.596 L 281.1 211.596 C 282.572 211.596 283.34 211.036 283.34 210.068 C 283.34 209.364 282.94 208.884 282.316 208.684 Z  M 280.78 206.972 C 281.412 206.972 281.756 207.188 281.756 207.628 C 281.756 208.068 281.412 208.292 280.78 208.292 L 279.492 208.292 L 279.492 206.972 L 280.78 206.972 Z  M 281.004 210.62 L 279.492 210.62 L 279.492 209.236 L 281.004 209.236 C 281.676 209.236 282.036 209.46 282.036 209.932 C 282.036 210.412 281.676 210.62 281.004 210.62 Z  M 254.94 211.692 C 256.54 211.692 257.316 210.892 257.316 209.956 C 257.316 207.9 254.06 208.612 254.06 207.58 C 254.06 207.228 254.356 206.94 255.124 206.94 C 255.62 206.94 256.156 207.084 256.676 207.38 L 257.076 206.396 C 256.556 206.068 255.836 205.9 255.132 205.9 C 253.54 205.9 252.772 206.692 252.772 207.644 C 252.772 209.724 256.028 209.004 256.028 210.052 C 256.028 210.396 255.716 210.652 254.948 210.652 C 254.276 210.652 253.572 210.412 253.1 210.068 L 252.66 211.044 C 253.156 211.428 254.052 211.692 254.94 211.692 Z  M 263.068 205.996 L 261.796 205.996 L 260.3 208.484 L 258.804 205.996 L 257.428 205.996 L 259.596 209.596 L 259.596 211.596 L 260.892 211.596 L 260.892 209.612 L 263.068 205.996 Z  M 267.468 205.996 L 267.468 209.396 L 264.684 205.996 L 263.612 205.996 L 263.612 211.596 L 264.892 211.596 L 264.892 208.196 L 267.684 211.596 L 268.748 211.596 L 268.748 205.996 L 267.468 205.996 Z  M 272.756 211.692 C 273.732 211.692 274.54 211.34 275.068 210.692 L 274.236 209.924 C 273.86 210.364 273.388 210.588 272.828 210.588 C 271.78 210.588 271.036 209.852 271.036 208.796 C 271.036 207.74 271.78 207.004 272.828 207.004 C 273.388 207.004 273.86 207.228 274.236 207.66 L 275.068 206.892 C 274.54 206.252 273.732 205.9 272.764 205.9 C 271.02 205.9 269.724 207.108 269.724 208.796 C 269.724 210.484 271.02 211.692 272.756 211.692 Z " fill-rule="evenodd" fill="rgb(32,32,32)"/><path d=" M 30.135 272.9 L 31.325 272.9 L 29.134 268 L 28.015 268 L 25.831 272.9 L 26.992 272.9 L 27.426 271.85 L 29.701 271.85 L 30.135 272.9 Z  M 27.79 270.989 L 28.568 269.113 L 29.345 270.989 L 27.79 270.989 Z  M 10.801 271.99 L 10.801 270.856 L 13.077 270.856 L 13.077 269.974 L 10.801 269.974 L 10.801 268.91 L 13.377 268.91 L 13.377 268 L 9.674 268 L 9.674 272.9 L 13.469 272.9 L 13.469 271.99 L 10.801 271.99 Z  M 18.767 272.9 L 16.94 270.366 L 18.648 268 L 17.423 268 L 16.318 269.589 L 15.19 268 L 13.903 268 L 15.624 270.408 L 13.811 272.9 L 15.113 272.9 L 16.275 271.199 L 17.458 272.9 L 18.767 272.9 Z  M 21.491 268 L 19.37 268 L 19.37 272.9 L 20.503 272.9 L 20.503 271.549 L 21.491 271.549 C 22.8 271.549 23.618 270.87 23.618 269.778 C 23.618 268.679 22.8 268 21.491 268 Z  M 21.427 270.625 L 20.503 270.625 L 20.503 268.924 L 21.427 268.924 C 22.12 268.924 22.471 269.239 22.471 269.778 C 22.471 270.31 22.12 270.625 21.427 270.625 Z " fill-rule="evenodd" fill="rgb(32,32,32)"/><path d=" M 65.816 272.9 L 67.006 272.9 L 64.815 268 L 63.695 268 L 61.511 272.9 L 62.673 272.9 L 63.107 271.85 L 65.382 271.85 L 65.816 272.9 Z  M 63.471 270.989 L 64.248 269.113 L 65.025 270.989 L 63.471 270.989 Z  M 47.994 272.9 L 51.585 272.9 L 51.585 271.976 L 49.128 271.976 L 49.128 268 L 47.994 268 L 47.994 272.9 Z  M 52.222 272.9 L 53.356 272.9 L 53.356 268 L 52.222 268 L 52.222 272.9 Z  M 57.892 268 L 57.892 270.975 L 55.456 268 L 54.518 268 L 54.518 272.9 L 55.638 272.9 L 55.638 269.925 L 58.081 272.9 L 59.012 272.9 L 59.012 268 L 57.892 268 Z " fill-rule="evenodd" fill="rgb(32,32,32)"/><path d=" M 104.506 272.884 L 105.697 272.884 L 103.505 267.984 L 102.385 267.984 L 100.201 272.884 L 101.364 272.884 L 101.797 271.834 L 104.073 271.834 L 104.506 272.884 Z  M 102.161 270.973 L 102.938 269.097 L 103.715 270.973 L 102.161 270.973 Z  M 85.957 272.968 C 86.81 272.968 87.518 272.66 87.979 272.093 L 87.252 271.421 C 86.922 271.806 86.509 272.002 86.019 272.002 C 85.102 272.002 84.451 271.358 84.451 270.434 C 84.451 269.51 85.102 268.866 86.019 268.866 C 86.509 268.866 86.922 269.062 87.252 269.44 L 87.979 268.768 C 87.518 268.208 86.81 267.9 85.963 267.9 C 84.437 267.9 83.304 268.957 83.304 270.434 C 83.304 271.911 84.437 272.968 85.957 272.968 Z  M 92.102 267.984 L 92.102 269.916 L 89.877 269.916 L 89.877 267.984 L 88.742 267.984 L 88.742 272.884 L 89.877 272.884 L 89.877 270.875 L 92.102 270.875 L 92.102 272.884 L 93.237 272.884 L 93.237 267.984 L 92.102 267.984 Z  M 96.008 272.968 C 97.408 272.968 98.087 272.268 98.087 271.449 C 98.087 269.65 95.239 270.273 95.239 269.37 C 95.239 269.062 95.498 268.81 96.17 268.81 C 96.603 268.81 97.073 268.936 97.528 269.195 L 97.878 268.334 C 97.422 268.047 96.793 267.9 96.176 267.9 C 94.783 267.9 94.112 268.593 94.112 269.426 C 94.112 271.246 96.961 270.616 96.961 271.533 C 96.961 271.834 96.687 272.058 96.016 272.058 C 95.428 272.058 94.811 271.848 94.398 271.547 L 94.014 272.401 C 94.448 272.737 95.231 272.968 96.008 272.968 Z " fill-rule="evenodd" fill="rgb(32,32,32)"/><path d=" M 141.545 272.884 L 142.735 272.884 L 140.544 267.984 L 139.424 267.984 L 137.24 272.884 L 138.402 272.884 L 138.836 271.834 L 141.111 271.834 L 141.545 272.884 Z  M 139.2 270.973 L 139.977 269.097 L 140.754 270.973 L 139.2 270.973 Z  M 122.26 272.968 C 123.66 272.968 124.339 272.268 124.339 271.449 C 124.339 269.65 121.49 270.273 121.49 269.37 C 121.49 269.062 121.749 268.81 122.421 268.81 C 122.855 268.81 123.324 268.936 123.779 269.195 L 124.129 268.334 C 123.674 268.047 123.044 267.9 122.428 267.9 C 121.035 267.9 120.363 268.593 120.363 269.426 C 120.363 271.246 123.212 270.616 123.212 271.533 C 123.212 271.834 122.939 272.058 122.267 272.058 C 121.679 272.058 121.063 271.848 120.65 271.547 L 120.265 272.401 C 120.699 272.737 121.483 272.968 122.26 272.968 Z  M 128.49 267.984 L 128.49 270.959 L 126.054 267.984 L 125.116 267.984 L 125.116 272.884 L 126.236 272.884 L 126.236 269.909 L 128.679 272.884 L 129.61 272.884 L 129.61 267.984 L 128.49 267.984 Z  M 133.117 272.968 C 133.971 272.968 134.678 272.66 135.14 272.093 L 134.412 271.421 C 134.083 271.806 133.67 272.002 133.18 272.002 C 132.263 272.002 131.612 271.358 131.612 270.434 C 131.612 269.51 132.263 268.866 133.18 268.866 C 133.67 268.866 134.083 269.062 134.412 269.44 L 135.14 268.768 C 134.678 268.208 133.971 267.9 133.124 267.9 C 131.598 267.9 130.464 268.957 130.464 270.434 C 130.464 271.911 131.598 272.968 133.117 272.968 Z " fill-rule="evenodd" fill="rgb(32,32,32)"/><path d=" M 178.622 270.336 C 179.021 270.126 179.273 269.748 179.273 269.258 C 179.273 268.495 178.643 267.984 177.418 267.984 L 175.024 267.984 L 175.024 272.884 L 177.558 272.884 C 178.846 272.884 179.518 272.394 179.518 271.547 C 179.518 270.931 179.168 270.511 178.622 270.336 Z  M 177.278 268.838 C 177.831 268.838 178.132 269.027 178.132 269.412 C 178.132 269.797 177.831 269.993 177.278 269.993 L 176.151 269.993 L 176.151 268.838 L 177.278 268.838 Z  M 177.474 272.03 L 176.151 272.03 L 176.151 270.819 L 177.474 270.819 C 178.062 270.819 178.377 271.015 178.377 271.428 C 178.377 271.848 178.062 272.03 177.474 272.03 Z  M 160.135 272.968 C 160.989 272.968 161.696 272.66 162.158 272.093 L 161.43 271.421 C 161.101 271.806 160.688 272.002 160.198 272.002 C 159.281 272.002 158.63 271.358 158.63 270.434 C 158.63 269.51 159.281 268.866 160.198 268.866 C 160.688 268.866 161.101 269.062 161.43 269.44 L 162.158 268.768 C 161.696 268.208 160.989 267.9 160.142 267.9 C 158.616 267.9 157.482 268.957 157.482 270.434 C 157.482 271.911 158.616 272.968 160.135 272.968 Z  M 166.281 267.984 L 166.281 269.916 L 164.055 269.916 L 164.055 267.984 L 162.921 267.984 L 162.921 272.884 L 164.055 272.884 L 164.055 270.875 L 166.281 270.875 L 166.281 272.884 L 167.415 272.884 L 167.415 267.984 L 166.281 267.984 Z  M 170.187 272.968 C 171.587 272.968 172.266 272.268 172.266 271.449 C 172.266 269.65 169.417 270.273 169.417 269.37 C 169.417 269.062 169.676 268.81 170.348 268.81 C 170.782 268.81 171.251 268.936 171.706 269.195 L 172.056 268.334 C 171.601 268.047 170.971 267.9 170.355 267.9 C 168.962 267.9 168.29 268.593 168.29 269.426 C 168.29 271.246 171.139 270.616 171.139 271.533 C 171.139 271.834 170.866 272.058 170.194 272.058 C 169.606 272.058 168.99 271.848 168.577 271.547 L 168.192 272.401 C 168.626 272.737 169.41 272.968 170.187 272.968 Z " fill-rule="evenodd" fill="rgb(32,32,32)"/><path d=" M 215.66 270.336 C 216.059 270.126 216.311 269.748 216.311 269.258 C 216.311 268.495 215.681 267.984 214.457 267.984 L 212.063 267.984 L 212.063 272.884 L 214.597 272.884 C 215.884 272.884 216.556 272.394 216.556 271.547 C 216.556 270.931 216.207 270.511 215.66 270.336 Z  M 214.317 268.838 C 214.869 268.838 215.171 269.027 215.171 269.412 C 215.171 269.797 214.869 269.993 214.317 269.993 L 213.19 269.993 L 213.19 268.838 L 214.317 268.838 Z  M 214.513 272.03 L 213.19 272.03 L 213.19 270.819 L 214.513 270.819 C 215.1 270.819 215.416 271.015 215.416 271.428 C 215.416 271.848 215.1 272.03 214.513 272.03 Z  M 196.438 272.968 C 197.839 272.968 198.518 272.268 198.518 271.449 C 198.518 269.65 195.669 270.273 195.669 269.37 C 195.669 269.062 195.927 268.81 196.6 268.81 C 197.033 268.81 197.503 268.936 197.957 269.195 L 198.307 268.334 C 197.852 268.047 197.222 267.9 196.606 267.9 C 195.214 267.9 194.541 268.593 194.541 269.426 C 194.541 271.246 197.39 270.616 197.39 271.533 C 197.39 271.834 197.117 272.058 196.446 272.058 C 195.858 272.058 195.242 271.848 194.828 271.547 L 194.444 272.401 C 194.878 272.737 195.662 272.968 196.438 272.968 Z  M 202.669 267.984 L 202.669 270.959 L 200.233 267.984 L 199.294 267.984 L 199.294 272.884 L 200.414 272.884 L 200.414 269.909 L 202.858 272.884 L 203.789 272.884 L 203.789 267.984 L 202.669 267.984 Z  M 207.296 272.968 C 208.149 272.968 208.856 272.66 209.319 272.093 L 208.591 271.421 C 208.261 271.806 207.849 272.002 207.358 272.002 C 206.442 272.002 205.791 271.358 205.791 270.434 C 205.791 269.51 206.442 268.866 207.358 268.866 C 207.849 268.866 208.261 269.062 208.591 269.44 L 209.319 268.768 C 208.856 268.208 208.149 267.9 207.302 267.9 C 205.776 267.9 204.643 268.957 204.643 270.434 C 204.643 271.911 205.776 272.968 207.296 272.968 Z " fill-rule="evenodd" fill="rgb(32,32,32)"/><path d=" M 252.251 270.352 C 252.65 270.142 252.902 269.764 252.902 269.274 C 252.902 268.511 252.272 268 251.047 268 L 248.653 268 L 248.653 272.9 L 251.187 272.9 C 252.475 272.9 253.147 272.41 253.147 271.563 C 253.147 270.947 252.797 270.527 252.251 270.352 Z  M 250.907 268.854 C 251.46 268.854 251.761 269.043 251.761 269.428 C 251.761 269.813 251.46 270.009 250.907 270.009 L 249.78 270.009 L 249.78 268.854 L 250.907 268.854 Z  M 251.103 272.046 L 249.78 272.046 L 249.78 270.835 L 251.103 270.835 C 251.691 270.835 252.006 271.031 252.006 271.444 C 252.006 271.864 251.691 272.046 251.103 272.046 Z  M 232.98 271.99 L 232.98 270.856 L 235.255 270.856 L 235.255 269.974 L 232.98 269.974 L 232.98 268.91 L 235.556 268.91 L 235.556 268 L 231.853 268 L 231.853 272.9 L 235.647 272.9 L 235.647 271.99 L 232.98 271.99 Z  M 240.946 272.9 L 239.119 270.366 L 240.827 268 L 239.602 268 L 238.496 269.589 L 237.369 268 L 236.081 268 L 237.803 270.408 L 235.99 272.9 L 237.292 272.9 L 238.454 271.199 L 239.637 272.9 L 240.946 272.9 Z  M 243.669 268 L 241.548 268 L 241.548 272.9 L 242.682 272.9 L 242.682 271.549 L 243.669 271.549 C 244.978 271.549 245.797 270.87 245.797 269.778 C 245.797 268.679 244.978 268 243.669 268 Z  M 243.606 270.625 L 242.682 270.625 L 242.682 268.924 L 243.606 268.924 C 244.299 268.924 244.649 269.239 244.649 269.778 C 244.649 270.31 244.299 270.625 243.606 270.625 Z " fill-rule="evenodd" fill="rgb(32,32,32)"/><path d=" M 287.931 270.352 C 288.331 270.142 288.582 269.764 288.582 269.274 C 288.582 268.511 287.952 268 286.727 268 L 284.334 268 L 284.334 272.9 L 286.868 272.9 C 288.155 272.9 288.827 272.41 288.827 271.563 C 288.827 270.947 288.477 270.527 287.931 270.352 Z  M 286.588 268.854 C 287.141 268.854 287.442 269.043 287.442 269.428 C 287.442 269.813 287.141 270.009 286.588 270.009 L 285.46 270.009 L 285.46 268.854 L 286.588 268.854 Z  M 286.783 272.046 L 285.46 272.046 L 285.46 270.835 L 286.783 270.835 C 287.371 270.835 287.687 271.031 287.687 271.444 C 287.687 271.864 287.371 272.046 286.783 272.046 Z  M 270.172 272.9 L 273.763 272.9 L 273.763 271.976 L 271.306 271.976 L 271.306 268 L 270.172 268 L 270.172 272.9 Z  M 274.4 272.9 L 275.534 272.9 L 275.534 268 L 274.4 268 L 274.4 272.9 Z  M 280.071 268 L 280.071 270.975 L 277.634 268 L 276.697 268 L 276.697 272.9 L 277.817 272.9 L 277.817 269.925 L 280.259 272.9 L 281.19 272.9 L 281.19 268 L 280.071 268 Z " fill-rule="evenodd" fill="rgb(32,32,32)"/><path d=" M 29.985 315.031 L 31.175 315.031 L 28.984 310.131 L 27.864 310.131 L 25.68 315.031 L 26.842 315.031 L 27.276 313.981 L 29.551 313.981 L 29.985 315.031 Z  M 27.64 313.12 L 28.417 311.244 L 29.194 313.12 L 27.64 313.12 Z  M 14.053 310.131 L 12.541 313.631 L 11.05 310.131 L 9.825 310.131 L 11.939 315.031 L 13.059 315.031 L 15.18 310.131 L 14.053 310.131 Z  M 14.879 315.731 L 15.852 315.731 L 18.162 309.137 L 17.189 309.137 L 14.879 315.731 Z  M 20.808 315.115 C 22.348 315.115 23.489 314.044 23.489 312.581 C 23.489 311.118 22.348 310.047 20.808 310.047 C 19.261 310.047 18.127 311.125 18.127 312.581 C 18.127 314.037 19.261 315.115 20.808 315.115 Z  M 20.808 314.149 C 19.933 314.149 19.275 313.512 19.275 312.581 C 19.275 311.65 19.933 311.013 20.808 311.013 C 21.683 311.013 22.341 311.65 22.341 312.581 C 22.341 313.512 21.683 314.149 20.808 314.149 Z " fill-rule="evenodd" fill="rgb(32,32,32)"/><path d=" M 252.1 312.446 C 252.499 312.236 252.751 311.858 252.751 311.368 C 252.751 310.605 252.122 310.094 250.897 310.094 L 248.503 310.094 L 248.503 314.994 L 251.036 314.994 C 252.324 314.994 252.997 314.504 252.997 313.657 C 252.997 313.041 252.647 312.621 252.1 312.446 Z  M 250.757 310.948 C 251.309 310.948 251.611 311.137 251.611 311.522 C 251.611 311.907 251.309 312.103 250.757 312.103 L 249.63 312.103 L 249.63 310.948 L 250.757 310.948 Z  M 250.953 314.14 L 249.63 314.14 L 249.63 312.929 L 250.953 312.929 C 251.54 312.929 251.856 313.125 251.856 313.538 C 251.856 313.958 251.54 314.14 250.953 314.14 Z  M 236.232 310.094 L 234.719 313.594 L 233.229 310.094 L 232.003 310.094 L 234.117 314.994 L 235.238 314.994 L 237.359 310.094 L 236.232 310.094 Z  M 237.057 315.694 L 238.031 315.694 L 240.341 309.1 L 239.367 309.1 L 237.057 315.694 Z  M 242.986 315.078 C 244.527 315.078 245.667 314.007 245.667 312.544 C 245.667 311.081 244.527 310.01 242.986 310.01 C 241.439 310.01 240.305 311.088 240.305 312.544 C 240.305 314 241.439 315.078 242.986 315.078 Z  M 242.986 314.112 C 242.111 314.112 241.454 313.475 241.454 312.544 C 241.454 311.613 242.111 310.976 242.986 310.976 C 243.861 310.976 244.52 311.613 244.52 312.544 C 244.52 313.475 243.861 314.112 242.986 314.112 Z " fill-rule="evenodd" fill="rgb(32,32,32)"/><path d=" M 288.81 312.299 C 289.209 312.089 289.461 311.711 289.461 311.221 C 289.461 310.458 288.831 309.947 287.606 309.947 L 285.212 309.947 L 285.212 314.847 L 287.746 314.847 C 289.034 314.847 289.706 314.357 289.706 313.51 C 289.706 312.894 289.356 312.474 288.81 312.299 Z  M 287.466 310.801 C 288.019 310.801 288.32 310.99 288.32 311.375 C 288.32 311.76 288.019 311.956 287.466 311.956 L 286.339 311.956 L 286.339 310.801 L 287.466 310.801 Z  M 287.662 313.993 L 286.339 313.993 L 286.339 312.782 L 287.662 312.782 C 288.25 312.782 288.565 312.978 288.565 313.391 C 288.565 313.811 288.25 313.993 287.662 313.993 Z  M 273.634 314.847 L 272.535 313.272 C 273.172 312.999 273.543 312.46 273.543 311.725 C 273.543 310.626 272.724 309.947 271.415 309.947 L 269.294 309.947 L 269.294 314.847 L 270.428 314.847 L 270.428 313.482 L 271.415 313.482 L 271.471 313.482 L 272.416 314.847 L 273.634 314.847 Z  M 272.395 311.725 C 272.395 312.257 272.045 312.579 271.352 312.579 L 270.428 312.579 L 270.428 310.871 L 271.352 310.871 C 272.045 310.871 272.395 311.186 272.395 311.725 Z  M 276.049 314.931 C 277.449 314.931 278.128 314.231 278.128 313.412 C 278.128 311.613 275.279 312.236 275.279 311.333 C 275.279 311.025 275.538 310.773 276.21 310.773 C 276.644 310.773 277.113 310.899 277.568 311.158 L 277.918 310.297 C 277.463 310.01 276.833 309.863 276.217 309.863 C 274.824 309.863 274.152 310.556 274.152 311.389 C 274.152 313.209 277.001 312.579 277.001 313.496 C 277.001 313.797 276.728 314.021 276.056 314.021 C 275.468 314.021 274.852 313.811 274.439 313.51 L 274.054 314.364 C 274.488 314.7 275.272 314.931 276.049 314.931 Z  M 279.92 314.847 L 281.054 314.847 L 281.054 310.871 L 282.622 310.871 L 282.622 309.947 L 278.352 309.947 L 278.352 310.871 L 279.92 310.871 L 279.92 314.847 Z " fill-rule="evenodd" fill="rgb(32,32,32)"/><path d=" M 88.5 312.179 L 90.796 310.208 C 91.185 309.874 91.5 310.019 91.5 310.531 L 91.5 314.511 C 91.5 315.023 91.794 315.144 92.155 314.782 L 96.845 310.086 C 97.206 309.724 97.5 309.845 97.5 310.357 L 97.5 314.396 C 97.5 314.971 97.854 315.133 98.29 314.758 L 100.5 312.854" fill="none" vector-effect="non-scaling-stroke" stroke-width="1" stroke="rgb(226,226,226)" stroke-linejoin="miter" stroke-linecap="square" stroke-miterlimit="3"/><path d=" M 162.5 312.179 L 164.796 310.208 C 165.185 309.874 165.5 310.019 165.5 310.531 L 165.5 314.511 C 165.5 315.023 165.794 315.144 166.155 314.782 L 170.845 310.086 C 171.206 309.724 171.5 309.845 171.5 310.357 L 171.5 314.396 C 171.5 314.971 171.854 315.133 172.29 314.758 L 174.5 312.854" fill="none" vector-effect="non-scaling-stroke" stroke-width="1" stroke="rgb(226,226,226)" stroke-linejoin="miter" stroke-linecap="square" stroke-miterlimit="3"/><path d=" M 114.555 322.9 L 115.745 322.9 L 113.554 318 L 112.434 318 L 110.25 322.9 L 111.412 322.9 L 111.846 321.85 L 114.121 321.85 L 114.555 322.9 Z  M 112.21 320.989 L 112.987 319.113 L 113.764 320.989 L 112.21 320.989 Z " fill-rule="evenodd" fill="rgb(228,228,228)"/><path d=" M 188.348 320.352 C 188.747 320.142 188.999 319.764 188.999 319.274 C 188.999 318.511 188.369 318 187.144 318 L 184.75 318 L 184.75 322.9 L 187.284 322.9 C 188.572 322.9 189.244 322.41 189.244 321.563 C 189.244 320.947 188.894 320.527 188.348 320.352 Z  M 187.004 318.854 C 187.557 318.854 187.858 319.043 187.858 319.428 C 187.858 319.813 187.557 320.009 187.004 320.009 L 185.877 320.009 L 185.877 318.854 L 187.004 318.854 Z  M 187.2 322.046 L 185.877 322.046 L 185.877 320.835 L 187.2 320.835 C 187.788 320.835 188.103 321.031 188.103 321.444 C 188.103 321.864 187.788 322.046 187.2 322.046 Z " fill-rule="evenodd" fill="rgb(228,228,228)"/><g><line x1="138.915" y1="147.124" x2="139.677" y2="145.836" vector-effect="non-scaling-stroke" stroke-width="0.8" stroke="rgb(32,32,32)" stroke-linejoin="miter" stroke-linecap="square" stroke-miterlimit="3"/><line x1="161.085" y1="147.124" x2="160.323" y2="145.836" vector-effect="non-scaling-stroke" stroke-width="0.8" stroke="rgb(32,32,32)" stroke-linejoin="miter" stroke-linecap="square" stroke-miterlimit="3"/><line x1="133.101" y1="141.976" x2="134.278" y2="141.054" vector-effect="non-scaling-stroke" stroke-width="0.8" stroke="rgb(32,32,32)" stroke-linejoin="miter" stroke-linecap="square" stroke-miterlimit="3"/><line x1="166.899" y1="141.976" x2="165.722" y2="141.054" vector-effect="non-scaling-stroke" stroke-width="0.8" stroke="rgb(32,32,32)" stroke-linejoin="miter" stroke-linecap="square" stroke-miterlimit="3"/><line x1="129.437" y1="135.01" x2="130.869" y2="134.58" vector-effect="non-scaling-stroke" stroke-width="0.8" stroke="rgb(32,32,32)" stroke-linejoin="miter" stroke-linecap="square" stroke-miterlimit="3"/><line x1="170.563" y1="135.01" x2="169.131" y2="134.58" vector-effect="non-scaling-stroke" stroke-width="0.8" stroke="rgb(32,32,32)" stroke-linejoin="miter" stroke-linecap="square" stroke-miterlimit="3"/><line x1="128.6" y1="126.853" x2="130.091" y2="126.974" vector-effect="non-scaling-stroke" stroke-width="0.8" stroke="rgb(32,32,32)" stroke-linejoin="miter" stroke-linecap="square" stroke-miterlimit="3"/><line x1="171.4" y1="126.853" x2="169.909" y2="126.974" vector-effect="non-scaling-stroke" stroke-width="0.8" stroke="rgb(32,32,32)" stroke-linejoin="miter" stroke-linecap="square" stroke-miterlimit="3"/><line x1="130.748" y1="119.13" x2="132.093" y2="119.784" vector-effect="non-scaling-stroke" stroke-width="0.8" stroke="rgb(32,32,32)" stroke-linejoin="miter" stroke-linecap="square" stroke-miterlimit="3"/><line x1="169.252" y1="119.13" x2="167.907" y2="119.784" vector-effect="non-scaling-stroke" stroke-width="0.8" stroke="rgb(32,32,32)" stroke-linejoin="miter" stroke-linecap="square" stroke-miterlimit="3"/><line x1="135.433" y1="112.854" x2="136.447" y2="113.953" vector-effect="non-scaling-stroke" stroke-width="0.8" stroke="rgb(32,32,32)" stroke-linejoin="miter" stroke-linecap="square" stroke-miterlimit="3"/><line x1="164.567" y1="112.854" x2="163.553" y2="113.953" vector-effect="non-scaling-stroke" stroke-width="0.8" stroke="rgb(32,32,32)" stroke-linejoin="miter" stroke-linecap="square" stroke-miterlimit="3"/><line x1="142.063" y1="108.678" x2="142.608" y2="110.071" vector-effect="non-scaling-stroke" stroke-width="0.8" stroke="rgb(32,32,32)" stroke-linejoin="miter" stroke-linecap="square" stroke-miterlimit="3"/><line x1="157.937" y1="108.678" x2="157.392" y2="110.071" vector-effect="non-scaling-stroke" stroke-width="0.8" stroke="rgb(32,32,32)" stroke-linejoin="miter" stroke-linecap="square" stroke-miterlimit="3"/><line x1="149.859" y1="108.674" x2="149.859" y2="107.178" vector-effect="non-scaling-stroke" stroke-width="0.8" stroke="rgb(32,32,32)" stroke-linejoin="miter" stroke-linecap="square" stroke-miterlimit="3"/></g><path d=" M 150.16 26.21 L 150.16 23.95 L 153.67 23.95 L 153.67 23.1 L 150.16 23.1 L 150.16 20.95 L 154.1 20.95 L 154.1 20.08 L 149.16 20.08 L 149.16 27.08 L 154.24 27.08 L 154.24 26.21 L 150.16 26.21 Z  M 160.88 20.08 L 160.88 25.3 L 156.68 20.08 L 155.86 20.08 L 155.86 27.08 L 156.86 27.08 L 156.86 21.86 L 161.06 27.08 L 161.88 27.08 L 161.88 20.08 L 160.88 20.08 Z  M 165.37 27.08 L 166.36 27.08 L 166.36 20.95 L 168.76 20.95 L 168.76 20.08 L 162.97 20.08 L 162.97 20.95 L 165.37 20.95 L 165.37 27.08 Z  M 175.08 27.08 L 176.13 27.08 L 172.95 20.08 L 171.96 20.08 L 168.79 27.08 L 169.82 27.08 L 170.59 25.33 L 174.31 25.33 L 175.08 27.08 Z  M 170.94 24.53 L 172.45 21.1 L 173.96 24.53 L 170.94 24.53 Z  M 182.19 20.08 L 182.19 25.3 L 177.99 20.08 L 177.17 20.08 L 177.17 27.08 L 178.17 27.08 L 178.17 21.86 L 182.37 27.08 L 183.19 27.08 L 183.19 20.08 L 182.19 20.08 Z  M 190.14 25.82 C 189.64 26.14 189.09 26.27 188.5 26.27 C 186.89 26.27 185.72 25.12 185.72 23.58 C 185.72 22.02 186.89 20.89 188.51 20.89 C 189.3 20.89 189.96 21.14 190.54 21.7 L 191.16 21.08 C 190.52 20.37 189.58 20 188.47 20 C 186.3 20 184.72 21.51 184.72 23.58 C 184.72 25.65 186.3 27.16 188.45 27.16 C 189.43 27.16 190.4 26.86 191.1 26.27 L 191.1 23.54 L 190.14 23.54 L 190.14 25.82 Z  M 193.01 27.08 L 197.8 27.08 L 197.8 26.21 L 194.01 26.21 L 194.01 20.08 L 193.01 20.08 L 193.01 27.08 Z  M 199.95 26.21 L 199.95 23.95 L 203.46 23.95 L 203.46 23.1 L 199.95 23.1 L 199.95 20.95 L 203.89 20.95 L 203.89 20.08 L 198.95 20.08 L 198.95 27.08 L 204.03 27.08 L 204.03 26.21 L 199.95 26.21 Z  M 211.42 27.08 L 209.76 24.73 C 210.74 24.38 211.3 23.6 211.3 22.52 C 211.3 21 210.2 20.08 208.38 20.08 L 205.65 20.08 L 205.65 27.08 L 206.65 27.08 L 206.65 24.95 L 208.38 24.95 C 208.53 24.95 208.68 24.94 208.82 24.93 L 210.33 27.08 L 211.42 27.08 Z  M 208.35 24.1 L 206.65 24.1 L 206.65 20.95 L 208.35 20.95 C 209.63 20.95 210.3 21.52 210.3 22.52 C 210.3 23.52 209.63 24.1 208.35 24.1 Z  M 90.95 27.08 L 91.94 27.08 L 91.94 20.95 L 94.34 20.95 L 94.34 20.08 L 88.55 20.08 L 88.55 20.95 L 90.95 20.95 L 90.95 27.08 Z  M 100.66 27.08 L 101.71 27.08 L 98.53 20.08 L 97.54 20.08 L 94.37 27.08 L 95.4 27.08 L 96.17 25.33 L 99.89 25.33 L 100.66 27.08 Z  M 96.52 24.53 L 98.03 21.1 L 99.54 24.53 L 96.52 24.53 Z  M 105.88 27.16 C 106.97 27.16 107.91 26.78 108.55 26.06 L 107.9 25.43 C 107.36 26 106.7 26.27 105.93 26.27 C 104.35 26.27 103.18 25.13 103.18 23.58 C 103.18 22.03 104.35 20.89 105.93 20.89 C 106.7 20.89 107.36 21.15 107.9 21.72 L 108.55 21.09 C 107.91 20.37 106.97 20 105.89 20 C 103.76 20 102.18 21.51 102.18 23.58 C 102.18 25.65 103.76 27.16 105.88 27.16 Z  M 115 20.08 L 115 23.09 L 110.98 23.09 L 110.98 20.08 L 109.98 20.08 L 109.98 27.08 L 110.98 27.08 L 110.98 23.96 L 115 23.96 L 115 27.08 L 116 27.08 L 116 20.08 L 115 20.08 Z  M 123.56 20.08 L 122.57 20.08 L 120.32 23.77 L 118.08 20.08 L 117.01 20.08 L 119.79 24.64 L 119.79 27.08 L 120.78 27.08 L 120.78 24.66 L 123.56 20.08 Z  M 127.73 27.16 C 129.86 27.16 131.44 25.64 131.44 23.58 C 131.44 21.52 129.86 20 127.73 20 C 125.58 20 124 21.53 124 23.58 C 124 25.63 125.58 27.16 127.73 27.16 Z  M 127.73 26.27 C 126.16 26.27 125 25.13 125 23.58 C 125 22.03 126.16 20.89 127.73 20.89 C 129.28 20.89 130.44 22.03 130.44 23.58 C 130.44 25.13 129.28 26.27 127.73 26.27 Z  M 137.99 20.08 L 137.99 25.3 L 133.79 20.08 L 132.97 20.08 L 132.97 27.08 L 133.97 27.08 L 133.97 21.86 L 138.17 27.08 L 138.99 27.08 L 138.99 20.08 L 137.99 20.08 Z " fill-rule="evenodd" fill="rgb(32,32,32)"/></g></svg>